M48
; DRILL file {KiCad (5.1.4)-1} date 28/10/2019 18:01:47
; FORMAT={-:-/ absolute / inch / decimal}
; #@! TF.CreationDate,2019-10-28T18:01:47-07:00
; #@! TF.GenerationSoftware,Kicad,Pcbnew,(5.1.4)-1
FMAT,2
INCH
T1C0.0157
T2C0.0236
T3C0.0315
T4C0.0394
T5C0.0590
T6C0.0591
T7C0.1260
T8C0.0394
T9C0.0709
T10C0.1570
%
G90
G05
T1
X4.5748Y-2.5
X4.6142Y-2.4764
X5.1496Y-2.6299
X5.3425Y-2.8898
X5.4803Y-2.4567
X5.5276Y-2.5
X5.5315Y-2.3051
X5.5787Y-3.0
X5.5945Y-2.2953
X5.5945Y-2.8898
X5.6496Y-2.2992
X5.748Y-2.252
X5.7579Y-2.6299
X5.7677Y-2.5354
X5.8071Y-2.4724
X5.874Y-2.4409
X5.874Y-2.5039
X5.9265Y-2.0958
X6.0Y-3.2205
X6.0827Y-2.8228
X6.0827Y-2.8661
X6.0827Y-2.9055
X6.2992Y-2.1378
X6.2992Y-2.2677
X6.3189Y-2.5354
X6.5551Y-2.252
X6.6102Y-1.9094
X6.6398Y-1.5374
T2
X6.4409Y-2.7638
X6.4409Y-2.8425
T3
X6.0433Y-2.5945
X6.2402Y-2.5945
X6.7323Y-1.8992
X6.7323Y-2.2992
X4.4921Y-3.5236
X4.4921Y-3.9236
X5.5457Y-3.9641
X5.7579Y-3.752
X6.0433Y-2.4449
X6.2402Y-2.4449
X6.3681Y-3.752
X6.5802Y-3.9641
X5.3937Y-1.6457
X5.3937Y-1.8425
X4.9946Y-3.9641
X5.2067Y-3.752
X5.6024Y-3.1024
X5.6024Y-3.2992
X4.4921Y-2.9803
X4.4921Y-3.3803
X6.6339Y-2.9055
X6.6339Y-3.3055
X5.7426Y-3.9641
X5.9547Y-3.752
X7.1161Y-3.752
X7.3283Y-3.9641
X5.5906Y-1.6457
X5.5906Y-1.8425
X4.7638Y-2.4331
X4.9606Y-2.4331
X4.6929Y-2.7874
X5.0929Y-2.7874
X6.9094Y-3.752
X7.1216Y-3.9641
X5.3937Y-2.0787
X5.5858Y-2.0787
X5.3937Y-3.1024
X5.3937Y-3.2992
X6.4685Y-1.8992
X6.4685Y-2.2992
X6.1614Y-3.752
X6.3735Y-3.9641
X4.7977Y-3.9641
X5.0098Y-3.752
T4
X6.9094Y-1.9055
X6.9094Y-2.0039
X6.9094Y-2.1024
X7.4803Y-1.9055
X7.4803Y-2.1024
X4.626Y-1.9055
X4.626Y-2.0039
X4.626Y-2.1024
X5.1969Y-1.9055
X5.1969Y-2.1024
X4.6417Y-3.5787
X4.6417Y-3.6787
X4.6417Y-3.7787
X4.6417Y-3.8787
X5.7677Y-3.1024
X5.7677Y-3.2008
X5.7677Y-3.2992
X6.3386Y-3.1024
X6.3386Y-3.2992
X6.9094Y-3.1024
X6.9094Y-3.2008
X6.9094Y-3.2992
X7.4803Y-3.1024
X7.4803Y-3.2992
X7.4098Y-2.5008
X7.4098Y-2.6008
X7.4098Y-2.7008
X7.5098Y-2.5008
X7.5098Y-2.6008
X7.5098Y-2.7008
X5.9646Y-1.7283
X5.9646Y-2.2992
X6.063Y-2.2992
X6.1614Y-1.7283
X6.1614Y-2.2992
X4.6457Y-3.1024
X4.6457Y-3.2992
X5.2165Y-3.1024
X5.2165Y-3.2008
X5.2165Y-3.2992
T5
X6.287Y-4.9709
X6.537Y-4.8709
X5.539Y-4.9709
X5.789Y-4.8709
X4.7909Y-4.9709
X5.0409Y-4.8709
X4.7909Y-4.2228
X5.0409Y-4.1228
X6.287Y-4.2228
X6.537Y-4.1228
X7.035Y-4.9709
X7.285Y-4.8709
X7.035Y-4.2228
X7.285Y-4.1228
X5.539Y-4.2228
X5.789Y-4.1228
T7
X7.5984Y-5.4646
X4.5276Y-5.4646
X4.5276Y-1.685
X7.5984Y-1.685
T8
X6.5236Y-1.685
X6.6969Y-1.685
T9
X6.237Y-5.0709
X6.637Y-5.0709
X5.489Y-5.0709
X5.889Y-5.0709
X4.7409Y-5.0709
X5.1409Y-5.0709
X4.7409Y-4.3228
X5.1409Y-4.3228
X6.237Y-4.3228
X6.637Y-4.3228
X6.985Y-5.0709
X7.385Y-5.0709
X6.985Y-4.3228
X7.385Y-4.3228
X5.489Y-4.3228
X5.889Y-4.3228
T10
X6.437Y-5.0709
X5.689Y-5.0709
X6.437Y-4.3228
X5.689Y-4.3228
X4.9409Y-5.0709
X4.9409Y-4.3228
X7.185Y-5.0709
X7.185Y-4.3228
T6
G00X5.8425Y-2.0295
M15
G01X5.8425Y-1.9783
M16
G05
G00X6.2835Y-2.0295
M15
G01X6.2835Y-1.9783
M16
G05
G00X4.9469Y-2.9803
M15
G01X4.8957Y-2.9803
M16
G05
G00X4.9469Y-3.4213
M15
G01X4.8957Y-3.4213
M16
G05
G00X7.1791Y-1.7835
M15
G01X7.2303Y-1.7835
M16
G05
G00X7.1791Y-2.2244
M15
G01X7.2303Y-2.2244
M16
G05
G00X4.8957Y-1.7835
M15
G01X4.9469Y-1.7835
M16
G05
G00X4.8957Y-2.2244
M15
G01X4.9469Y-2.2244
M16
G05
G00X6.0374Y-2.9803
M15
G01X6.0886Y-2.9803
M16
G05
G00X6.0374Y-3.4213
M15
G01X6.0886Y-3.4213
M16
G05
G00X7.1791Y-2.9803
M15
G01X7.2303Y-2.9803
M16
G05
G00X7.1791Y-3.4213
M15
G01X7.2303Y-3.4213
M16
G05
T0
M30
