G04 #@! TF.GenerationSoftware,KiCad,Pcbnew,(5.1.4)-1*
G04 #@! TF.CreationDate,2019-10-28T18:01:08-07:00*
G04 #@! TF.ProjectId,louwii-pad,6c6f7577-6969-42d7-9061-642e6b696361,rev?*
G04 #@! TF.SameCoordinates,Original*
G04 #@! TF.FileFunction,Legend,Bot*
G04 #@! TF.FilePolarity,Positive*
%FSLAX46Y46*%
G04 Gerber Fmt 4.6, Leading zero omitted, Abs format (unit mm)*
G04 Created by KiCad (PCBNEW (5.1.4)-1) date 2019-10-28 18:01:08*
%MOMM*%
%LPD*%
G04 APERTURE LIST*
%ADD10C,0.300000*%
%ADD11C,0.120000*%
%ADD12C,0.150000*%
%ADD13C,0.200000*%
G04 APERTURE END LIST*
D10*
X187192857Y-139478571D02*
X187907142Y-139478571D01*
X187907142Y-137978571D01*
X186478571Y-139478571D02*
X186621428Y-139407142D01*
X186692857Y-139335714D01*
X186764285Y-139192857D01*
X186764285Y-138764285D01*
X186692857Y-138621428D01*
X186621428Y-138550000D01*
X186478571Y-138478571D01*
X186264285Y-138478571D01*
X186121428Y-138550000D01*
X186050000Y-138621428D01*
X185978571Y-138764285D01*
X185978571Y-139192857D01*
X186050000Y-139335714D01*
X186121428Y-139407142D01*
X186264285Y-139478571D01*
X186478571Y-139478571D01*
X184692857Y-138478571D02*
X184692857Y-139478571D01*
X185335714Y-138478571D02*
X185335714Y-139264285D01*
X185264285Y-139407142D01*
X185121428Y-139478571D01*
X184907142Y-139478571D01*
X184764285Y-139407142D01*
X184692857Y-139335714D01*
X184121428Y-138478571D02*
X183835714Y-139478571D01*
X183550000Y-138764285D01*
X183264285Y-139478571D01*
X182978571Y-138478571D01*
X182407142Y-139478571D02*
X182407142Y-138478571D01*
X182407142Y-137978571D02*
X182478571Y-138050000D01*
X182407142Y-138121428D01*
X182335714Y-138050000D01*
X182407142Y-137978571D01*
X182407142Y-138121428D01*
X181692857Y-139478571D02*
X181692857Y-138478571D01*
X181692857Y-137978571D02*
X181764285Y-138050000D01*
X181692857Y-138121428D01*
X181621428Y-138050000D01*
X181692857Y-137978571D01*
X181692857Y-138121428D01*
X179835714Y-138478571D02*
X179835714Y-139978571D01*
X179835714Y-138550000D02*
X179692857Y-138478571D01*
X179407142Y-138478571D01*
X179264285Y-138550000D01*
X179192857Y-138621428D01*
X179121428Y-138764285D01*
X179121428Y-139192857D01*
X179192857Y-139335714D01*
X179264285Y-139407142D01*
X179407142Y-139478571D01*
X179692857Y-139478571D01*
X179835714Y-139407142D01*
X177835714Y-139478571D02*
X177835714Y-138692857D01*
X177907142Y-138550000D01*
X178050000Y-138478571D01*
X178335714Y-138478571D01*
X178478571Y-138550000D01*
X177835714Y-139407142D02*
X177978571Y-139478571D01*
X178335714Y-139478571D01*
X178478571Y-139407142D01*
X178550000Y-139264285D01*
X178550000Y-139121428D01*
X178478571Y-138978571D01*
X178335714Y-138907142D01*
X177978571Y-138907142D01*
X177835714Y-138835714D01*
X176478571Y-139478571D02*
X176478571Y-137978571D01*
X176478571Y-139407142D02*
X176621428Y-139478571D01*
X176907142Y-139478571D01*
X177050000Y-139407142D01*
X177121428Y-139335714D01*
X177192857Y-139192857D01*
X177192857Y-138764285D01*
X177121428Y-138621428D01*
X177050000Y-138550000D01*
X176907142Y-138478571D01*
X176621428Y-138478571D01*
X176478571Y-138550000D01*
X174621428Y-138907142D02*
X173478571Y-138907142D01*
X171621428Y-139478571D02*
X171621428Y-138478571D01*
X171621428Y-138764285D02*
X171550000Y-138621428D01*
X171478571Y-138550000D01*
X171335714Y-138478571D01*
X171192857Y-138478571D01*
X170121428Y-139407142D02*
X170264285Y-139478571D01*
X170550000Y-139478571D01*
X170692857Y-139407142D01*
X170764285Y-139264285D01*
X170764285Y-138692857D01*
X170692857Y-138550000D01*
X170550000Y-138478571D01*
X170264285Y-138478571D01*
X170121428Y-138550000D01*
X170050000Y-138692857D01*
X170050000Y-138835714D01*
X170764285Y-138978571D01*
X169550000Y-138478571D02*
X169192857Y-139478571D01*
X168835714Y-138478571D01*
X168264285Y-139335714D02*
X168192857Y-139407142D01*
X168264285Y-139478571D01*
X168335714Y-139407142D01*
X168264285Y-139335714D01*
X168264285Y-139478571D01*
X165621428Y-139478571D02*
X166478571Y-139478571D01*
X166050000Y-139478571D02*
X166050000Y-137978571D01*
X166192857Y-138192857D01*
X166335714Y-138335714D01*
X166478571Y-138407142D01*
D11*
X125263030Y-95703051D02*
X126846949Y-97286970D01*
X126846949Y-97286970D02*
X123848816Y-100285103D01*
X123848816Y-100285103D02*
X122264897Y-98701184D01*
X122264897Y-98701184D02*
X125263030Y-95703051D01*
X126514609Y-96035391D02*
X126054990Y-96495010D01*
X122597237Y-99952763D02*
X123056857Y-99493143D01*
X124753913Y-96212168D02*
X126337832Y-97796087D01*
X124669060Y-96297021D02*
X126252979Y-97880940D01*
X124838766Y-96127315D02*
X126422685Y-97711234D01*
X129838766Y-96127315D02*
X131422685Y-97711234D01*
X129669060Y-96297021D02*
X131252979Y-97880940D01*
X129753913Y-96212168D02*
X131337832Y-97796087D01*
X127597237Y-99952763D02*
X128056857Y-99493143D01*
X131514609Y-96035391D02*
X131054990Y-96495010D01*
X127264897Y-98701184D02*
X130263030Y-95703051D01*
X128848816Y-100285103D02*
X127264897Y-98701184D01*
X131846949Y-97286970D02*
X128848816Y-100285103D01*
X130263030Y-95703051D02*
X131846949Y-97286970D01*
X144263030Y-95703051D02*
X145846949Y-97286970D01*
X145846949Y-97286970D02*
X142848816Y-100285103D01*
X142848816Y-100285103D02*
X141264897Y-98701184D01*
X141264897Y-98701184D02*
X144263030Y-95703051D01*
X145514609Y-96035391D02*
X145054990Y-96495010D01*
X141597237Y-99952763D02*
X142056857Y-99493143D01*
X143753913Y-96212168D02*
X145337832Y-97796087D01*
X143669060Y-96297021D02*
X145252979Y-97880940D01*
X143838766Y-96127315D02*
X145422685Y-97711234D01*
X148838766Y-96127315D02*
X150422685Y-97711234D01*
X148669060Y-96297021D02*
X150252979Y-97880940D01*
X148753913Y-96212168D02*
X150337832Y-97796087D01*
X146597237Y-99952763D02*
X147056857Y-99493143D01*
X150514609Y-96035391D02*
X150054990Y-96495010D01*
X146264897Y-98701184D02*
X149263030Y-95703051D01*
X147848816Y-100285103D02*
X146264897Y-98701184D01*
X150846949Y-97286970D02*
X147848816Y-100285103D01*
X149263030Y-95703051D02*
X150846949Y-97286970D01*
X168500000Y-82920000D02*
X168500000Y-82150000D01*
X168500000Y-74840000D02*
X168500000Y-75610000D01*
X167130000Y-82150000D02*
X167130000Y-75610000D01*
X169870000Y-82150000D02*
X167130000Y-82150000D01*
X169870000Y-75610000D02*
X169870000Y-82150000D01*
X167130000Y-75610000D02*
X169870000Y-75610000D01*
X121010000Y-72170000D02*
X121010000Y-69430000D01*
X121010000Y-69430000D02*
X127550000Y-69430000D01*
X127550000Y-69430000D02*
X127550000Y-72170000D01*
X127550000Y-72170000D02*
X121010000Y-72170000D01*
X120240000Y-70800000D02*
X121010000Y-70800000D01*
X128320000Y-70800000D02*
X127550000Y-70800000D01*
X164300000Y-49280000D02*
X164300000Y-50050000D01*
X164300000Y-57360000D02*
X164300000Y-56590000D01*
X165670000Y-50050000D02*
X165670000Y-56590000D01*
X162930000Y-50050000D02*
X165670000Y-50050000D01*
X162930000Y-56590000D02*
X162930000Y-50050000D01*
X165670000Y-56590000D02*
X162930000Y-56590000D01*
X172370000Y-56590000D02*
X169630000Y-56590000D01*
X169630000Y-56590000D02*
X169630000Y-50050000D01*
X169630000Y-50050000D02*
X172370000Y-50050000D01*
X172370000Y-50050000D02*
X172370000Y-56590000D01*
X171000000Y-57360000D02*
X171000000Y-56590000D01*
X171000000Y-49280000D02*
X171000000Y-50050000D01*
X114100000Y-84820000D02*
X114100000Y-84050000D01*
X114100000Y-76740000D02*
X114100000Y-77510000D01*
X112730000Y-84050000D02*
X112730000Y-77510000D01*
X115470000Y-84050000D02*
X112730000Y-84050000D01*
X115470000Y-77510000D02*
X115470000Y-84050000D01*
X112730000Y-77510000D02*
X115470000Y-77510000D01*
X112730000Y-91310000D02*
X115470000Y-91310000D01*
X115470000Y-91310000D02*
X115470000Y-97850000D01*
X115470000Y-97850000D02*
X112730000Y-97850000D01*
X112730000Y-97850000D02*
X112730000Y-91310000D01*
X114100000Y-90540000D02*
X114100000Y-91310000D01*
X114100000Y-98620000D02*
X114100000Y-97850000D01*
X138055000Y-46570000D02*
X138070000Y-46570000D01*
X135930000Y-46570000D02*
X135945000Y-46570000D01*
X138055000Y-42030000D02*
X138070000Y-42030000D01*
X135930000Y-42030000D02*
X135945000Y-42030000D01*
X138070000Y-42030000D02*
X138070000Y-46570000D01*
X135930000Y-42030000D02*
X135930000Y-46570000D01*
X143070000Y-46570000D02*
X143070000Y-42030000D01*
X140930000Y-46570000D02*
X140930000Y-42030000D01*
X143070000Y-46570000D02*
X143055000Y-46570000D01*
X140945000Y-46570000D02*
X140930000Y-46570000D01*
X143070000Y-42030000D02*
X143055000Y-42030000D01*
X140945000Y-42030000D02*
X140930000Y-42030000D01*
X153730000Y-66970000D02*
X158270000Y-66970000D01*
X153730000Y-64830000D02*
X158270000Y-64830000D01*
X153730000Y-66970000D02*
X153730000Y-66955000D01*
X153730000Y-64845000D02*
X153730000Y-64830000D01*
X158270000Y-66970000D02*
X158270000Y-66955000D01*
X158270000Y-64845000D02*
X158270000Y-64830000D01*
X138055000Y-83570000D02*
X138070000Y-83570000D01*
X135930000Y-83570000D02*
X135945000Y-83570000D01*
X138055000Y-79030000D02*
X138070000Y-79030000D01*
X135930000Y-79030000D02*
X135945000Y-79030000D01*
X138070000Y-79030000D02*
X138070000Y-83570000D01*
X135930000Y-79030000D02*
X135930000Y-83570000D01*
X141230000Y-79030000D02*
X141230000Y-83570000D01*
X143370000Y-79030000D02*
X143370000Y-83570000D01*
X141230000Y-79030000D02*
X141245000Y-79030000D01*
X143355000Y-79030000D02*
X143370000Y-79030000D01*
X141230000Y-83570000D02*
X141245000Y-83570000D01*
X143355000Y-83570000D02*
X143370000Y-83570000D01*
X121230000Y-62855000D02*
X121230000Y-62870000D01*
X121230000Y-60730000D02*
X121230000Y-60745000D01*
X125770000Y-62855000D02*
X125770000Y-62870000D01*
X125770000Y-60730000D02*
X125770000Y-60745000D01*
X125770000Y-62870000D02*
X121230000Y-62870000D01*
X125770000Y-60730000D02*
X121230000Y-60730000D01*
X153730000Y-63170000D02*
X158270000Y-63170000D01*
X153730000Y-61030000D02*
X158270000Y-61030000D01*
X153730000Y-63170000D02*
X153730000Y-63155000D01*
X153730000Y-61045000D02*
X153730000Y-61030000D01*
X158270000Y-63170000D02*
X158270000Y-63155000D01*
X158270000Y-61045000D02*
X158270000Y-61030000D01*
X166220000Y-71200000D02*
G75*
G03X166220000Y-71200000I-2620000J0D01*
G01*
D12*
X134200000Y-60300000D02*
X136500000Y-62550000D01*
D13*
X136200000Y-60300000D02*
X131500000Y-60300000D01*
X136500000Y-60550000D02*
X136500000Y-65300000D01*
X136200000Y-60300000D02*
X136500000Y-60550000D01*
X131500000Y-65300000D02*
X136500000Y-65300000D01*
X131500640Y-60300640D02*
X131500640Y-65299360D01*
X175499360Y-65299360D02*
X175499360Y-60300640D01*
X175500000Y-60300000D02*
X170500000Y-60300000D01*
X170800000Y-65300000D02*
X170500000Y-65050000D01*
X170500000Y-65050000D02*
X170500000Y-60300000D01*
X170800000Y-65300000D02*
X175500000Y-65300000D01*
D12*
X172800000Y-65300000D02*
X170500000Y-63050000D01*
D13*
X170500640Y-116300640D02*
X170500640Y-121299360D01*
X170500000Y-121300000D02*
X175500000Y-121300000D01*
X175200000Y-116300000D02*
X175500000Y-116550000D01*
X175500000Y-116550000D02*
X175500000Y-121300000D01*
X175200000Y-116300000D02*
X170500000Y-116300000D01*
D12*
X173200000Y-116300000D02*
X175500000Y-118550000D01*
X135200000Y-116300000D02*
X137500000Y-118550000D01*
D13*
X137200000Y-116300000D02*
X132500000Y-116300000D01*
X137500000Y-116550000D02*
X137500000Y-121300000D01*
X137200000Y-116300000D02*
X137500000Y-116550000D01*
X132500000Y-121300000D02*
X137500000Y-121300000D01*
X132500640Y-116300640D02*
X132500640Y-121299360D01*
D12*
X123898650Y-96292979D02*
X123191544Y-95585872D01*
X123023185Y-95754231D01*
X122955841Y-95888918D01*
X122955841Y-96023605D01*
X122989513Y-96124620D01*
X123090528Y-96292979D01*
X123191544Y-96393994D01*
X123359902Y-96495010D01*
X123460918Y-96528681D01*
X123595605Y-96528681D01*
X123730292Y-96461338D01*
X123898650Y-96292979D01*
X122821154Y-97370475D02*
X123225215Y-96966414D01*
X123023185Y-97168445D02*
X122316078Y-96461338D01*
X122484437Y-96495010D01*
X122619124Y-96495010D01*
X122720139Y-96461338D01*
X131941793Y-99197969D02*
X131234687Y-98490862D01*
X131066328Y-98659221D01*
X130998984Y-98793908D01*
X130998984Y-98928595D01*
X131032656Y-99029610D01*
X131133671Y-99197969D01*
X131234687Y-99298984D01*
X131403045Y-99400000D01*
X131504061Y-99433671D01*
X131638748Y-99433671D01*
X131773435Y-99366328D01*
X131941793Y-99197969D01*
X130628595Y-99231641D02*
X130561251Y-99231641D01*
X130460236Y-99265312D01*
X130291877Y-99433671D01*
X130258206Y-99534687D01*
X130258206Y-99602030D01*
X130291877Y-99703045D01*
X130359221Y-99770389D01*
X130493908Y-99837732D01*
X131302030Y-99837732D01*
X130864297Y-100275465D01*
X142898650Y-96292979D02*
X142191544Y-95585872D01*
X142023185Y-95754231D01*
X141955841Y-95888918D01*
X141955841Y-96023605D01*
X141989513Y-96124620D01*
X142090528Y-96292979D01*
X142191544Y-96393994D01*
X142359902Y-96495010D01*
X142460918Y-96528681D01*
X142595605Y-96528681D01*
X142730292Y-96461338D01*
X142898650Y-96292979D01*
X141551780Y-96225635D02*
X141114047Y-96663368D01*
X141619124Y-96697040D01*
X141518108Y-96798055D01*
X141484437Y-96899071D01*
X141484437Y-96966414D01*
X141518108Y-97067429D01*
X141686467Y-97235788D01*
X141787482Y-97269460D01*
X141854826Y-97269460D01*
X141955841Y-97235788D01*
X142157872Y-97033758D01*
X142191544Y-96932742D01*
X142191544Y-96865399D01*
X150816793Y-99272969D02*
X150109687Y-98565862D01*
X149941328Y-98734221D01*
X149873984Y-98868908D01*
X149873984Y-99003595D01*
X149907656Y-99104610D01*
X150008671Y-99272969D01*
X150109687Y-99373984D01*
X150278045Y-99475000D01*
X150379061Y-99508671D01*
X150513748Y-99508671D01*
X150648435Y-99441328D01*
X150816793Y-99272969D01*
X149335236Y-99811717D02*
X149806641Y-100283122D01*
X149234221Y-99373984D02*
X149907656Y-99710702D01*
X149469923Y-100148435D01*
X166582380Y-78713333D02*
X166106190Y-78380000D01*
X166582380Y-78141904D02*
X165582380Y-78141904D01*
X165582380Y-78522857D01*
X165630000Y-78618095D01*
X165677619Y-78665714D01*
X165772857Y-78713333D01*
X165915714Y-78713333D01*
X166010952Y-78665714D01*
X166058571Y-78618095D01*
X166106190Y-78522857D01*
X166106190Y-78141904D01*
X166582380Y-79665714D02*
X166582380Y-79094285D01*
X166582380Y-79380000D02*
X165582380Y-79380000D01*
X165725238Y-79284761D01*
X165820476Y-79189523D01*
X165868095Y-79094285D01*
X168952380Y-78189523D02*
X168952380Y-77618095D01*
X168952380Y-77903809D02*
X167952380Y-77903809D01*
X168095238Y-77808571D01*
X168190476Y-77713333D01*
X168238095Y-77618095D01*
X167952380Y-78808571D02*
X167952380Y-78903809D01*
X168000000Y-78999047D01*
X168047619Y-79046666D01*
X168142857Y-79094285D01*
X168333333Y-79141904D01*
X168571428Y-79141904D01*
X168761904Y-79094285D01*
X168857142Y-79046666D01*
X168904761Y-78999047D01*
X168952380Y-78903809D01*
X168952380Y-78808571D01*
X168904761Y-78713333D01*
X168857142Y-78665714D01*
X168761904Y-78618095D01*
X168571428Y-78570476D01*
X168333333Y-78570476D01*
X168142857Y-78618095D01*
X168047619Y-78665714D01*
X168000000Y-78713333D01*
X167952380Y-78808571D01*
X168952380Y-79570476D02*
X167952380Y-79570476D01*
X168952380Y-80141904D02*
X168380952Y-79713333D01*
X167952380Y-80141904D02*
X168523809Y-79570476D01*
X124446666Y-73622380D02*
X124780000Y-73146190D01*
X125018095Y-73622380D02*
X125018095Y-72622380D01*
X124637142Y-72622380D01*
X124541904Y-72670000D01*
X124494285Y-72717619D01*
X124446666Y-72812857D01*
X124446666Y-72955714D01*
X124494285Y-73050952D01*
X124541904Y-73098571D01*
X124637142Y-73146190D01*
X125018095Y-73146190D01*
X124065714Y-72717619D02*
X124018095Y-72670000D01*
X123922857Y-72622380D01*
X123684761Y-72622380D01*
X123589523Y-72670000D01*
X123541904Y-72717619D01*
X123494285Y-72812857D01*
X123494285Y-72908095D01*
X123541904Y-73050952D01*
X124113333Y-73622380D01*
X123494285Y-73622380D01*
X124970476Y-71252380D02*
X125541904Y-71252380D01*
X125256190Y-71252380D02*
X125256190Y-70252380D01*
X125351428Y-70395238D01*
X125446666Y-70490476D01*
X125541904Y-70538095D01*
X124351428Y-70252380D02*
X124256190Y-70252380D01*
X124160952Y-70300000D01*
X124113333Y-70347619D01*
X124065714Y-70442857D01*
X124018095Y-70633333D01*
X124018095Y-70871428D01*
X124065714Y-71061904D01*
X124113333Y-71157142D01*
X124160952Y-71204761D01*
X124256190Y-71252380D01*
X124351428Y-71252380D01*
X124446666Y-71204761D01*
X124494285Y-71157142D01*
X124541904Y-71061904D01*
X124589523Y-70871428D01*
X124589523Y-70633333D01*
X124541904Y-70442857D01*
X124494285Y-70347619D01*
X124446666Y-70300000D01*
X124351428Y-70252380D01*
X123589523Y-71252380D02*
X123589523Y-70252380D01*
X123018095Y-71252380D02*
X123446666Y-70680952D01*
X123018095Y-70252380D02*
X123589523Y-70823809D01*
X167122380Y-53153333D02*
X166646190Y-52820000D01*
X167122380Y-52581904D02*
X166122380Y-52581904D01*
X166122380Y-52962857D01*
X166170000Y-53058095D01*
X166217619Y-53105714D01*
X166312857Y-53153333D01*
X166455714Y-53153333D01*
X166550952Y-53105714D01*
X166598571Y-53058095D01*
X166646190Y-52962857D01*
X166646190Y-52581904D01*
X166122380Y-53486666D02*
X166122380Y-54105714D01*
X166503333Y-53772380D01*
X166503333Y-53915238D01*
X166550952Y-54010476D01*
X166598571Y-54058095D01*
X166693809Y-54105714D01*
X166931904Y-54105714D01*
X167027142Y-54058095D01*
X167074761Y-54010476D01*
X167122380Y-53915238D01*
X167122380Y-53629523D01*
X167074761Y-53534285D01*
X167027142Y-53486666D01*
X163847619Y-52558095D02*
X163800000Y-52605714D01*
X163752380Y-52700952D01*
X163752380Y-52939047D01*
X163800000Y-53034285D01*
X163847619Y-53081904D01*
X163942857Y-53129523D01*
X164038095Y-53129523D01*
X164180952Y-53081904D01*
X164752380Y-52510476D01*
X164752380Y-53129523D01*
X163847619Y-53510476D02*
X163800000Y-53558095D01*
X163752380Y-53653333D01*
X163752380Y-53891428D01*
X163800000Y-53986666D01*
X163847619Y-54034285D01*
X163942857Y-54081904D01*
X164038095Y-54081904D01*
X164180952Y-54034285D01*
X164752380Y-53462857D01*
X164752380Y-54081904D01*
X173822380Y-53153333D02*
X173346190Y-52820000D01*
X173822380Y-52581904D02*
X172822380Y-52581904D01*
X172822380Y-52962857D01*
X172870000Y-53058095D01*
X172917619Y-53105714D01*
X173012857Y-53153333D01*
X173155714Y-53153333D01*
X173250952Y-53105714D01*
X173298571Y-53058095D01*
X173346190Y-52962857D01*
X173346190Y-52581904D01*
X173155714Y-54010476D02*
X173822380Y-54010476D01*
X172774761Y-53772380D02*
X173489047Y-53534285D01*
X173489047Y-54153333D01*
X170547619Y-52538095D02*
X170500000Y-52585714D01*
X170452380Y-52680952D01*
X170452380Y-52919047D01*
X170500000Y-53014285D01*
X170547619Y-53061904D01*
X170642857Y-53109523D01*
X170738095Y-53109523D01*
X170880952Y-53061904D01*
X171452380Y-52490476D01*
X171452380Y-53109523D01*
X170547619Y-53490476D02*
X170500000Y-53538095D01*
X170452380Y-53633333D01*
X170452380Y-53871428D01*
X170500000Y-53966666D01*
X170547619Y-54014285D01*
X170642857Y-54061904D01*
X170738095Y-54061904D01*
X170880952Y-54014285D01*
X171452380Y-53442857D01*
X171452380Y-54061904D01*
X112182380Y-80613333D02*
X111706190Y-80280000D01*
X112182380Y-80041904D02*
X111182380Y-80041904D01*
X111182380Y-80422857D01*
X111230000Y-80518095D01*
X111277619Y-80565714D01*
X111372857Y-80613333D01*
X111515714Y-80613333D01*
X111610952Y-80565714D01*
X111658571Y-80518095D01*
X111706190Y-80422857D01*
X111706190Y-80041904D01*
X111182380Y-81518095D02*
X111182380Y-81041904D01*
X111658571Y-80994285D01*
X111610952Y-81041904D01*
X111563333Y-81137142D01*
X111563333Y-81375238D01*
X111610952Y-81470476D01*
X111658571Y-81518095D01*
X111753809Y-81565714D01*
X111991904Y-81565714D01*
X112087142Y-81518095D01*
X112134761Y-81470476D01*
X112182380Y-81375238D01*
X112182380Y-81137142D01*
X112134761Y-81041904D01*
X112087142Y-80994285D01*
X113885714Y-79871428D02*
X114552380Y-79871428D01*
X113504761Y-79633333D02*
X114219047Y-79395238D01*
X114219047Y-80014285D01*
X114457142Y-80395238D02*
X114504761Y-80442857D01*
X114552380Y-80395238D01*
X114504761Y-80347619D01*
X114457142Y-80395238D01*
X114552380Y-80395238D01*
X113552380Y-80776190D02*
X113552380Y-81442857D01*
X114552380Y-81014285D01*
X114552380Y-81823809D02*
X113552380Y-81823809D01*
X114171428Y-81919047D02*
X114552380Y-82204761D01*
X113885714Y-82204761D02*
X114266666Y-81823809D01*
X112182380Y-94413333D02*
X111706190Y-94080000D01*
X112182380Y-93841904D02*
X111182380Y-93841904D01*
X111182380Y-94222857D01*
X111230000Y-94318095D01*
X111277619Y-94365714D01*
X111372857Y-94413333D01*
X111515714Y-94413333D01*
X111610952Y-94365714D01*
X111658571Y-94318095D01*
X111706190Y-94222857D01*
X111706190Y-93841904D01*
X111182380Y-95270476D02*
X111182380Y-95080000D01*
X111230000Y-94984761D01*
X111277619Y-94937142D01*
X111420476Y-94841904D01*
X111610952Y-94794285D01*
X111991904Y-94794285D01*
X112087142Y-94841904D01*
X112134761Y-94889523D01*
X112182380Y-94984761D01*
X112182380Y-95175238D01*
X112134761Y-95270476D01*
X112087142Y-95318095D01*
X111991904Y-95365714D01*
X111753809Y-95365714D01*
X111658571Y-95318095D01*
X111610952Y-95270476D01*
X111563333Y-95175238D01*
X111563333Y-94984761D01*
X111610952Y-94889523D01*
X111658571Y-94841904D01*
X111753809Y-94794285D01*
X113885714Y-93651428D02*
X114552380Y-93651428D01*
X113504761Y-93413333D02*
X114219047Y-93175238D01*
X114219047Y-93794285D01*
X114457142Y-94175238D02*
X114504761Y-94222857D01*
X114552380Y-94175238D01*
X114504761Y-94127619D01*
X114457142Y-94175238D01*
X114552380Y-94175238D01*
X113552380Y-94556190D02*
X113552380Y-95222857D01*
X114552380Y-94794285D01*
X114552380Y-95603809D02*
X113552380Y-95603809D01*
X114171428Y-95699047D02*
X114552380Y-95984761D01*
X113885714Y-95984761D02*
X114266666Y-95603809D01*
X135157142Y-44133333D02*
X135204761Y-44085714D01*
X135252380Y-43942857D01*
X135252380Y-43847619D01*
X135204761Y-43704761D01*
X135109523Y-43609523D01*
X135014285Y-43561904D01*
X134823809Y-43514285D01*
X134680952Y-43514285D01*
X134490476Y-43561904D01*
X134395238Y-43609523D01*
X134300000Y-43704761D01*
X134252380Y-43847619D01*
X134252380Y-43942857D01*
X134300000Y-44085714D01*
X134347619Y-44133333D01*
X135252380Y-45085714D02*
X135252380Y-44514285D01*
X135252380Y-44800000D02*
X134252380Y-44800000D01*
X134395238Y-44704761D01*
X134490476Y-44609523D01*
X134538095Y-44514285D01*
X136547619Y-42657142D02*
X136500000Y-42704761D01*
X136452380Y-42800000D01*
X136452380Y-43038095D01*
X136500000Y-43133333D01*
X136547619Y-43180952D01*
X136642857Y-43228571D01*
X136738095Y-43228571D01*
X136880952Y-43180952D01*
X137452380Y-42609523D01*
X137452380Y-43228571D01*
X136547619Y-43609523D02*
X136500000Y-43657142D01*
X136452380Y-43752380D01*
X136452380Y-43990476D01*
X136500000Y-44085714D01*
X136547619Y-44133333D01*
X136642857Y-44180952D01*
X136738095Y-44180952D01*
X136880952Y-44133333D01*
X137452380Y-43561904D01*
X137452380Y-44180952D01*
X136785714Y-44609523D02*
X137785714Y-44609523D01*
X136833333Y-44609523D02*
X136785714Y-44704761D01*
X136785714Y-44895238D01*
X136833333Y-44990476D01*
X136880952Y-45038095D01*
X136976190Y-45085714D01*
X137261904Y-45085714D01*
X137357142Y-45038095D01*
X137404761Y-44990476D01*
X137452380Y-44895238D01*
X137452380Y-44704761D01*
X137404761Y-44609523D01*
X136928571Y-45847619D02*
X136928571Y-45514285D01*
X137452380Y-45514285D02*
X136452380Y-45514285D01*
X136452380Y-45990476D01*
X144557142Y-44133333D02*
X144604761Y-44085714D01*
X144652380Y-43942857D01*
X144652380Y-43847619D01*
X144604761Y-43704761D01*
X144509523Y-43609523D01*
X144414285Y-43561904D01*
X144223809Y-43514285D01*
X144080952Y-43514285D01*
X143890476Y-43561904D01*
X143795238Y-43609523D01*
X143700000Y-43704761D01*
X143652380Y-43847619D01*
X143652380Y-43942857D01*
X143700000Y-44085714D01*
X143747619Y-44133333D01*
X143747619Y-44514285D02*
X143700000Y-44561904D01*
X143652380Y-44657142D01*
X143652380Y-44895238D01*
X143700000Y-44990476D01*
X143747619Y-45038095D01*
X143842857Y-45085714D01*
X143938095Y-45085714D01*
X144080952Y-45038095D01*
X144652380Y-44466666D01*
X144652380Y-45085714D01*
X141547619Y-42657142D02*
X141500000Y-42704761D01*
X141452380Y-42800000D01*
X141452380Y-43038095D01*
X141500000Y-43133333D01*
X141547619Y-43180952D01*
X141642857Y-43228571D01*
X141738095Y-43228571D01*
X141880952Y-43180952D01*
X142452380Y-42609523D01*
X142452380Y-43228571D01*
X141547619Y-43609523D02*
X141500000Y-43657142D01*
X141452380Y-43752380D01*
X141452380Y-43990476D01*
X141500000Y-44085714D01*
X141547619Y-44133333D01*
X141642857Y-44180952D01*
X141738095Y-44180952D01*
X141880952Y-44133333D01*
X142452380Y-43561904D01*
X142452380Y-44180952D01*
X141785714Y-44609523D02*
X142785714Y-44609523D01*
X141833333Y-44609523D02*
X141785714Y-44704761D01*
X141785714Y-44895238D01*
X141833333Y-44990476D01*
X141880952Y-45038095D01*
X141976190Y-45085714D01*
X142261904Y-45085714D01*
X142357142Y-45038095D01*
X142404761Y-44990476D01*
X142452380Y-44895238D01*
X142452380Y-44704761D01*
X142404761Y-44609523D01*
X141928571Y-45847619D02*
X141928571Y-45514285D01*
X142452380Y-45514285D02*
X141452380Y-45514285D01*
X141452380Y-45990476D01*
X156166666Y-68257142D02*
X156214285Y-68304761D01*
X156357142Y-68352380D01*
X156452380Y-68352380D01*
X156595238Y-68304761D01*
X156690476Y-68209523D01*
X156738095Y-68114285D01*
X156785714Y-67923809D01*
X156785714Y-67780952D01*
X156738095Y-67590476D01*
X156690476Y-67495238D01*
X156595238Y-67400000D01*
X156452380Y-67352380D01*
X156357142Y-67352380D01*
X156214285Y-67400000D01*
X156166666Y-67447619D01*
X155833333Y-67352380D02*
X155214285Y-67352380D01*
X155547619Y-67733333D01*
X155404761Y-67733333D01*
X155309523Y-67780952D01*
X155261904Y-67828571D01*
X155214285Y-67923809D01*
X155214285Y-68161904D01*
X155261904Y-68257142D01*
X155309523Y-68304761D01*
X155404761Y-68352380D01*
X155690476Y-68352380D01*
X155785714Y-68304761D01*
X155833333Y-68257142D01*
X156595238Y-66352380D02*
X157166666Y-66352380D01*
X156880952Y-66352380D02*
X156880952Y-65352380D01*
X156976190Y-65495238D01*
X157071428Y-65590476D01*
X157166666Y-65638095D01*
X155738095Y-65685714D02*
X155738095Y-66352380D01*
X156166666Y-65685714D02*
X156166666Y-66209523D01*
X156119047Y-66304761D01*
X156023809Y-66352380D01*
X155880952Y-66352380D01*
X155785714Y-66304761D01*
X155738095Y-66257142D01*
X154928571Y-65828571D02*
X155261904Y-65828571D01*
X155261904Y-66352380D02*
X155261904Y-65352380D01*
X154785714Y-65352380D01*
X135157142Y-81133333D02*
X135204761Y-81085714D01*
X135252380Y-80942857D01*
X135252380Y-80847619D01*
X135204761Y-80704761D01*
X135109523Y-80609523D01*
X135014285Y-80561904D01*
X134823809Y-80514285D01*
X134680952Y-80514285D01*
X134490476Y-80561904D01*
X134395238Y-80609523D01*
X134300000Y-80704761D01*
X134252380Y-80847619D01*
X134252380Y-80942857D01*
X134300000Y-81085714D01*
X134347619Y-81133333D01*
X134585714Y-81990476D02*
X135252380Y-81990476D01*
X134204761Y-81752380D02*
X134919047Y-81514285D01*
X134919047Y-82133333D01*
X136452380Y-79957142D02*
X136452380Y-80052380D01*
X136500000Y-80147619D01*
X136547619Y-80195238D01*
X136642857Y-80242857D01*
X136833333Y-80290476D01*
X137071428Y-80290476D01*
X137261904Y-80242857D01*
X137357142Y-80195238D01*
X137404761Y-80147619D01*
X137452380Y-80052380D01*
X137452380Y-79957142D01*
X137404761Y-79861904D01*
X137357142Y-79814285D01*
X137261904Y-79766666D01*
X137071428Y-79719047D01*
X136833333Y-79719047D01*
X136642857Y-79766666D01*
X136547619Y-79814285D01*
X136500000Y-79861904D01*
X136452380Y-79957142D01*
X137357142Y-80719047D02*
X137404761Y-80766666D01*
X137452380Y-80719047D01*
X137404761Y-80671428D01*
X137357142Y-80719047D01*
X137452380Y-80719047D01*
X137452380Y-81719047D02*
X137452380Y-81147619D01*
X137452380Y-81433333D02*
X136452380Y-81433333D01*
X136595238Y-81338095D01*
X136690476Y-81242857D01*
X136738095Y-81147619D01*
X136785714Y-82576190D02*
X137452380Y-82576190D01*
X136785714Y-82147619D02*
X137309523Y-82147619D01*
X137404761Y-82195238D01*
X137452380Y-82290476D01*
X137452380Y-82433333D01*
X137404761Y-82528571D01*
X137357142Y-82576190D01*
X136928571Y-83385714D02*
X136928571Y-83052380D01*
X137452380Y-83052380D02*
X136452380Y-83052380D01*
X136452380Y-83528571D01*
X140457142Y-81133333D02*
X140504761Y-81085714D01*
X140552380Y-80942857D01*
X140552380Y-80847619D01*
X140504761Y-80704761D01*
X140409523Y-80609523D01*
X140314285Y-80561904D01*
X140123809Y-80514285D01*
X139980952Y-80514285D01*
X139790476Y-80561904D01*
X139695238Y-80609523D01*
X139600000Y-80704761D01*
X139552380Y-80847619D01*
X139552380Y-80942857D01*
X139600000Y-81085714D01*
X139647619Y-81133333D01*
X139552380Y-82038095D02*
X139552380Y-81561904D01*
X140028571Y-81514285D01*
X139980952Y-81561904D01*
X139933333Y-81657142D01*
X139933333Y-81895238D01*
X139980952Y-81990476D01*
X140028571Y-82038095D01*
X140123809Y-82085714D01*
X140361904Y-82085714D01*
X140457142Y-82038095D01*
X140504761Y-81990476D01*
X140552380Y-81895238D01*
X140552380Y-81657142D01*
X140504761Y-81561904D01*
X140457142Y-81514285D01*
X141752380Y-79957142D02*
X141752380Y-80052380D01*
X141800000Y-80147619D01*
X141847619Y-80195238D01*
X141942857Y-80242857D01*
X142133333Y-80290476D01*
X142371428Y-80290476D01*
X142561904Y-80242857D01*
X142657142Y-80195238D01*
X142704761Y-80147619D01*
X142752380Y-80052380D01*
X142752380Y-79957142D01*
X142704761Y-79861904D01*
X142657142Y-79814285D01*
X142561904Y-79766666D01*
X142371428Y-79719047D01*
X142133333Y-79719047D01*
X141942857Y-79766666D01*
X141847619Y-79814285D01*
X141800000Y-79861904D01*
X141752380Y-79957142D01*
X142657142Y-80719047D02*
X142704761Y-80766666D01*
X142752380Y-80719047D01*
X142704761Y-80671428D01*
X142657142Y-80719047D01*
X142752380Y-80719047D01*
X142752380Y-81719047D02*
X142752380Y-81147619D01*
X142752380Y-81433333D02*
X141752380Y-81433333D01*
X141895238Y-81338095D01*
X141990476Y-81242857D01*
X142038095Y-81147619D01*
X142085714Y-82576190D02*
X142752380Y-82576190D01*
X142085714Y-82147619D02*
X142609523Y-82147619D01*
X142704761Y-82195238D01*
X142752380Y-82290476D01*
X142752380Y-82433333D01*
X142704761Y-82528571D01*
X142657142Y-82576190D01*
X142228571Y-83385714D02*
X142228571Y-83052380D01*
X142752380Y-83052380D02*
X141752380Y-83052380D01*
X141752380Y-83528571D01*
X123666666Y-59957142D02*
X123714285Y-60004761D01*
X123857142Y-60052380D01*
X123952380Y-60052380D01*
X124095238Y-60004761D01*
X124190476Y-59909523D01*
X124238095Y-59814285D01*
X124285714Y-59623809D01*
X124285714Y-59480952D01*
X124238095Y-59290476D01*
X124190476Y-59195238D01*
X124095238Y-59100000D01*
X123952380Y-59052380D01*
X123857142Y-59052380D01*
X123714285Y-59100000D01*
X123666666Y-59147619D01*
X122809523Y-59052380D02*
X123000000Y-59052380D01*
X123095238Y-59100000D01*
X123142857Y-59147619D01*
X123238095Y-59290476D01*
X123285714Y-59480952D01*
X123285714Y-59861904D01*
X123238095Y-59957142D01*
X123190476Y-60004761D01*
X123095238Y-60052380D01*
X122904761Y-60052380D01*
X122809523Y-60004761D01*
X122761904Y-59957142D01*
X122714285Y-59861904D01*
X122714285Y-59623809D01*
X122761904Y-59528571D01*
X122809523Y-59480952D01*
X122904761Y-59433333D01*
X123095238Y-59433333D01*
X123190476Y-59480952D01*
X123238095Y-59528571D01*
X123285714Y-59623809D01*
X124842857Y-61252380D02*
X124747619Y-61252380D01*
X124652380Y-61300000D01*
X124604761Y-61347619D01*
X124557142Y-61442857D01*
X124509523Y-61633333D01*
X124509523Y-61871428D01*
X124557142Y-62061904D01*
X124604761Y-62157142D01*
X124652380Y-62204761D01*
X124747619Y-62252380D01*
X124842857Y-62252380D01*
X124938095Y-62204761D01*
X124985714Y-62157142D01*
X125033333Y-62061904D01*
X125080952Y-61871428D01*
X125080952Y-61633333D01*
X125033333Y-61442857D01*
X124985714Y-61347619D01*
X124938095Y-61300000D01*
X124842857Y-61252380D01*
X124080952Y-62157142D02*
X124033333Y-62204761D01*
X124080952Y-62252380D01*
X124128571Y-62204761D01*
X124080952Y-62157142D01*
X124080952Y-62252380D01*
X123080952Y-62252380D02*
X123652380Y-62252380D01*
X123366666Y-62252380D02*
X123366666Y-61252380D01*
X123461904Y-61395238D01*
X123557142Y-61490476D01*
X123652380Y-61538095D01*
X122223809Y-61585714D02*
X122223809Y-62252380D01*
X122652380Y-61585714D02*
X122652380Y-62109523D01*
X122604761Y-62204761D01*
X122509523Y-62252380D01*
X122366666Y-62252380D01*
X122271428Y-62204761D01*
X122223809Y-62157142D01*
X121414285Y-61728571D02*
X121747619Y-61728571D01*
X121747619Y-62252380D02*
X121747619Y-61252380D01*
X121271428Y-61252380D01*
X156166666Y-60557142D02*
X156214285Y-60604761D01*
X156357142Y-60652380D01*
X156452380Y-60652380D01*
X156595238Y-60604761D01*
X156690476Y-60509523D01*
X156738095Y-60414285D01*
X156785714Y-60223809D01*
X156785714Y-60080952D01*
X156738095Y-59890476D01*
X156690476Y-59795238D01*
X156595238Y-59700000D01*
X156452380Y-59652380D01*
X156357142Y-59652380D01*
X156214285Y-59700000D01*
X156166666Y-59747619D01*
X155833333Y-59652380D02*
X155166666Y-59652380D01*
X155595238Y-60652380D01*
X157342857Y-61552380D02*
X157247619Y-61552380D01*
X157152380Y-61600000D01*
X157104761Y-61647619D01*
X157057142Y-61742857D01*
X157009523Y-61933333D01*
X157009523Y-62171428D01*
X157057142Y-62361904D01*
X157104761Y-62457142D01*
X157152380Y-62504761D01*
X157247619Y-62552380D01*
X157342857Y-62552380D01*
X157438095Y-62504761D01*
X157485714Y-62457142D01*
X157533333Y-62361904D01*
X157580952Y-62171428D01*
X157580952Y-61933333D01*
X157533333Y-61742857D01*
X157485714Y-61647619D01*
X157438095Y-61600000D01*
X157342857Y-61552380D01*
X156580952Y-62457142D02*
X156533333Y-62504761D01*
X156580952Y-62552380D01*
X156628571Y-62504761D01*
X156580952Y-62457142D01*
X156580952Y-62552380D01*
X155580952Y-62552380D02*
X156152380Y-62552380D01*
X155866666Y-62552380D02*
X155866666Y-61552380D01*
X155961904Y-61695238D01*
X156057142Y-61790476D01*
X156152380Y-61838095D01*
X154723809Y-61885714D02*
X154723809Y-62552380D01*
X155152380Y-61885714D02*
X155152380Y-62409523D01*
X155104761Y-62504761D01*
X155009523Y-62552380D01*
X154866666Y-62552380D01*
X154771428Y-62504761D01*
X154723809Y-62457142D01*
X153914285Y-62028571D02*
X154247619Y-62028571D01*
X154247619Y-62552380D02*
X154247619Y-61552380D01*
X153771428Y-61552380D01*
X163766666Y-74957142D02*
X163814285Y-75004761D01*
X163957142Y-75052380D01*
X164052380Y-75052380D01*
X164195238Y-75004761D01*
X164290476Y-74909523D01*
X164338095Y-74814285D01*
X164385714Y-74623809D01*
X164385714Y-74480952D01*
X164338095Y-74290476D01*
X164290476Y-74195238D01*
X164195238Y-74100000D01*
X164052380Y-74052380D01*
X163957142Y-74052380D01*
X163814285Y-74100000D01*
X163766666Y-74147619D01*
X163195238Y-74480952D02*
X163290476Y-74433333D01*
X163338095Y-74385714D01*
X163385714Y-74290476D01*
X163385714Y-74242857D01*
X163338095Y-74147619D01*
X163290476Y-74100000D01*
X163195238Y-74052380D01*
X163004761Y-74052380D01*
X162909523Y-74100000D01*
X162861904Y-74147619D01*
X162814285Y-74242857D01*
X162814285Y-74290476D01*
X162861904Y-74385714D01*
X162909523Y-74433333D01*
X163004761Y-74480952D01*
X163195238Y-74480952D01*
X163290476Y-74528571D01*
X163338095Y-74576190D01*
X163385714Y-74671428D01*
X163385714Y-74861904D01*
X163338095Y-74957142D01*
X163290476Y-75004761D01*
X163195238Y-75052380D01*
X163004761Y-75052380D01*
X162909523Y-75004761D01*
X162861904Y-74957142D01*
X162814285Y-74861904D01*
X162814285Y-74671428D01*
X162861904Y-74576190D01*
X162909523Y-74528571D01*
X163004761Y-74480952D01*
X164685714Y-69795238D02*
X165352380Y-69795238D01*
X164304761Y-69557142D02*
X165019047Y-69319047D01*
X165019047Y-69938095D01*
X165257142Y-70319047D02*
X165304761Y-70366666D01*
X165352380Y-70319047D01*
X165304761Y-70271428D01*
X165257142Y-70319047D01*
X165352380Y-70319047D01*
X164352380Y-70700000D02*
X164352380Y-71366666D01*
X165352380Y-70938095D01*
X164685714Y-72176190D02*
X165352380Y-72176190D01*
X164685714Y-71747619D02*
X165209523Y-71747619D01*
X165304761Y-71795238D01*
X165352380Y-71890476D01*
X165352380Y-72033333D01*
X165304761Y-72128571D01*
X165257142Y-72176190D01*
X164828571Y-72985714D02*
X164828571Y-72652380D01*
X165352380Y-72652380D02*
X164352380Y-72652380D01*
X164352380Y-73128571D01*
X115761904Y-47102380D02*
X115761904Y-46102380D01*
X115761904Y-46578571D02*
X115190476Y-46578571D01*
X115190476Y-47102380D02*
X115190476Y-46102380D01*
X114190476Y-47102380D02*
X114761904Y-47102380D01*
X114476190Y-47102380D02*
X114476190Y-46102380D01*
X114571428Y-46245238D01*
X114666666Y-46340476D01*
X114761904Y-46388095D01*
X193761904Y-47102380D02*
X193761904Y-46102380D01*
X193761904Y-46578571D02*
X193190476Y-46578571D01*
X193190476Y-47102380D02*
X193190476Y-46102380D01*
X192761904Y-46197619D02*
X192714285Y-46150000D01*
X192619047Y-46102380D01*
X192380952Y-46102380D01*
X192285714Y-46150000D01*
X192238095Y-46197619D01*
X192190476Y-46292857D01*
X192190476Y-46388095D01*
X192238095Y-46530952D01*
X192809523Y-47102380D01*
X192190476Y-47102380D01*
X115761904Y-135402380D02*
X115761904Y-134402380D01*
X115761904Y-134878571D02*
X115190476Y-134878571D01*
X115190476Y-135402380D02*
X115190476Y-134402380D01*
X114809523Y-134402380D02*
X114190476Y-134402380D01*
X114523809Y-134783333D01*
X114380952Y-134783333D01*
X114285714Y-134830952D01*
X114238095Y-134878571D01*
X114190476Y-134973809D01*
X114190476Y-135211904D01*
X114238095Y-135307142D01*
X114285714Y-135354761D01*
X114380952Y-135402380D01*
X114666666Y-135402380D01*
X114761904Y-135354761D01*
X114809523Y-135307142D01*
X193761904Y-135402380D02*
X193761904Y-134402380D01*
X193761904Y-134878571D02*
X193190476Y-134878571D01*
X193190476Y-135402380D02*
X193190476Y-134402380D01*
X192285714Y-134735714D02*
X192285714Y-135402380D01*
X192523809Y-134354761D02*
X192761904Y-135069047D01*
X192142857Y-135069047D01*
D13*
X135106666Y-66662380D02*
X135440000Y-66186190D01*
X135678095Y-66662380D02*
X135678095Y-65662380D01*
X135297142Y-65662380D01*
X135201904Y-65710000D01*
X135154285Y-65757619D01*
X135106666Y-65852857D01*
X135106666Y-65995714D01*
X135154285Y-66090952D01*
X135201904Y-66138571D01*
X135297142Y-66186190D01*
X135678095Y-66186190D01*
X134154285Y-65710000D02*
X134249523Y-65662380D01*
X134392380Y-65662380D01*
X134535238Y-65710000D01*
X134630476Y-65805238D01*
X134678095Y-65900476D01*
X134725714Y-66090952D01*
X134725714Y-66233809D01*
X134678095Y-66424285D01*
X134630476Y-66519523D01*
X134535238Y-66614761D01*
X134392380Y-66662380D01*
X134297142Y-66662380D01*
X134154285Y-66614761D01*
X134106666Y-66567142D01*
X134106666Y-66233809D01*
X134297142Y-66233809D01*
X133344761Y-66138571D02*
X133201904Y-66186190D01*
X133154285Y-66233809D01*
X133106666Y-66329047D01*
X133106666Y-66471904D01*
X133154285Y-66567142D01*
X133201904Y-66614761D01*
X133297142Y-66662380D01*
X133678095Y-66662380D01*
X133678095Y-65662380D01*
X133344761Y-65662380D01*
X133249523Y-65710000D01*
X133201904Y-65757619D01*
X133154285Y-65852857D01*
X133154285Y-65948095D01*
X133201904Y-66043333D01*
X133249523Y-66090952D01*
X133344761Y-66138571D01*
X133678095Y-66138571D01*
X132154285Y-66662380D02*
X132725714Y-66662380D01*
X132440000Y-66662380D02*
X132440000Y-65662380D01*
X132535238Y-65805238D01*
X132630476Y-65900476D01*
X132725714Y-65948095D01*
X174166666Y-66752380D02*
X174500000Y-66276190D01*
X174738095Y-66752380D02*
X174738095Y-65752380D01*
X174357142Y-65752380D01*
X174261904Y-65800000D01*
X174214285Y-65847619D01*
X174166666Y-65942857D01*
X174166666Y-66085714D01*
X174214285Y-66180952D01*
X174261904Y-66228571D01*
X174357142Y-66276190D01*
X174738095Y-66276190D01*
X173214285Y-65800000D02*
X173309523Y-65752380D01*
X173452380Y-65752380D01*
X173595238Y-65800000D01*
X173690476Y-65895238D01*
X173738095Y-65990476D01*
X173785714Y-66180952D01*
X173785714Y-66323809D01*
X173738095Y-66514285D01*
X173690476Y-66609523D01*
X173595238Y-66704761D01*
X173452380Y-66752380D01*
X173357142Y-66752380D01*
X173214285Y-66704761D01*
X173166666Y-66657142D01*
X173166666Y-66323809D01*
X173357142Y-66323809D01*
X172404761Y-66228571D02*
X172261904Y-66276190D01*
X172214285Y-66323809D01*
X172166666Y-66419047D01*
X172166666Y-66561904D01*
X172214285Y-66657142D01*
X172261904Y-66704761D01*
X172357142Y-66752380D01*
X172738095Y-66752380D01*
X172738095Y-65752380D01*
X172404761Y-65752380D01*
X172309523Y-65800000D01*
X172261904Y-65847619D01*
X172214285Y-65942857D01*
X172214285Y-66038095D01*
X172261904Y-66133333D01*
X172309523Y-66180952D01*
X172404761Y-66228571D01*
X172738095Y-66228571D01*
X171785714Y-65847619D02*
X171738095Y-65800000D01*
X171642857Y-65752380D01*
X171404761Y-65752380D01*
X171309523Y-65800000D01*
X171261904Y-65847619D01*
X171214285Y-65942857D01*
X171214285Y-66038095D01*
X171261904Y-66180952D01*
X171833333Y-66752380D01*
X171214285Y-66752380D01*
X174106666Y-122662380D02*
X174440000Y-122186190D01*
X174678095Y-122662380D02*
X174678095Y-121662380D01*
X174297142Y-121662380D01*
X174201904Y-121710000D01*
X174154285Y-121757619D01*
X174106666Y-121852857D01*
X174106666Y-121995714D01*
X174154285Y-122090952D01*
X174201904Y-122138571D01*
X174297142Y-122186190D01*
X174678095Y-122186190D01*
X173154285Y-121710000D02*
X173249523Y-121662380D01*
X173392380Y-121662380D01*
X173535238Y-121710000D01*
X173630476Y-121805238D01*
X173678095Y-121900476D01*
X173725714Y-122090952D01*
X173725714Y-122233809D01*
X173678095Y-122424285D01*
X173630476Y-122519523D01*
X173535238Y-122614761D01*
X173392380Y-122662380D01*
X173297142Y-122662380D01*
X173154285Y-122614761D01*
X173106666Y-122567142D01*
X173106666Y-122233809D01*
X173297142Y-122233809D01*
X172344761Y-122138571D02*
X172201904Y-122186190D01*
X172154285Y-122233809D01*
X172106666Y-122329047D01*
X172106666Y-122471904D01*
X172154285Y-122567142D01*
X172201904Y-122614761D01*
X172297142Y-122662380D01*
X172678095Y-122662380D01*
X172678095Y-121662380D01*
X172344761Y-121662380D01*
X172249523Y-121710000D01*
X172201904Y-121757619D01*
X172154285Y-121852857D01*
X172154285Y-121948095D01*
X172201904Y-122043333D01*
X172249523Y-122090952D01*
X172344761Y-122138571D01*
X172678095Y-122138571D01*
X171773333Y-121662380D02*
X171154285Y-121662380D01*
X171487619Y-122043333D01*
X171344761Y-122043333D01*
X171249523Y-122090952D01*
X171201904Y-122138571D01*
X171154285Y-122233809D01*
X171154285Y-122471904D01*
X171201904Y-122567142D01*
X171249523Y-122614761D01*
X171344761Y-122662380D01*
X171630476Y-122662380D01*
X171725714Y-122614761D01*
X171773333Y-122567142D01*
X136106666Y-122662380D02*
X136440000Y-122186190D01*
X136678095Y-122662380D02*
X136678095Y-121662380D01*
X136297142Y-121662380D01*
X136201904Y-121710000D01*
X136154285Y-121757619D01*
X136106666Y-121852857D01*
X136106666Y-121995714D01*
X136154285Y-122090952D01*
X136201904Y-122138571D01*
X136297142Y-122186190D01*
X136678095Y-122186190D01*
X135154285Y-121710000D02*
X135249523Y-121662380D01*
X135392380Y-121662380D01*
X135535238Y-121710000D01*
X135630476Y-121805238D01*
X135678095Y-121900476D01*
X135725714Y-122090952D01*
X135725714Y-122233809D01*
X135678095Y-122424285D01*
X135630476Y-122519523D01*
X135535238Y-122614761D01*
X135392380Y-122662380D01*
X135297142Y-122662380D01*
X135154285Y-122614761D01*
X135106666Y-122567142D01*
X135106666Y-122233809D01*
X135297142Y-122233809D01*
X134344761Y-122138571D02*
X134201904Y-122186190D01*
X134154285Y-122233809D01*
X134106666Y-122329047D01*
X134106666Y-122471904D01*
X134154285Y-122567142D01*
X134201904Y-122614761D01*
X134297142Y-122662380D01*
X134678095Y-122662380D01*
X134678095Y-121662380D01*
X134344761Y-121662380D01*
X134249523Y-121710000D01*
X134201904Y-121757619D01*
X134154285Y-121852857D01*
X134154285Y-121948095D01*
X134201904Y-122043333D01*
X134249523Y-122090952D01*
X134344761Y-122138571D01*
X134678095Y-122138571D01*
X133249523Y-121995714D02*
X133249523Y-122662380D01*
X133487619Y-121614761D02*
X133725714Y-122329047D01*
X133106666Y-122329047D01*
M02*
