G04 #@! TF.GenerationSoftware,KiCad,Pcbnew,(5.1.4)-1*
G04 #@! TF.CreationDate,2019-10-28T18:01:08-07:00*
G04 #@! TF.ProjectId,louwii-pad,6c6f7577-6969-42d7-9061-642e6b696361,rev?*
G04 #@! TF.SameCoordinates,Original*
G04 #@! TF.FileFunction,Paste,Top*
G04 #@! TF.FilePolarity,Positive*
%FSLAX46Y46*%
G04 Gerber Fmt 4.6, Leading zero omitted, Abs format (unit mm)*
G04 Created by KiCad (PCBNEW (5.1.4)-1) date 2019-10-28 18:01:08*
%MOMM*%
%LPD*%
G04 APERTURE LIST*
%ADD10R,1.500000X0.550000*%
%ADD11R,0.550000X1.500000*%
%ADD12R,0.500000X2.000000*%
%ADD13R,2.000000X1.700000*%
%ADD14R,1.700000X1.000000*%
G04 APERTURE END LIST*
D10*
X144600000Y-70000000D03*
X144600000Y-69200000D03*
X144600000Y-68400000D03*
X144600000Y-67600000D03*
X144600000Y-66800000D03*
X144600000Y-66000000D03*
X144600000Y-65200000D03*
X144600000Y-64400000D03*
X144600000Y-63600000D03*
X144600000Y-62800000D03*
X144600000Y-62000000D03*
D11*
X142900000Y-60300000D03*
X142100000Y-60300000D03*
X141300000Y-60300000D03*
X140500000Y-60300000D03*
X139700000Y-60300000D03*
X138900000Y-60300000D03*
X138100000Y-60300000D03*
X137300000Y-60300000D03*
X136500000Y-60300000D03*
X135700000Y-60300000D03*
X134900000Y-60300000D03*
D10*
X133200000Y-62000000D03*
X133200000Y-62800000D03*
X133200000Y-63600000D03*
X133200000Y-64400000D03*
X133200000Y-65200000D03*
X133200000Y-66000000D03*
X133200000Y-66800000D03*
X133200000Y-67600000D03*
X133200000Y-68400000D03*
X133200000Y-69200000D03*
X133200000Y-70000000D03*
D11*
X134900000Y-71700000D03*
X135700000Y-71700000D03*
X136500000Y-71700000D03*
X137300000Y-71700000D03*
X138100000Y-71700000D03*
X138900000Y-71700000D03*
X139700000Y-71700000D03*
X140500000Y-71700000D03*
X141300000Y-71700000D03*
X142100000Y-71700000D03*
X142900000Y-71700000D03*
D12*
X169500000Y-45500000D03*
X168700000Y-45500000D03*
X167900000Y-45500000D03*
X167100000Y-45500000D03*
X166300000Y-45500000D03*
D13*
X172350000Y-45400000D03*
X172350000Y-39950000D03*
X163450000Y-45400000D03*
X163450000Y-39950000D03*
D14*
X170350000Y-64000000D03*
X176650000Y-64000000D03*
X170350000Y-67800000D03*
X176650000Y-67800000D03*
M02*
