G04 #@! TF.GenerationSoftware,KiCad,Pcbnew,(5.1.4)-1*
G04 #@! TF.CreationDate,2019-10-28T18:01:08-07:00*
G04 #@! TF.ProjectId,louwii-pad,6c6f7577-6969-42d7-9061-642e6b696361,rev?*
G04 #@! TF.SameCoordinates,Original*
G04 #@! TF.FileFunction,Soldermask,Bot*
G04 #@! TF.FilePolarity,Negative*
%FSLAX46Y46*%
G04 Gerber Fmt 4.6, Leading zero omitted, Abs format (unit mm)*
G04 Created by KiCad (PCBNEW (5.1.4)-1) date 2019-10-28 18:01:08*
%MOMM*%
%LPD*%
G04 APERTURE LIST*
%ADD10C,0.100000*%
G04 APERTURE END LIST*
D10*
G36*
X193846189Y-136010483D02*
G01*
X193846192Y-136010484D01*
X193846191Y-136010484D01*
X194374139Y-136229167D01*
X194849280Y-136546646D01*
X195253354Y-136950720D01*
X195570833Y-137425861D01*
X195570834Y-137425863D01*
X195789517Y-137953811D01*
X195901000Y-138514275D01*
X195901000Y-139085725D01*
X195789517Y-139646189D01*
X195789516Y-139646191D01*
X195570833Y-140174139D01*
X195253354Y-140649280D01*
X194849280Y-141053354D01*
X194374139Y-141370833D01*
X194374138Y-141370834D01*
X194374137Y-141370834D01*
X193846189Y-141589517D01*
X193285725Y-141701000D01*
X192714275Y-141701000D01*
X192153811Y-141589517D01*
X191625863Y-141370834D01*
X191625862Y-141370834D01*
X191625861Y-141370833D01*
X191150720Y-141053354D01*
X190746646Y-140649280D01*
X190429167Y-140174139D01*
X190210484Y-139646191D01*
X190210483Y-139646189D01*
X190099000Y-139085725D01*
X190099000Y-138514275D01*
X190210483Y-137953811D01*
X190429166Y-137425863D01*
X190429167Y-137425861D01*
X190746646Y-136950720D01*
X191150720Y-136546646D01*
X191625861Y-136229167D01*
X192153809Y-136010484D01*
X192153808Y-136010484D01*
X192153811Y-136010483D01*
X192714275Y-135899000D01*
X193285725Y-135899000D01*
X193846189Y-136010483D01*
X193846189Y-136010483D01*
G37*
G36*
X115846189Y-136010483D02*
G01*
X115846192Y-136010484D01*
X115846191Y-136010484D01*
X116374139Y-136229167D01*
X116849280Y-136546646D01*
X117253354Y-136950720D01*
X117570833Y-137425861D01*
X117570834Y-137425863D01*
X117789517Y-137953811D01*
X117901000Y-138514275D01*
X117901000Y-139085725D01*
X117789517Y-139646189D01*
X117789516Y-139646191D01*
X117570833Y-140174139D01*
X117253354Y-140649280D01*
X116849280Y-141053354D01*
X116374139Y-141370833D01*
X116374138Y-141370834D01*
X116374137Y-141370834D01*
X115846189Y-141589517D01*
X115285725Y-141701000D01*
X114714275Y-141701000D01*
X114153811Y-141589517D01*
X113625863Y-141370834D01*
X113625862Y-141370834D01*
X113625861Y-141370833D01*
X113150720Y-141053354D01*
X112746646Y-140649280D01*
X112429167Y-140174139D01*
X112210484Y-139646191D01*
X112210483Y-139646189D01*
X112099000Y-139085725D01*
X112099000Y-138514275D01*
X112210483Y-137953811D01*
X112429166Y-137425863D01*
X112429167Y-137425861D01*
X112746646Y-136950720D01*
X113150720Y-136546646D01*
X113625861Y-136229167D01*
X114153809Y-136010484D01*
X114153808Y-136010484D01*
X114153811Y-136010483D01*
X114714275Y-135899000D01*
X115285725Y-135899000D01*
X115846189Y-136010483D01*
X115846189Y-136010483D01*
G37*
G36*
X179038276Y-125111884D02*
G01*
X179255569Y-125201890D01*
X179255571Y-125201891D01*
X179451130Y-125332560D01*
X179617440Y-125498870D01*
X179748110Y-125694431D01*
X179838116Y-125911724D01*
X179884000Y-126142400D01*
X179884000Y-126377600D01*
X179838116Y-126608276D01*
X179748110Y-126825569D01*
X179748109Y-126825571D01*
X179617440Y-127021130D01*
X179451130Y-127187440D01*
X179255571Y-127318109D01*
X179255570Y-127318110D01*
X179255569Y-127318110D01*
X179038276Y-127408116D01*
X178807600Y-127454000D01*
X178572400Y-127454000D01*
X178341724Y-127408116D01*
X178124431Y-127318110D01*
X178124430Y-127318110D01*
X178124429Y-127318109D01*
X177928870Y-127187440D01*
X177762560Y-127021130D01*
X177631891Y-126825571D01*
X177631890Y-126825569D01*
X177541884Y-126608276D01*
X177496000Y-126377600D01*
X177496000Y-126142400D01*
X177541884Y-125911724D01*
X177631890Y-125694431D01*
X177762560Y-125498870D01*
X177928870Y-125332560D01*
X178124429Y-125201891D01*
X178124431Y-125201890D01*
X178341724Y-125111884D01*
X178572400Y-125066000D01*
X178807600Y-125066000D01*
X179038276Y-125111884D01*
X179038276Y-125111884D01*
G37*
G36*
X160038276Y-125111884D02*
G01*
X160255569Y-125201890D01*
X160255571Y-125201891D01*
X160451130Y-125332560D01*
X160617440Y-125498870D01*
X160748110Y-125694431D01*
X160838116Y-125911724D01*
X160884000Y-126142400D01*
X160884000Y-126377600D01*
X160838116Y-126608276D01*
X160748110Y-126825569D01*
X160748109Y-126825571D01*
X160617440Y-127021130D01*
X160451130Y-127187440D01*
X160255571Y-127318109D01*
X160255570Y-127318110D01*
X160255569Y-127318110D01*
X160038276Y-127408116D01*
X159807600Y-127454000D01*
X159572400Y-127454000D01*
X159341724Y-127408116D01*
X159124431Y-127318110D01*
X159124430Y-127318110D01*
X159124429Y-127318109D01*
X158928870Y-127187440D01*
X158762560Y-127021130D01*
X158631891Y-126825571D01*
X158631890Y-126825569D01*
X158541884Y-126608276D01*
X158496000Y-126377600D01*
X158496000Y-126142400D01*
X158541884Y-125911724D01*
X158631890Y-125694431D01*
X158762560Y-125498870D01*
X158928870Y-125332560D01*
X159124429Y-125201891D01*
X159124431Y-125201890D01*
X159341724Y-125111884D01*
X159572400Y-125066000D01*
X159807600Y-125066000D01*
X160038276Y-125111884D01*
X160038276Y-125111884D01*
G37*
G36*
X141038276Y-125111884D02*
G01*
X141255569Y-125201890D01*
X141255571Y-125201891D01*
X141451130Y-125332560D01*
X141617440Y-125498870D01*
X141748110Y-125694431D01*
X141838116Y-125911724D01*
X141884000Y-126142400D01*
X141884000Y-126377600D01*
X141838116Y-126608276D01*
X141748110Y-126825569D01*
X141748109Y-126825571D01*
X141617440Y-127021130D01*
X141451130Y-127187440D01*
X141255571Y-127318109D01*
X141255570Y-127318110D01*
X141255569Y-127318110D01*
X141038276Y-127408116D01*
X140807600Y-127454000D01*
X140572400Y-127454000D01*
X140341724Y-127408116D01*
X140124431Y-127318110D01*
X140124430Y-127318110D01*
X140124429Y-127318109D01*
X139928870Y-127187440D01*
X139762560Y-127021130D01*
X139631891Y-126825571D01*
X139631890Y-126825569D01*
X139541884Y-126608276D01*
X139496000Y-126377600D01*
X139496000Y-126142400D01*
X139541884Y-125911724D01*
X139631890Y-125694431D01*
X139762560Y-125498870D01*
X139928870Y-125332560D01*
X140124429Y-125201891D01*
X140124431Y-125201890D01*
X140341724Y-125111884D01*
X140572400Y-125066000D01*
X140807600Y-125066000D01*
X141038276Y-125111884D01*
X141038276Y-125111884D01*
G37*
G36*
X122038276Y-125111884D02*
G01*
X122255569Y-125201890D01*
X122255571Y-125201891D01*
X122451130Y-125332560D01*
X122617440Y-125498870D01*
X122748110Y-125694431D01*
X122838116Y-125911724D01*
X122884000Y-126142400D01*
X122884000Y-126377600D01*
X122838116Y-126608276D01*
X122748110Y-126825569D01*
X122748109Y-126825571D01*
X122617440Y-127021130D01*
X122451130Y-127187440D01*
X122255571Y-127318109D01*
X122255570Y-127318110D01*
X122255569Y-127318110D01*
X122038276Y-127408116D01*
X121807600Y-127454000D01*
X121572400Y-127454000D01*
X121341724Y-127408116D01*
X121124431Y-127318110D01*
X121124430Y-127318110D01*
X121124429Y-127318109D01*
X120928870Y-127187440D01*
X120762560Y-127021130D01*
X120631891Y-126825571D01*
X120631890Y-126825569D01*
X120541884Y-126608276D01*
X120496000Y-126377600D01*
X120496000Y-126142400D01*
X120541884Y-125911724D01*
X120631890Y-125694431D01*
X120762560Y-125498870D01*
X120928870Y-125332560D01*
X121124429Y-125201891D01*
X121124431Y-125201890D01*
X121341724Y-125111884D01*
X121572400Y-125066000D01*
X121807600Y-125066000D01*
X122038276Y-125111884D01*
X122038276Y-125111884D01*
G37*
G36*
X128388276Y-122571884D02*
G01*
X128605569Y-122661890D01*
X128605571Y-122661891D01*
X128801130Y-122792560D01*
X128967440Y-122958870D01*
X129098110Y-123154431D01*
X129188116Y-123371724D01*
X129234000Y-123602400D01*
X129234000Y-123837600D01*
X129188116Y-124068276D01*
X129098110Y-124285569D01*
X129098109Y-124285571D01*
X128967440Y-124481130D01*
X128801130Y-124647440D01*
X128605571Y-124778109D01*
X128605570Y-124778110D01*
X128605569Y-124778110D01*
X128388276Y-124868116D01*
X128157600Y-124914000D01*
X127922400Y-124914000D01*
X127691724Y-124868116D01*
X127474431Y-124778110D01*
X127474430Y-124778110D01*
X127474429Y-124778109D01*
X127278870Y-124647440D01*
X127112560Y-124481130D01*
X126981891Y-124285571D01*
X126981890Y-124285569D01*
X126891884Y-124068276D01*
X126846000Y-123837600D01*
X126846000Y-123602400D01*
X126891884Y-123371724D01*
X126981890Y-123154431D01*
X127112560Y-122958870D01*
X127278870Y-122792560D01*
X127474429Y-122661891D01*
X127474431Y-122661890D01*
X127691724Y-122571884D01*
X127922400Y-122526000D01*
X128157600Y-122526000D01*
X128388276Y-122571884D01*
X128388276Y-122571884D01*
G37*
G36*
X147388276Y-122571884D02*
G01*
X147605569Y-122661890D01*
X147605571Y-122661891D01*
X147801130Y-122792560D01*
X147967440Y-122958870D01*
X148098110Y-123154431D01*
X148188116Y-123371724D01*
X148234000Y-123602400D01*
X148234000Y-123837600D01*
X148188116Y-124068276D01*
X148098110Y-124285569D01*
X148098109Y-124285571D01*
X147967440Y-124481130D01*
X147801130Y-124647440D01*
X147605571Y-124778109D01*
X147605570Y-124778110D01*
X147605569Y-124778110D01*
X147388276Y-124868116D01*
X147157600Y-124914000D01*
X146922400Y-124914000D01*
X146691724Y-124868116D01*
X146474431Y-124778110D01*
X146474430Y-124778110D01*
X146474429Y-124778109D01*
X146278870Y-124647440D01*
X146112560Y-124481130D01*
X145981891Y-124285571D01*
X145981890Y-124285569D01*
X145891884Y-124068276D01*
X145846000Y-123837600D01*
X145846000Y-123602400D01*
X145891884Y-123371724D01*
X145981890Y-123154431D01*
X146112560Y-122958870D01*
X146278870Y-122792560D01*
X146474429Y-122661891D01*
X146474431Y-122661890D01*
X146691724Y-122571884D01*
X146922400Y-122526000D01*
X147157600Y-122526000D01*
X147388276Y-122571884D01*
X147388276Y-122571884D01*
G37*
G36*
X166388276Y-122571884D02*
G01*
X166605569Y-122661890D01*
X166605571Y-122661891D01*
X166801130Y-122792560D01*
X166967440Y-122958870D01*
X167098110Y-123154431D01*
X167188116Y-123371724D01*
X167234000Y-123602400D01*
X167234000Y-123837600D01*
X167188116Y-124068276D01*
X167098110Y-124285569D01*
X167098109Y-124285571D01*
X166967440Y-124481130D01*
X166801130Y-124647440D01*
X166605571Y-124778109D01*
X166605570Y-124778110D01*
X166605569Y-124778110D01*
X166388276Y-124868116D01*
X166157600Y-124914000D01*
X165922400Y-124914000D01*
X165691724Y-124868116D01*
X165474431Y-124778110D01*
X165474430Y-124778110D01*
X165474429Y-124778109D01*
X165278870Y-124647440D01*
X165112560Y-124481130D01*
X164981891Y-124285571D01*
X164981890Y-124285569D01*
X164891884Y-124068276D01*
X164846000Y-123837600D01*
X164846000Y-123602400D01*
X164891884Y-123371724D01*
X164981890Y-123154431D01*
X165112560Y-122958870D01*
X165278870Y-122792560D01*
X165474429Y-122661891D01*
X165474431Y-122661890D01*
X165691724Y-122571884D01*
X165922400Y-122526000D01*
X166157600Y-122526000D01*
X166388276Y-122571884D01*
X166388276Y-122571884D01*
G37*
G36*
X185388276Y-122571884D02*
G01*
X185605569Y-122661890D01*
X185605571Y-122661891D01*
X185801130Y-122792560D01*
X185967440Y-122958870D01*
X186098110Y-123154431D01*
X186188116Y-123371724D01*
X186234000Y-123602400D01*
X186234000Y-123837600D01*
X186188116Y-124068276D01*
X186098110Y-124285569D01*
X186098109Y-124285571D01*
X185967440Y-124481130D01*
X185801130Y-124647440D01*
X185605571Y-124778109D01*
X185605570Y-124778110D01*
X185605569Y-124778110D01*
X185388276Y-124868116D01*
X185157600Y-124914000D01*
X184922400Y-124914000D01*
X184691724Y-124868116D01*
X184474431Y-124778110D01*
X184474430Y-124778110D01*
X184474429Y-124778109D01*
X184278870Y-124647440D01*
X184112560Y-124481130D01*
X183981891Y-124285571D01*
X183981890Y-124285569D01*
X183891884Y-124068276D01*
X183846000Y-123837600D01*
X183846000Y-123602400D01*
X183891884Y-123371724D01*
X183981890Y-123154431D01*
X184112560Y-122958870D01*
X184278870Y-122792560D01*
X184474429Y-122661891D01*
X184474431Y-122661890D01*
X184691724Y-122571884D01*
X184922400Y-122526000D01*
X185157600Y-122526000D01*
X185388276Y-122571884D01*
X185388276Y-122571884D01*
G37*
G36*
X176300930Y-120900780D02*
G01*
X174697790Y-120900780D01*
X174697790Y-119899620D01*
X176300930Y-119899620D01*
X176300930Y-120900780D01*
X176300930Y-120900780D01*
G37*
G36*
X171302210Y-120900780D02*
G01*
X169699070Y-120900780D01*
X169699070Y-119899620D01*
X171302210Y-119899620D01*
X171302210Y-120900780D01*
X171302210Y-120900780D01*
G37*
G36*
X133302210Y-120900780D02*
G01*
X131699070Y-120900780D01*
X131699070Y-119899620D01*
X133302210Y-119899620D01*
X133302210Y-120900780D01*
X133302210Y-120900780D01*
G37*
G36*
X138300930Y-120900780D02*
G01*
X136697790Y-120900780D01*
X136697790Y-119899620D01*
X138300930Y-119899620D01*
X138300930Y-120900780D01*
X138300930Y-120900780D01*
G37*
G36*
X138300930Y-117700380D02*
G01*
X136697790Y-117700380D01*
X136697790Y-116699220D01*
X138300930Y-116699220D01*
X138300930Y-117700380D01*
X138300930Y-117700380D01*
G37*
G36*
X176300930Y-117700380D02*
G01*
X174697790Y-117700380D01*
X174697790Y-116699220D01*
X176300930Y-116699220D01*
X176300930Y-117700380D01*
X176300930Y-117700380D01*
G37*
G36*
X171302210Y-117700380D02*
G01*
X169699070Y-117700380D01*
X169699070Y-116699220D01*
X171302210Y-116699220D01*
X171302210Y-117700380D01*
X171302210Y-117700380D01*
G37*
G36*
X133302210Y-117700380D02*
G01*
X131699070Y-117700380D01*
X131699070Y-116699220D01*
X133302210Y-116699220D01*
X133302210Y-117700380D01*
X133302210Y-117700380D01*
G37*
G36*
X122038276Y-106111884D02*
G01*
X122255569Y-106201890D01*
X122255571Y-106201891D01*
X122451130Y-106332560D01*
X122617440Y-106498870D01*
X122748110Y-106694431D01*
X122838116Y-106911724D01*
X122884000Y-107142400D01*
X122884000Y-107377600D01*
X122838116Y-107608276D01*
X122748110Y-107825569D01*
X122748109Y-107825571D01*
X122617440Y-108021130D01*
X122451130Y-108187440D01*
X122255571Y-108318109D01*
X122255570Y-108318110D01*
X122255569Y-108318110D01*
X122038276Y-108408116D01*
X121807600Y-108454000D01*
X121572400Y-108454000D01*
X121341724Y-108408116D01*
X121124431Y-108318110D01*
X121124430Y-108318110D01*
X121124429Y-108318109D01*
X120928870Y-108187440D01*
X120762560Y-108021130D01*
X120631891Y-107825571D01*
X120631890Y-107825569D01*
X120541884Y-107608276D01*
X120496000Y-107377600D01*
X120496000Y-107142400D01*
X120541884Y-106911724D01*
X120631890Y-106694431D01*
X120762560Y-106498870D01*
X120928870Y-106332560D01*
X121124429Y-106201891D01*
X121124431Y-106201890D01*
X121341724Y-106111884D01*
X121572400Y-106066000D01*
X121807600Y-106066000D01*
X122038276Y-106111884D01*
X122038276Y-106111884D01*
G37*
G36*
X141038276Y-106111884D02*
G01*
X141255569Y-106201890D01*
X141255571Y-106201891D01*
X141451130Y-106332560D01*
X141617440Y-106498870D01*
X141748110Y-106694431D01*
X141838116Y-106911724D01*
X141884000Y-107142400D01*
X141884000Y-107377600D01*
X141838116Y-107608276D01*
X141748110Y-107825569D01*
X141748109Y-107825571D01*
X141617440Y-108021130D01*
X141451130Y-108187440D01*
X141255571Y-108318109D01*
X141255570Y-108318110D01*
X141255569Y-108318110D01*
X141038276Y-108408116D01*
X140807600Y-108454000D01*
X140572400Y-108454000D01*
X140341724Y-108408116D01*
X140124431Y-108318110D01*
X140124430Y-108318110D01*
X140124429Y-108318109D01*
X139928870Y-108187440D01*
X139762560Y-108021130D01*
X139631891Y-107825571D01*
X139631890Y-107825569D01*
X139541884Y-107608276D01*
X139496000Y-107377600D01*
X139496000Y-107142400D01*
X139541884Y-106911724D01*
X139631890Y-106694431D01*
X139762560Y-106498870D01*
X139928870Y-106332560D01*
X140124429Y-106201891D01*
X140124431Y-106201890D01*
X140341724Y-106111884D01*
X140572400Y-106066000D01*
X140807600Y-106066000D01*
X141038276Y-106111884D01*
X141038276Y-106111884D01*
G37*
G36*
X160038276Y-106111884D02*
G01*
X160255569Y-106201890D01*
X160255571Y-106201891D01*
X160451130Y-106332560D01*
X160617440Y-106498870D01*
X160748110Y-106694431D01*
X160838116Y-106911724D01*
X160884000Y-107142400D01*
X160884000Y-107377600D01*
X160838116Y-107608276D01*
X160748110Y-107825569D01*
X160748109Y-107825571D01*
X160617440Y-108021130D01*
X160451130Y-108187440D01*
X160255571Y-108318109D01*
X160255570Y-108318110D01*
X160255569Y-108318110D01*
X160038276Y-108408116D01*
X159807600Y-108454000D01*
X159572400Y-108454000D01*
X159341724Y-108408116D01*
X159124431Y-108318110D01*
X159124430Y-108318110D01*
X159124429Y-108318109D01*
X158928870Y-108187440D01*
X158762560Y-108021130D01*
X158631891Y-107825571D01*
X158631890Y-107825569D01*
X158541884Y-107608276D01*
X158496000Y-107377600D01*
X158496000Y-107142400D01*
X158541884Y-106911724D01*
X158631890Y-106694431D01*
X158762560Y-106498870D01*
X158928870Y-106332560D01*
X159124429Y-106201891D01*
X159124431Y-106201890D01*
X159341724Y-106111884D01*
X159572400Y-106066000D01*
X159807600Y-106066000D01*
X160038276Y-106111884D01*
X160038276Y-106111884D01*
G37*
G36*
X179038276Y-106111884D02*
G01*
X179255569Y-106201890D01*
X179255571Y-106201891D01*
X179451130Y-106332560D01*
X179617440Y-106498870D01*
X179748110Y-106694431D01*
X179838116Y-106911724D01*
X179884000Y-107142400D01*
X179884000Y-107377600D01*
X179838116Y-107608276D01*
X179748110Y-107825569D01*
X179748109Y-107825571D01*
X179617440Y-108021130D01*
X179451130Y-108187440D01*
X179255571Y-108318109D01*
X179255570Y-108318110D01*
X179255569Y-108318110D01*
X179038276Y-108408116D01*
X178807600Y-108454000D01*
X178572400Y-108454000D01*
X178341724Y-108408116D01*
X178124431Y-108318110D01*
X178124430Y-108318110D01*
X178124429Y-108318109D01*
X177928870Y-108187440D01*
X177762560Y-108021130D01*
X177631891Y-107825571D01*
X177631890Y-107825569D01*
X177541884Y-107608276D01*
X177496000Y-107377600D01*
X177496000Y-107142400D01*
X177541884Y-106911724D01*
X177631890Y-106694431D01*
X177762560Y-106498870D01*
X177928870Y-106332560D01*
X178124429Y-106201891D01*
X178124431Y-106201890D01*
X178341724Y-106111884D01*
X178572400Y-106066000D01*
X178807600Y-106066000D01*
X179038276Y-106111884D01*
X179038276Y-106111884D01*
G37*
G36*
X166388276Y-103571884D02*
G01*
X166605569Y-103661890D01*
X166605571Y-103661891D01*
X166801130Y-103792560D01*
X166967440Y-103958870D01*
X167098110Y-104154431D01*
X167188116Y-104371724D01*
X167234000Y-104602400D01*
X167234000Y-104837600D01*
X167188116Y-105068276D01*
X167098110Y-105285569D01*
X167098109Y-105285571D01*
X166967440Y-105481130D01*
X166801130Y-105647440D01*
X166605571Y-105778109D01*
X166605570Y-105778110D01*
X166605569Y-105778110D01*
X166388276Y-105868116D01*
X166157600Y-105914000D01*
X165922400Y-105914000D01*
X165691724Y-105868116D01*
X165474431Y-105778110D01*
X165474430Y-105778110D01*
X165474429Y-105778109D01*
X165278870Y-105647440D01*
X165112560Y-105481130D01*
X164981891Y-105285571D01*
X164981890Y-105285569D01*
X164891884Y-105068276D01*
X164846000Y-104837600D01*
X164846000Y-104602400D01*
X164891884Y-104371724D01*
X164981890Y-104154431D01*
X165112560Y-103958870D01*
X165278870Y-103792560D01*
X165474429Y-103661891D01*
X165474431Y-103661890D01*
X165691724Y-103571884D01*
X165922400Y-103526000D01*
X166157600Y-103526000D01*
X166388276Y-103571884D01*
X166388276Y-103571884D01*
G37*
G36*
X147388276Y-103571884D02*
G01*
X147605569Y-103661890D01*
X147605571Y-103661891D01*
X147801130Y-103792560D01*
X147967440Y-103958870D01*
X148098110Y-104154431D01*
X148188116Y-104371724D01*
X148234000Y-104602400D01*
X148234000Y-104837600D01*
X148188116Y-105068276D01*
X148098110Y-105285569D01*
X148098109Y-105285571D01*
X147967440Y-105481130D01*
X147801130Y-105647440D01*
X147605571Y-105778109D01*
X147605570Y-105778110D01*
X147605569Y-105778110D01*
X147388276Y-105868116D01*
X147157600Y-105914000D01*
X146922400Y-105914000D01*
X146691724Y-105868116D01*
X146474431Y-105778110D01*
X146474430Y-105778110D01*
X146474429Y-105778109D01*
X146278870Y-105647440D01*
X146112560Y-105481130D01*
X145981891Y-105285571D01*
X145981890Y-105285569D01*
X145891884Y-105068276D01*
X145846000Y-104837600D01*
X145846000Y-104602400D01*
X145891884Y-104371724D01*
X145981890Y-104154431D01*
X146112560Y-103958870D01*
X146278870Y-103792560D01*
X146474429Y-103661891D01*
X146474431Y-103661890D01*
X146691724Y-103571884D01*
X146922400Y-103526000D01*
X147157600Y-103526000D01*
X147388276Y-103571884D01*
X147388276Y-103571884D01*
G37*
G36*
X185388276Y-103571884D02*
G01*
X185605569Y-103661890D01*
X185605571Y-103661891D01*
X185801130Y-103792560D01*
X185967440Y-103958870D01*
X186098110Y-104154431D01*
X186188116Y-104371724D01*
X186234000Y-104602400D01*
X186234000Y-104837600D01*
X186188116Y-105068276D01*
X186098110Y-105285569D01*
X186098109Y-105285571D01*
X185967440Y-105481130D01*
X185801130Y-105647440D01*
X185605571Y-105778109D01*
X185605570Y-105778110D01*
X185605569Y-105778110D01*
X185388276Y-105868116D01*
X185157600Y-105914000D01*
X184922400Y-105914000D01*
X184691724Y-105868116D01*
X184474431Y-105778110D01*
X184474430Y-105778110D01*
X184474429Y-105778109D01*
X184278870Y-105647440D01*
X184112560Y-105481130D01*
X183981891Y-105285571D01*
X183981890Y-105285569D01*
X183891884Y-105068276D01*
X183846000Y-104837600D01*
X183846000Y-104602400D01*
X183891884Y-104371724D01*
X183981890Y-104154431D01*
X184112560Y-103958870D01*
X184278870Y-103792560D01*
X184474429Y-103661891D01*
X184474431Y-103661890D01*
X184691724Y-103571884D01*
X184922400Y-103526000D01*
X185157600Y-103526000D01*
X185388276Y-103571884D01*
X185388276Y-103571884D01*
G37*
G36*
X128388276Y-103571884D02*
G01*
X128605569Y-103661890D01*
X128605571Y-103661891D01*
X128801130Y-103792560D01*
X128967440Y-103958870D01*
X129098110Y-104154431D01*
X129188116Y-104371724D01*
X129234000Y-104602400D01*
X129234000Y-104837600D01*
X129188116Y-105068276D01*
X129098110Y-105285569D01*
X129098109Y-105285571D01*
X128967440Y-105481130D01*
X128801130Y-105647440D01*
X128605571Y-105778109D01*
X128605570Y-105778110D01*
X128605569Y-105778110D01*
X128388276Y-105868116D01*
X128157600Y-105914000D01*
X127922400Y-105914000D01*
X127691724Y-105868116D01*
X127474431Y-105778110D01*
X127474430Y-105778110D01*
X127474429Y-105778109D01*
X127278870Y-105647440D01*
X127112560Y-105481130D01*
X126981891Y-105285571D01*
X126981890Y-105285569D01*
X126891884Y-105068276D01*
X126846000Y-104837600D01*
X126846000Y-104602400D01*
X126891884Y-104371724D01*
X126981890Y-104154431D01*
X127112560Y-103958870D01*
X127278870Y-103792560D01*
X127474429Y-103661891D01*
X127474431Y-103661890D01*
X127691724Y-103571884D01*
X127922400Y-103526000D01*
X128157600Y-103526000D01*
X128388276Y-103571884D01*
X128388276Y-103571884D01*
G37*
G36*
X186304977Y-99849467D02*
G01*
X186465396Y-99898130D01*
X186598060Y-99969040D01*
X186613232Y-99977150D01*
X186742813Y-100083495D01*
X186849158Y-100213076D01*
X186849159Y-100213078D01*
X186928178Y-100360912D01*
X186976841Y-100521331D01*
X186993271Y-100688154D01*
X186976841Y-100854977D01*
X186928178Y-101015396D01*
X186857268Y-101148060D01*
X186849158Y-101163232D01*
X186742813Y-101292813D01*
X186613232Y-101399158D01*
X186613230Y-101399159D01*
X186465396Y-101478178D01*
X186304977Y-101526841D01*
X186179958Y-101539154D01*
X186096350Y-101539154D01*
X185971331Y-101526841D01*
X185810912Y-101478178D01*
X185663078Y-101399159D01*
X185663076Y-101399158D01*
X185533495Y-101292813D01*
X185427150Y-101163232D01*
X185419040Y-101148060D01*
X185348130Y-101015396D01*
X185299467Y-100854977D01*
X185283037Y-100688154D01*
X185299467Y-100521331D01*
X185348130Y-100360912D01*
X185427149Y-100213078D01*
X185427150Y-100213076D01*
X185533495Y-100083495D01*
X185663076Y-99977150D01*
X185678248Y-99969040D01*
X185810912Y-99898130D01*
X185971331Y-99849467D01*
X186096350Y-99837154D01*
X186179958Y-99837154D01*
X186304977Y-99849467D01*
X186304977Y-99849467D01*
G37*
G36*
X181054977Y-99849467D02*
G01*
X181215396Y-99898130D01*
X181348060Y-99969040D01*
X181363232Y-99977150D01*
X181492813Y-100083495D01*
X181599158Y-100213076D01*
X181599159Y-100213078D01*
X181678178Y-100360912D01*
X181726841Y-100521331D01*
X181743271Y-100688154D01*
X181726841Y-100854977D01*
X181678178Y-101015396D01*
X181607268Y-101148060D01*
X181599158Y-101163232D01*
X181492813Y-101292813D01*
X181363232Y-101399158D01*
X181363230Y-101399159D01*
X181215396Y-101478178D01*
X181054977Y-101526841D01*
X180929958Y-101539154D01*
X180846350Y-101539154D01*
X180721331Y-101526841D01*
X180560912Y-101478178D01*
X180413078Y-101399159D01*
X180413076Y-101399158D01*
X180283495Y-101292813D01*
X180177150Y-101163232D01*
X180169040Y-101148060D01*
X180098130Y-101015396D01*
X180049467Y-100854977D01*
X180033037Y-100688154D01*
X180049467Y-100521331D01*
X180098130Y-100360912D01*
X180177149Y-100213078D01*
X180177150Y-100213076D01*
X180283495Y-100083495D01*
X180413076Y-99977150D01*
X180428248Y-99969040D01*
X180560912Y-99898130D01*
X180721331Y-99849467D01*
X180846350Y-99837154D01*
X180929958Y-99837154D01*
X181054977Y-99849467D01*
X181054977Y-99849467D01*
G37*
G36*
X167304977Y-99849467D02*
G01*
X167465396Y-99898130D01*
X167598060Y-99969040D01*
X167613232Y-99977150D01*
X167742813Y-100083495D01*
X167849158Y-100213076D01*
X167849159Y-100213078D01*
X167928178Y-100360912D01*
X167976841Y-100521331D01*
X167993271Y-100688154D01*
X167976841Y-100854977D01*
X167928178Y-101015396D01*
X167857268Y-101148060D01*
X167849158Y-101163232D01*
X167742813Y-101292813D01*
X167613232Y-101399158D01*
X167613230Y-101399159D01*
X167465396Y-101478178D01*
X167304977Y-101526841D01*
X167179958Y-101539154D01*
X167096350Y-101539154D01*
X166971331Y-101526841D01*
X166810912Y-101478178D01*
X166663078Y-101399159D01*
X166663076Y-101399158D01*
X166533495Y-101292813D01*
X166427150Y-101163232D01*
X166419040Y-101148060D01*
X166348130Y-101015396D01*
X166299467Y-100854977D01*
X166283037Y-100688154D01*
X166299467Y-100521331D01*
X166348130Y-100360912D01*
X166427149Y-100213078D01*
X166427150Y-100213076D01*
X166533495Y-100083495D01*
X166663076Y-99977150D01*
X166678248Y-99969040D01*
X166810912Y-99898130D01*
X166971331Y-99849467D01*
X167096350Y-99837154D01*
X167179958Y-99837154D01*
X167304977Y-99849467D01*
X167304977Y-99849467D01*
G37*
G36*
X162054977Y-99849467D02*
G01*
X162215396Y-99898130D01*
X162348060Y-99969040D01*
X162363232Y-99977150D01*
X162492813Y-100083495D01*
X162599158Y-100213076D01*
X162599159Y-100213078D01*
X162678178Y-100360912D01*
X162726841Y-100521331D01*
X162743271Y-100688154D01*
X162726841Y-100854977D01*
X162678178Y-101015396D01*
X162607268Y-101148060D01*
X162599158Y-101163232D01*
X162492813Y-101292813D01*
X162363232Y-101399158D01*
X162363230Y-101399159D01*
X162215396Y-101478178D01*
X162054977Y-101526841D01*
X161929958Y-101539154D01*
X161846350Y-101539154D01*
X161721331Y-101526841D01*
X161560912Y-101478178D01*
X161413078Y-101399159D01*
X161413076Y-101399158D01*
X161283495Y-101292813D01*
X161177150Y-101163232D01*
X161169040Y-101148060D01*
X161098130Y-101015396D01*
X161049467Y-100854977D01*
X161033037Y-100688154D01*
X161049467Y-100521331D01*
X161098130Y-100360912D01*
X161177149Y-100213078D01*
X161177150Y-100213076D01*
X161283495Y-100083495D01*
X161413076Y-99977150D01*
X161428248Y-99969040D01*
X161560912Y-99898130D01*
X161721331Y-99849467D01*
X161846350Y-99837154D01*
X161929958Y-99837154D01*
X162054977Y-99849467D01*
X162054977Y-99849467D01*
G37*
G36*
X141028669Y-99849467D02*
G01*
X141189088Y-99898130D01*
X141321752Y-99969040D01*
X141336924Y-99977150D01*
X141466505Y-100083495D01*
X141572850Y-100213076D01*
X141572851Y-100213078D01*
X141651870Y-100360912D01*
X141700533Y-100521331D01*
X141716963Y-100688154D01*
X141700533Y-100854977D01*
X141651870Y-101015396D01*
X141580960Y-101148060D01*
X141572850Y-101163232D01*
X141466505Y-101292813D01*
X141336924Y-101399158D01*
X141336922Y-101399159D01*
X141189088Y-101478178D01*
X141028669Y-101526841D01*
X140903650Y-101539154D01*
X140820042Y-101539154D01*
X140695023Y-101526841D01*
X140534604Y-101478178D01*
X140386770Y-101399159D01*
X140386768Y-101399158D01*
X140257187Y-101292813D01*
X140150842Y-101163232D01*
X140142732Y-101148060D01*
X140071822Y-101015396D01*
X140023159Y-100854977D01*
X140006729Y-100688154D01*
X140023159Y-100521331D01*
X140071822Y-100360912D01*
X140150841Y-100213078D01*
X140150842Y-100213076D01*
X140257187Y-100083495D01*
X140386768Y-99977150D01*
X140401940Y-99969040D01*
X140534604Y-99898130D01*
X140695023Y-99849467D01*
X140820042Y-99837154D01*
X140903650Y-99837154D01*
X141028669Y-99849467D01*
X141028669Y-99849467D01*
G37*
G36*
X127028669Y-99849467D02*
G01*
X127189088Y-99898130D01*
X127321752Y-99969040D01*
X127336924Y-99977150D01*
X127466505Y-100083495D01*
X127572850Y-100213076D01*
X127572851Y-100213078D01*
X127651870Y-100360912D01*
X127700533Y-100521331D01*
X127716963Y-100688154D01*
X127700533Y-100854977D01*
X127651870Y-101015396D01*
X127580960Y-101148060D01*
X127572850Y-101163232D01*
X127466505Y-101292813D01*
X127336924Y-101399158D01*
X127336922Y-101399159D01*
X127189088Y-101478178D01*
X127028669Y-101526841D01*
X126903650Y-101539154D01*
X126820042Y-101539154D01*
X126695023Y-101526841D01*
X126534604Y-101478178D01*
X126386770Y-101399159D01*
X126386768Y-101399158D01*
X126257187Y-101292813D01*
X126150842Y-101163232D01*
X126142732Y-101148060D01*
X126071822Y-101015396D01*
X126023159Y-100854977D01*
X126006729Y-100688154D01*
X126023159Y-100521331D01*
X126071822Y-100360912D01*
X126150841Y-100213078D01*
X126150842Y-100213076D01*
X126257187Y-100083495D01*
X126386768Y-99977150D01*
X126401940Y-99969040D01*
X126534604Y-99898130D01*
X126695023Y-99849467D01*
X126820042Y-99837154D01*
X126903650Y-99837154D01*
X127028669Y-99849467D01*
X127028669Y-99849467D01*
G37*
G36*
X122028669Y-99849467D02*
G01*
X122189088Y-99898130D01*
X122321752Y-99969040D01*
X122336924Y-99977150D01*
X122466505Y-100083495D01*
X122572850Y-100213076D01*
X122572851Y-100213078D01*
X122651870Y-100360912D01*
X122700533Y-100521331D01*
X122716963Y-100688154D01*
X122700533Y-100854977D01*
X122651870Y-101015396D01*
X122580960Y-101148060D01*
X122572850Y-101163232D01*
X122466505Y-101292813D01*
X122336924Y-101399158D01*
X122336922Y-101399159D01*
X122189088Y-101478178D01*
X122028669Y-101526841D01*
X121903650Y-101539154D01*
X121820042Y-101539154D01*
X121695023Y-101526841D01*
X121534604Y-101478178D01*
X121386770Y-101399159D01*
X121386768Y-101399158D01*
X121257187Y-101292813D01*
X121150842Y-101163232D01*
X121142732Y-101148060D01*
X121071822Y-101015396D01*
X121023159Y-100854977D01*
X121006729Y-100688154D01*
X121023159Y-100521331D01*
X121071822Y-100360912D01*
X121150841Y-100213078D01*
X121150842Y-100213076D01*
X121257187Y-100083495D01*
X121386768Y-99977150D01*
X121401940Y-99969040D01*
X121534604Y-99898130D01*
X121695023Y-99849467D01*
X121820042Y-99837154D01*
X121903650Y-99837154D01*
X122028669Y-99849467D01*
X122028669Y-99849467D01*
G37*
G36*
X146028669Y-99849467D02*
G01*
X146189088Y-99898130D01*
X146321752Y-99969040D01*
X146336924Y-99977150D01*
X146466505Y-100083495D01*
X146572850Y-100213076D01*
X146572851Y-100213078D01*
X146651870Y-100360912D01*
X146700533Y-100521331D01*
X146716963Y-100688154D01*
X146700533Y-100854977D01*
X146651870Y-101015396D01*
X146580960Y-101148060D01*
X146572850Y-101163232D01*
X146466505Y-101292813D01*
X146336924Y-101399158D01*
X146336922Y-101399159D01*
X146189088Y-101478178D01*
X146028669Y-101526841D01*
X145903650Y-101539154D01*
X145820042Y-101539154D01*
X145695023Y-101526841D01*
X145534604Y-101478178D01*
X145386770Y-101399159D01*
X145386768Y-101399158D01*
X145257187Y-101292813D01*
X145150842Y-101163232D01*
X145142732Y-101148060D01*
X145071822Y-101015396D01*
X145023159Y-100854977D01*
X145006729Y-100688154D01*
X145023159Y-100521331D01*
X145071822Y-100360912D01*
X145150841Y-100213078D01*
X145150842Y-100213076D01*
X145257187Y-100083495D01*
X145386768Y-99977150D01*
X145401940Y-99969040D01*
X145534604Y-99898130D01*
X145695023Y-99849467D01*
X145820042Y-99837154D01*
X145903650Y-99837154D01*
X146028669Y-99849467D01*
X146028669Y-99849467D01*
G37*
G36*
X114266823Y-98821313D02*
G01*
X114427242Y-98869976D01*
X114559906Y-98940886D01*
X114575078Y-98948996D01*
X114704659Y-99055341D01*
X114811004Y-99184922D01*
X114811005Y-99184924D01*
X114890024Y-99332758D01*
X114938687Y-99493177D01*
X114955117Y-99660000D01*
X114938687Y-99826823D01*
X114890024Y-99987242D01*
X114819114Y-100119906D01*
X114811004Y-100135078D01*
X114704659Y-100264659D01*
X114575078Y-100371004D01*
X114575076Y-100371005D01*
X114427242Y-100450024D01*
X114266823Y-100498687D01*
X114141804Y-100511000D01*
X114058196Y-100511000D01*
X113933177Y-100498687D01*
X113772758Y-100450024D01*
X113624924Y-100371005D01*
X113624922Y-100371004D01*
X113495341Y-100264659D01*
X113388996Y-100135078D01*
X113380886Y-100119906D01*
X113309976Y-99987242D01*
X113261313Y-99826823D01*
X113244883Y-99660000D01*
X113261313Y-99493177D01*
X113309976Y-99332758D01*
X113388995Y-99184924D01*
X113388996Y-99184922D01*
X113495341Y-99055341D01*
X113624922Y-98948996D01*
X113640094Y-98940886D01*
X113772758Y-98869976D01*
X113933177Y-98821313D01*
X114058196Y-98809000D01*
X114141804Y-98809000D01*
X114266823Y-98821313D01*
X114266823Y-98821313D01*
G37*
G36*
X118010442Y-97625518D02*
G01*
X118076627Y-97632037D01*
X118246466Y-97683557D01*
X118402991Y-97767222D01*
X118438729Y-97796552D01*
X118540186Y-97879814D01*
X118623448Y-97981271D01*
X118652778Y-98017009D01*
X118736443Y-98173534D01*
X118787963Y-98343373D01*
X118805359Y-98520000D01*
X118787963Y-98696627D01*
X118736443Y-98866466D01*
X118652778Y-99022991D01*
X118626229Y-99055341D01*
X118540186Y-99160186D01*
X118438729Y-99243448D01*
X118402991Y-99272778D01*
X118246466Y-99356443D01*
X118076627Y-99407963D01*
X118010443Y-99414481D01*
X117944260Y-99421000D01*
X117855740Y-99421000D01*
X117789558Y-99414482D01*
X117723373Y-99407963D01*
X117553534Y-99356443D01*
X117397009Y-99272778D01*
X117361271Y-99243448D01*
X117259814Y-99160186D01*
X117173771Y-99055341D01*
X117147222Y-99022991D01*
X117063557Y-98866466D01*
X117012037Y-98696627D01*
X116994641Y-98520000D01*
X117012037Y-98343373D01*
X117063557Y-98173534D01*
X117147222Y-98017009D01*
X117176552Y-97981271D01*
X117259814Y-97879814D01*
X117361271Y-97796552D01*
X117397009Y-97767222D01*
X117553534Y-97683557D01*
X117723373Y-97632037D01*
X117789558Y-97625518D01*
X117855740Y-97619000D01*
X117944260Y-97619000D01*
X118010442Y-97625518D01*
X118010442Y-97625518D01*
G37*
G36*
X118010442Y-95085518D02*
G01*
X118076627Y-95092037D01*
X118246466Y-95143557D01*
X118402991Y-95227222D01*
X118438729Y-95256552D01*
X118540186Y-95339814D01*
X118623448Y-95441271D01*
X118652778Y-95477009D01*
X118736443Y-95633534D01*
X118787963Y-95803373D01*
X118805359Y-95980000D01*
X118787963Y-96156627D01*
X118736443Y-96326466D01*
X118652778Y-96482991D01*
X118635950Y-96503496D01*
X118540186Y-96620186D01*
X118438729Y-96703448D01*
X118402991Y-96732778D01*
X118246466Y-96816443D01*
X118076627Y-96867963D01*
X118010442Y-96874482D01*
X117944260Y-96881000D01*
X117855740Y-96881000D01*
X117789557Y-96874481D01*
X117723373Y-96867963D01*
X117553534Y-96816443D01*
X117397009Y-96732778D01*
X117361271Y-96703448D01*
X117259814Y-96620186D01*
X117164050Y-96503496D01*
X117147222Y-96482991D01*
X117063557Y-96326466D01*
X117012037Y-96156627D01*
X116994641Y-95980000D01*
X117012037Y-95803373D01*
X117063557Y-95633534D01*
X117147222Y-95477009D01*
X117176552Y-95441271D01*
X117259814Y-95339814D01*
X117361271Y-95256552D01*
X117397009Y-95227222D01*
X117553534Y-95143557D01*
X117723373Y-95092037D01*
X117789558Y-95085518D01*
X117855740Y-95079000D01*
X117944260Y-95079000D01*
X118010442Y-95085518D01*
X118010442Y-95085518D01*
G37*
G36*
X157703496Y-95300000D02*
G01*
X156500000Y-96503496D01*
X155296504Y-95300000D01*
X156500000Y-94096504D01*
X157703496Y-95300000D01*
X157703496Y-95300000D01*
G37*
G36*
X128453496Y-95300000D02*
G01*
X127250000Y-96503496D01*
X126046504Y-95300000D01*
X127250000Y-94096504D01*
X128453496Y-95300000D01*
X128453496Y-95300000D01*
G37*
G36*
X181953496Y-95300000D02*
G01*
X180750000Y-96503496D01*
X179546504Y-95300000D01*
X180750000Y-94096504D01*
X181953496Y-95300000D01*
X181953496Y-95300000D01*
G37*
G36*
X176703496Y-95300000D02*
G01*
X175500000Y-96503496D01*
X174296504Y-95300000D01*
X175500000Y-94096504D01*
X176703496Y-95300000D01*
X176703496Y-95300000D01*
G37*
G36*
X162953496Y-95300000D02*
G01*
X161750000Y-96503496D01*
X160546504Y-95300000D01*
X161750000Y-94096504D01*
X162953496Y-95300000D01*
X162953496Y-95300000D01*
G37*
G36*
X152453496Y-95300000D02*
G01*
X151250000Y-96503496D01*
X150046504Y-95300000D01*
X151250000Y-94096504D01*
X152453496Y-95300000D01*
X152453496Y-95300000D01*
G37*
G36*
X147453496Y-95300000D02*
G01*
X146250000Y-96503496D01*
X145046504Y-95300000D01*
X146250000Y-94096504D01*
X147453496Y-95300000D01*
X147453496Y-95300000D01*
G37*
G36*
X133453496Y-95300000D02*
G01*
X132250000Y-96503496D01*
X131046504Y-95300000D01*
X132250000Y-94096504D01*
X133453496Y-95300000D01*
X133453496Y-95300000D01*
G37*
G36*
X118010443Y-92545519D02*
G01*
X118076627Y-92552037D01*
X118246466Y-92603557D01*
X118402991Y-92687222D01*
X118438729Y-92716552D01*
X118540186Y-92799814D01*
X118623448Y-92901271D01*
X118652778Y-92937009D01*
X118736443Y-93093534D01*
X118787963Y-93263373D01*
X118805359Y-93440000D01*
X118787963Y-93616627D01*
X118736443Y-93786466D01*
X118652778Y-93942991D01*
X118623448Y-93978729D01*
X118540186Y-94080186D01*
X118438729Y-94163448D01*
X118402991Y-94192778D01*
X118246466Y-94276443D01*
X118076627Y-94327963D01*
X118010443Y-94334481D01*
X117944260Y-94341000D01*
X117855740Y-94341000D01*
X117789558Y-94334482D01*
X117723373Y-94327963D01*
X117553534Y-94276443D01*
X117397009Y-94192778D01*
X117361271Y-94163448D01*
X117259814Y-94080186D01*
X117176552Y-93978729D01*
X117147222Y-93942991D01*
X117063557Y-93786466D01*
X117012037Y-93616627D01*
X116994641Y-93440000D01*
X117012037Y-93263373D01*
X117063557Y-93093534D01*
X117147222Y-92937009D01*
X117176552Y-92901271D01*
X117259814Y-92799814D01*
X117361271Y-92716552D01*
X117397009Y-92687222D01*
X117553534Y-92603557D01*
X117723373Y-92552037D01*
X117789557Y-92545519D01*
X117855740Y-92539000D01*
X117944260Y-92539000D01*
X118010443Y-92545519D01*
X118010443Y-92545519D01*
G37*
G36*
X118801000Y-91801000D02*
G01*
X116999000Y-91801000D01*
X116999000Y-89999000D01*
X118801000Y-89999000D01*
X118801000Y-91801000D01*
X118801000Y-91801000D01*
G37*
G36*
X114348228Y-88681703D02*
G01*
X114503100Y-88745853D01*
X114642481Y-88838985D01*
X114761015Y-88957519D01*
X114854147Y-89096900D01*
X114918297Y-89251772D01*
X114951000Y-89416184D01*
X114951000Y-89583816D01*
X114918297Y-89748228D01*
X114854147Y-89903100D01*
X114761015Y-90042481D01*
X114642481Y-90161015D01*
X114503100Y-90254147D01*
X114348228Y-90318297D01*
X114183816Y-90351000D01*
X114016184Y-90351000D01*
X113851772Y-90318297D01*
X113696900Y-90254147D01*
X113557519Y-90161015D01*
X113438985Y-90042481D01*
X113345853Y-89903100D01*
X113281703Y-89748228D01*
X113249000Y-89583816D01*
X113249000Y-89416184D01*
X113281703Y-89251772D01*
X113345853Y-89096900D01*
X113438985Y-88957519D01*
X113557519Y-88838985D01*
X113696900Y-88745853D01*
X113851772Y-88681703D01*
X114016184Y-88649000D01*
X114183816Y-88649000D01*
X114348228Y-88681703D01*
X114348228Y-88681703D01*
G37*
G36*
X126651000Y-87951000D02*
G01*
X123349000Y-87951000D01*
X123349000Y-85849000D01*
X126651000Y-85849000D01*
X126651000Y-87951000D01*
X126651000Y-87951000D01*
G37*
G36*
X155651000Y-87951000D02*
G01*
X152349000Y-87951000D01*
X152349000Y-85849000D01*
X155651000Y-85849000D01*
X155651000Y-87951000D01*
X155651000Y-87951000D01*
G37*
G36*
X184651000Y-87951000D02*
G01*
X181349000Y-87951000D01*
X181349000Y-85849000D01*
X184651000Y-85849000D01*
X184651000Y-87951000D01*
X184651000Y-87951000D01*
G37*
G36*
X114266823Y-85021313D02*
G01*
X114427242Y-85069976D01*
X114559906Y-85140886D01*
X114575078Y-85148996D01*
X114704659Y-85255341D01*
X114811004Y-85384922D01*
X114811005Y-85384924D01*
X114890024Y-85532758D01*
X114938687Y-85693177D01*
X114955117Y-85860000D01*
X114938687Y-86026823D01*
X114890024Y-86187242D01*
X114819114Y-86319906D01*
X114811004Y-86335078D01*
X114704659Y-86464659D01*
X114575078Y-86571004D01*
X114575076Y-86571005D01*
X114427242Y-86650024D01*
X114266823Y-86698687D01*
X114141804Y-86711000D01*
X114058196Y-86711000D01*
X113933177Y-86698687D01*
X113772758Y-86650024D01*
X113624924Y-86571005D01*
X113624922Y-86571004D01*
X113495341Y-86464659D01*
X113388996Y-86335078D01*
X113380886Y-86319906D01*
X113309976Y-86187242D01*
X113261313Y-86026823D01*
X113244883Y-85860000D01*
X113261313Y-85693177D01*
X113309976Y-85532758D01*
X113388995Y-85384924D01*
X113388996Y-85384922D01*
X113495341Y-85255341D01*
X113624922Y-85148996D01*
X113640094Y-85140886D01*
X113772758Y-85069976D01*
X113933177Y-85021313D01*
X114058196Y-85009000D01*
X114141804Y-85009000D01*
X114266823Y-85021313D01*
X114266823Y-85021313D01*
G37*
G36*
X161306564Y-82789389D02*
G01*
X161497833Y-82868615D01*
X161497835Y-82868616D01*
X161669973Y-82983635D01*
X161816365Y-83130027D01*
X161895858Y-83248996D01*
X161931385Y-83302167D01*
X162010611Y-83493436D01*
X162051000Y-83696484D01*
X162051000Y-83903516D01*
X162010611Y-84106564D01*
X161935773Y-84287239D01*
X161931384Y-84297835D01*
X161816365Y-84469973D01*
X161669973Y-84616365D01*
X161497835Y-84731384D01*
X161497834Y-84731385D01*
X161497833Y-84731385D01*
X161306564Y-84810611D01*
X161103516Y-84851000D01*
X160896484Y-84851000D01*
X160693436Y-84810611D01*
X160502167Y-84731385D01*
X160502166Y-84731385D01*
X160502165Y-84731384D01*
X160330027Y-84616365D01*
X160183635Y-84469973D01*
X160068616Y-84297835D01*
X160064227Y-84287239D01*
X159989389Y-84106564D01*
X159949000Y-83903516D01*
X159949000Y-83696484D01*
X159989389Y-83493436D01*
X160068615Y-83302167D01*
X160104143Y-83248996D01*
X160183635Y-83130027D01*
X160330027Y-82983635D01*
X160502165Y-82868616D01*
X160502167Y-82868615D01*
X160693436Y-82789389D01*
X160896484Y-82749000D01*
X161103516Y-82749000D01*
X161306564Y-82789389D01*
X161306564Y-82789389D01*
G37*
G36*
X118306564Y-82789389D02*
G01*
X118497833Y-82868615D01*
X118497835Y-82868616D01*
X118669973Y-82983635D01*
X118816365Y-83130027D01*
X118895858Y-83248996D01*
X118931385Y-83302167D01*
X119010611Y-83493436D01*
X119051000Y-83696484D01*
X119051000Y-83903516D01*
X119010611Y-84106564D01*
X118935773Y-84287239D01*
X118931384Y-84297835D01*
X118816365Y-84469973D01*
X118669973Y-84616365D01*
X118497835Y-84731384D01*
X118497834Y-84731385D01*
X118497833Y-84731385D01*
X118306564Y-84810611D01*
X118103516Y-84851000D01*
X117896484Y-84851000D01*
X117693436Y-84810611D01*
X117502167Y-84731385D01*
X117502166Y-84731385D01*
X117502165Y-84731384D01*
X117330027Y-84616365D01*
X117183635Y-84469973D01*
X117068616Y-84297835D01*
X117064227Y-84287239D01*
X116989389Y-84106564D01*
X116949000Y-83903516D01*
X116949000Y-83696484D01*
X116989389Y-83493436D01*
X117068615Y-83302167D01*
X117104143Y-83248996D01*
X117183635Y-83130027D01*
X117330027Y-82983635D01*
X117502165Y-82868616D01*
X117502167Y-82868615D01*
X117693436Y-82789389D01*
X117896484Y-82749000D01*
X118103516Y-82749000D01*
X118306564Y-82789389D01*
X118306564Y-82789389D01*
G37*
G36*
X146806564Y-82789389D02*
G01*
X146997833Y-82868615D01*
X146997835Y-82868616D01*
X147169973Y-82983635D01*
X147316365Y-83130027D01*
X147395858Y-83248996D01*
X147431385Y-83302167D01*
X147510611Y-83493436D01*
X147551000Y-83696484D01*
X147551000Y-83903516D01*
X147510611Y-84106564D01*
X147435773Y-84287239D01*
X147431384Y-84297835D01*
X147316365Y-84469973D01*
X147169973Y-84616365D01*
X146997835Y-84731384D01*
X146997834Y-84731385D01*
X146997833Y-84731385D01*
X146806564Y-84810611D01*
X146603516Y-84851000D01*
X146396484Y-84851000D01*
X146193436Y-84810611D01*
X146002167Y-84731385D01*
X146002166Y-84731385D01*
X146002165Y-84731384D01*
X145830027Y-84616365D01*
X145683635Y-84469973D01*
X145568616Y-84297835D01*
X145564227Y-84287239D01*
X145489389Y-84106564D01*
X145449000Y-83903516D01*
X145449000Y-83696484D01*
X145489389Y-83493436D01*
X145568615Y-83302167D01*
X145604143Y-83248996D01*
X145683635Y-83130027D01*
X145830027Y-82983635D01*
X146002165Y-82868616D01*
X146002167Y-82868615D01*
X146193436Y-82789389D01*
X146396484Y-82749000D01*
X146603516Y-82749000D01*
X146806564Y-82789389D01*
X146806564Y-82789389D01*
G37*
G36*
X190306564Y-82789389D02*
G01*
X190497833Y-82868615D01*
X190497835Y-82868616D01*
X190669973Y-82983635D01*
X190816365Y-83130027D01*
X190895858Y-83248996D01*
X190931385Y-83302167D01*
X191010611Y-83493436D01*
X191051000Y-83696484D01*
X191051000Y-83903516D01*
X191010611Y-84106564D01*
X190935773Y-84287239D01*
X190931384Y-84297835D01*
X190816365Y-84469973D01*
X190669973Y-84616365D01*
X190497835Y-84731384D01*
X190497834Y-84731385D01*
X190497833Y-84731385D01*
X190306564Y-84810611D01*
X190103516Y-84851000D01*
X189896484Y-84851000D01*
X189693436Y-84810611D01*
X189502167Y-84731385D01*
X189502166Y-84731385D01*
X189502165Y-84731384D01*
X189330027Y-84616365D01*
X189183635Y-84469973D01*
X189068616Y-84297835D01*
X189064227Y-84287239D01*
X188989389Y-84106564D01*
X188949000Y-83903516D01*
X188949000Y-83696484D01*
X188989389Y-83493436D01*
X189068615Y-83302167D01*
X189104143Y-83248996D01*
X189183635Y-83130027D01*
X189330027Y-82983635D01*
X189502165Y-82868616D01*
X189502167Y-82868615D01*
X189693436Y-82789389D01*
X189896484Y-82749000D01*
X190103516Y-82749000D01*
X190306564Y-82789389D01*
X190306564Y-82789389D01*
G37*
G36*
X133551000Y-84851000D02*
G01*
X131449000Y-84851000D01*
X131449000Y-82749000D01*
X133551000Y-82749000D01*
X133551000Y-84851000D01*
X133551000Y-84851000D01*
G37*
G36*
X175806564Y-82789389D02*
G01*
X175997833Y-82868615D01*
X175997835Y-82868616D01*
X176169973Y-82983635D01*
X176316365Y-83130027D01*
X176395858Y-83248996D01*
X176431385Y-83302167D01*
X176510611Y-83493436D01*
X176551000Y-83696484D01*
X176551000Y-83903516D01*
X176510611Y-84106564D01*
X176435773Y-84287239D01*
X176431384Y-84297835D01*
X176316365Y-84469973D01*
X176169973Y-84616365D01*
X175997835Y-84731384D01*
X175997834Y-84731385D01*
X175997833Y-84731385D01*
X175806564Y-84810611D01*
X175603516Y-84851000D01*
X175396484Y-84851000D01*
X175193436Y-84810611D01*
X175002167Y-84731385D01*
X175002166Y-84731385D01*
X175002165Y-84731384D01*
X174830027Y-84616365D01*
X174683635Y-84469973D01*
X174568616Y-84297835D01*
X174564227Y-84287239D01*
X174489389Y-84106564D01*
X174449000Y-83903516D01*
X174449000Y-83696484D01*
X174489389Y-83493436D01*
X174568615Y-83302167D01*
X174604143Y-83248996D01*
X174683635Y-83130027D01*
X174830027Y-82983635D01*
X175002165Y-82868616D01*
X175002167Y-82868615D01*
X175193436Y-82789389D01*
X175396484Y-82749000D01*
X175603516Y-82749000D01*
X175806564Y-82789389D01*
X175806564Y-82789389D01*
G37*
G36*
X168666823Y-83121313D02*
G01*
X168827242Y-83169976D01*
X168959906Y-83240886D01*
X168975078Y-83248996D01*
X169104659Y-83355341D01*
X169211004Y-83484922D01*
X169211005Y-83484924D01*
X169290024Y-83632758D01*
X169338687Y-83793177D01*
X169355117Y-83960000D01*
X169338687Y-84126823D01*
X169290024Y-84287242D01*
X169260498Y-84342481D01*
X169211004Y-84435078D01*
X169104659Y-84564659D01*
X168975078Y-84671004D01*
X168975076Y-84671005D01*
X168827242Y-84750024D01*
X168666823Y-84798687D01*
X168541804Y-84811000D01*
X168458196Y-84811000D01*
X168333177Y-84798687D01*
X168172758Y-84750024D01*
X168024924Y-84671005D01*
X168024922Y-84671004D01*
X167895341Y-84564659D01*
X167788996Y-84435078D01*
X167739502Y-84342481D01*
X167709976Y-84287242D01*
X167661313Y-84126823D01*
X167644883Y-83960000D01*
X167661313Y-83793177D01*
X167709976Y-83632758D01*
X167788995Y-83484924D01*
X167788996Y-83484922D01*
X167895341Y-83355341D01*
X168024922Y-83248996D01*
X168040094Y-83240886D01*
X168172758Y-83169976D01*
X168333177Y-83121313D01*
X168458196Y-83109000D01*
X168541804Y-83109000D01*
X168666823Y-83121313D01*
X168666823Y-83121313D01*
G37*
G36*
X137248228Y-82981703D02*
G01*
X137403100Y-83045853D01*
X137542481Y-83138985D01*
X137661015Y-83257519D01*
X137754147Y-83396900D01*
X137818297Y-83551772D01*
X137851000Y-83716184D01*
X137851000Y-83883816D01*
X137818297Y-84048228D01*
X137754147Y-84203100D01*
X137661015Y-84342481D01*
X137542481Y-84461015D01*
X137403100Y-84554147D01*
X137248228Y-84618297D01*
X137083816Y-84651000D01*
X136916184Y-84651000D01*
X136751772Y-84618297D01*
X136596900Y-84554147D01*
X136457519Y-84461015D01*
X136338985Y-84342481D01*
X136245853Y-84203100D01*
X136181703Y-84048228D01*
X136149000Y-83883816D01*
X136149000Y-83716184D01*
X136181703Y-83551772D01*
X136245853Y-83396900D01*
X136338985Y-83257519D01*
X136457519Y-83138985D01*
X136596900Y-83045853D01*
X136751772Y-82981703D01*
X136916184Y-82949000D01*
X137083816Y-82949000D01*
X137248228Y-82981703D01*
X137248228Y-82981703D01*
G37*
G36*
X142548228Y-82981703D02*
G01*
X142703100Y-83045853D01*
X142842481Y-83138985D01*
X142961015Y-83257519D01*
X143054147Y-83396900D01*
X143118297Y-83551772D01*
X143151000Y-83716184D01*
X143151000Y-83883816D01*
X143118297Y-84048228D01*
X143054147Y-84203100D01*
X142961015Y-84342481D01*
X142842481Y-84461015D01*
X142703100Y-84554147D01*
X142548228Y-84618297D01*
X142383816Y-84651000D01*
X142216184Y-84651000D01*
X142051772Y-84618297D01*
X141896900Y-84554147D01*
X141757519Y-84461015D01*
X141638985Y-84342481D01*
X141545853Y-84203100D01*
X141481703Y-84048228D01*
X141449000Y-83883816D01*
X141449000Y-83716184D01*
X141481703Y-83551772D01*
X141545853Y-83396900D01*
X141638985Y-83257519D01*
X141757519Y-83138985D01*
X141896900Y-83045853D01*
X142051772Y-82981703D01*
X142216184Y-82949000D01*
X142383816Y-82949000D01*
X142548228Y-82981703D01*
X142548228Y-82981703D01*
G37*
G36*
X175806564Y-80289389D02*
G01*
X175997833Y-80368615D01*
X175997835Y-80368616D01*
X176169973Y-80483635D01*
X176316365Y-80630027D01*
X176431385Y-80802167D01*
X176510611Y-80993436D01*
X176551000Y-81196484D01*
X176551000Y-81403516D01*
X176510611Y-81606564D01*
X176431385Y-81797833D01*
X176431384Y-81797835D01*
X176316365Y-81969973D01*
X176169973Y-82116365D01*
X175997835Y-82231384D01*
X175997834Y-82231385D01*
X175997833Y-82231385D01*
X175806564Y-82310611D01*
X175603516Y-82351000D01*
X175396484Y-82351000D01*
X175193436Y-82310611D01*
X175002167Y-82231385D01*
X175002166Y-82231385D01*
X175002165Y-82231384D01*
X174830027Y-82116365D01*
X174683635Y-81969973D01*
X174568616Y-81797835D01*
X174568615Y-81797833D01*
X174489389Y-81606564D01*
X174449000Y-81403516D01*
X174449000Y-81196484D01*
X174489389Y-80993436D01*
X174568615Y-80802167D01*
X174683635Y-80630027D01*
X174830027Y-80483635D01*
X175002165Y-80368616D01*
X175002167Y-80368615D01*
X175193436Y-80289389D01*
X175396484Y-80249000D01*
X175603516Y-80249000D01*
X175806564Y-80289389D01*
X175806564Y-80289389D01*
G37*
G36*
X132806564Y-80289389D02*
G01*
X132997833Y-80368615D01*
X132997835Y-80368616D01*
X133169973Y-80483635D01*
X133316365Y-80630027D01*
X133431385Y-80802167D01*
X133510611Y-80993436D01*
X133551000Y-81196484D01*
X133551000Y-81403516D01*
X133510611Y-81606564D01*
X133431385Y-81797833D01*
X133431384Y-81797835D01*
X133316365Y-81969973D01*
X133169973Y-82116365D01*
X132997835Y-82231384D01*
X132997834Y-82231385D01*
X132997833Y-82231385D01*
X132806564Y-82310611D01*
X132603516Y-82351000D01*
X132396484Y-82351000D01*
X132193436Y-82310611D01*
X132002167Y-82231385D01*
X132002166Y-82231385D01*
X132002165Y-82231384D01*
X131830027Y-82116365D01*
X131683635Y-81969973D01*
X131568616Y-81797835D01*
X131568615Y-81797833D01*
X131489389Y-81606564D01*
X131449000Y-81403516D01*
X131449000Y-81196484D01*
X131489389Y-80993436D01*
X131568615Y-80802167D01*
X131683635Y-80630027D01*
X131830027Y-80483635D01*
X132002165Y-80368616D01*
X132002167Y-80368615D01*
X132193436Y-80289389D01*
X132396484Y-80249000D01*
X132603516Y-80249000D01*
X132806564Y-80289389D01*
X132806564Y-80289389D01*
G37*
G36*
X146806564Y-80289389D02*
G01*
X146997833Y-80368615D01*
X146997835Y-80368616D01*
X147169973Y-80483635D01*
X147316365Y-80630027D01*
X147431385Y-80802167D01*
X147510611Y-80993436D01*
X147551000Y-81196484D01*
X147551000Y-81403516D01*
X147510611Y-81606564D01*
X147431385Y-81797833D01*
X147431384Y-81797835D01*
X147316365Y-81969973D01*
X147169973Y-82116365D01*
X146997835Y-82231384D01*
X146997834Y-82231385D01*
X146997833Y-82231385D01*
X146806564Y-82310611D01*
X146603516Y-82351000D01*
X146396484Y-82351000D01*
X146193436Y-82310611D01*
X146002167Y-82231385D01*
X146002166Y-82231385D01*
X146002165Y-82231384D01*
X145830027Y-82116365D01*
X145683635Y-81969973D01*
X145568616Y-81797835D01*
X145568615Y-81797833D01*
X145489389Y-81606564D01*
X145449000Y-81403516D01*
X145449000Y-81196484D01*
X145489389Y-80993436D01*
X145568615Y-80802167D01*
X145683635Y-80630027D01*
X145830027Y-80483635D01*
X146002165Y-80368616D01*
X146002167Y-80368615D01*
X146193436Y-80289389D01*
X146396484Y-80249000D01*
X146603516Y-80249000D01*
X146806564Y-80289389D01*
X146806564Y-80289389D01*
G37*
G36*
X190306564Y-77789389D02*
G01*
X190497833Y-77868615D01*
X190497835Y-77868616D01*
X190618138Y-77949000D01*
X190669973Y-77983635D01*
X190816365Y-78130027D01*
X190931385Y-78302167D01*
X191010611Y-78493436D01*
X191051000Y-78696484D01*
X191051000Y-78903516D01*
X191010611Y-79106564D01*
X190931385Y-79297833D01*
X190931384Y-79297835D01*
X190816365Y-79469973D01*
X190669973Y-79616365D01*
X190497835Y-79731384D01*
X190497834Y-79731385D01*
X190497833Y-79731385D01*
X190306564Y-79810611D01*
X190103516Y-79851000D01*
X189896484Y-79851000D01*
X189693436Y-79810611D01*
X189502167Y-79731385D01*
X189502166Y-79731385D01*
X189502165Y-79731384D01*
X189330027Y-79616365D01*
X189183635Y-79469973D01*
X189068616Y-79297835D01*
X189068615Y-79297833D01*
X188989389Y-79106564D01*
X188949000Y-78903516D01*
X188949000Y-78696484D01*
X188989389Y-78493436D01*
X189068615Y-78302167D01*
X189183635Y-78130027D01*
X189330027Y-77983635D01*
X189381862Y-77949000D01*
X189502165Y-77868616D01*
X189502167Y-77868615D01*
X189693436Y-77789389D01*
X189896484Y-77749000D01*
X190103516Y-77749000D01*
X190306564Y-77789389D01*
X190306564Y-77789389D01*
G37*
G36*
X132806564Y-77789389D02*
G01*
X132997833Y-77868615D01*
X132997835Y-77868616D01*
X133118138Y-77949000D01*
X133169973Y-77983635D01*
X133316365Y-78130027D01*
X133431385Y-78302167D01*
X133510611Y-78493436D01*
X133551000Y-78696484D01*
X133551000Y-78903516D01*
X133510611Y-79106564D01*
X133431385Y-79297833D01*
X133431384Y-79297835D01*
X133316365Y-79469973D01*
X133169973Y-79616365D01*
X132997835Y-79731384D01*
X132997834Y-79731385D01*
X132997833Y-79731385D01*
X132806564Y-79810611D01*
X132603516Y-79851000D01*
X132396484Y-79851000D01*
X132193436Y-79810611D01*
X132002167Y-79731385D01*
X132002166Y-79731385D01*
X132002165Y-79731384D01*
X131830027Y-79616365D01*
X131683635Y-79469973D01*
X131568616Y-79297835D01*
X131568615Y-79297833D01*
X131489389Y-79106564D01*
X131449000Y-78903516D01*
X131449000Y-78696484D01*
X131489389Y-78493436D01*
X131568615Y-78302167D01*
X131683635Y-78130027D01*
X131830027Y-77983635D01*
X131881862Y-77949000D01*
X132002165Y-77868616D01*
X132002167Y-77868615D01*
X132193436Y-77789389D01*
X132396484Y-77749000D01*
X132603516Y-77749000D01*
X132806564Y-77789389D01*
X132806564Y-77789389D01*
G37*
G36*
X118306564Y-77789389D02*
G01*
X118497833Y-77868615D01*
X118497835Y-77868616D01*
X118618138Y-77949000D01*
X118669973Y-77983635D01*
X118816365Y-78130027D01*
X118931385Y-78302167D01*
X119010611Y-78493436D01*
X119051000Y-78696484D01*
X119051000Y-78903516D01*
X119010611Y-79106564D01*
X118931385Y-79297833D01*
X118931384Y-79297835D01*
X118816365Y-79469973D01*
X118669973Y-79616365D01*
X118497835Y-79731384D01*
X118497834Y-79731385D01*
X118497833Y-79731385D01*
X118306564Y-79810611D01*
X118103516Y-79851000D01*
X117896484Y-79851000D01*
X117693436Y-79810611D01*
X117502167Y-79731385D01*
X117502166Y-79731385D01*
X117502165Y-79731384D01*
X117330027Y-79616365D01*
X117183635Y-79469973D01*
X117068616Y-79297835D01*
X117068615Y-79297833D01*
X116989389Y-79106564D01*
X116949000Y-78903516D01*
X116949000Y-78696484D01*
X116989389Y-78493436D01*
X117068615Y-78302167D01*
X117183635Y-78130027D01*
X117330027Y-77983635D01*
X117381862Y-77949000D01*
X117502165Y-77868616D01*
X117502167Y-77868615D01*
X117693436Y-77789389D01*
X117896484Y-77749000D01*
X118103516Y-77749000D01*
X118306564Y-77789389D01*
X118306564Y-77789389D01*
G37*
G36*
X176551000Y-79851000D02*
G01*
X174449000Y-79851000D01*
X174449000Y-77749000D01*
X176551000Y-77749000D01*
X176551000Y-79851000D01*
X176551000Y-79851000D01*
G37*
G36*
X147551000Y-79851000D02*
G01*
X145449000Y-79851000D01*
X145449000Y-77749000D01*
X147551000Y-77749000D01*
X147551000Y-79851000D01*
X147551000Y-79851000D01*
G37*
G36*
X161306564Y-77789389D02*
G01*
X161497833Y-77868615D01*
X161497835Y-77868616D01*
X161618138Y-77949000D01*
X161669973Y-77983635D01*
X161816365Y-78130027D01*
X161931385Y-78302167D01*
X162010611Y-78493436D01*
X162051000Y-78696484D01*
X162051000Y-78903516D01*
X162010611Y-79106564D01*
X161931385Y-79297833D01*
X161931384Y-79297835D01*
X161816365Y-79469973D01*
X161669973Y-79616365D01*
X161497835Y-79731384D01*
X161497834Y-79731385D01*
X161497833Y-79731385D01*
X161306564Y-79810611D01*
X161103516Y-79851000D01*
X160896484Y-79851000D01*
X160693436Y-79810611D01*
X160502167Y-79731385D01*
X160502166Y-79731385D01*
X160502165Y-79731384D01*
X160330027Y-79616365D01*
X160183635Y-79469973D01*
X160068616Y-79297835D01*
X160068615Y-79297833D01*
X159989389Y-79106564D01*
X159949000Y-78903516D01*
X159949000Y-78696484D01*
X159989389Y-78493436D01*
X160068615Y-78302167D01*
X160183635Y-78130027D01*
X160330027Y-77983635D01*
X160381862Y-77949000D01*
X160502165Y-77868616D01*
X160502167Y-77868615D01*
X160693436Y-77789389D01*
X160896484Y-77749000D01*
X161103516Y-77749000D01*
X161306564Y-77789389D01*
X161306564Y-77789389D01*
G37*
G36*
X137248228Y-77981703D02*
G01*
X137403100Y-78045853D01*
X137542481Y-78138985D01*
X137661015Y-78257519D01*
X137754147Y-78396900D01*
X137818297Y-78551772D01*
X137851000Y-78716184D01*
X137851000Y-78883816D01*
X137818297Y-79048228D01*
X137754147Y-79203100D01*
X137661015Y-79342481D01*
X137542481Y-79461015D01*
X137403100Y-79554147D01*
X137248228Y-79618297D01*
X137083816Y-79651000D01*
X136916184Y-79651000D01*
X136751772Y-79618297D01*
X136596900Y-79554147D01*
X136457519Y-79461015D01*
X136338985Y-79342481D01*
X136245853Y-79203100D01*
X136181703Y-79048228D01*
X136149000Y-78883816D01*
X136149000Y-78716184D01*
X136181703Y-78551772D01*
X136245853Y-78396900D01*
X136338985Y-78257519D01*
X136457519Y-78138985D01*
X136596900Y-78045853D01*
X136751772Y-77981703D01*
X136916184Y-77949000D01*
X137083816Y-77949000D01*
X137248228Y-77981703D01*
X137248228Y-77981703D01*
G37*
G36*
X142548228Y-77981703D02*
G01*
X142703100Y-78045853D01*
X142842481Y-78138985D01*
X142961015Y-78257519D01*
X143054147Y-78396900D01*
X143118297Y-78551772D01*
X143151000Y-78716184D01*
X143151000Y-78883816D01*
X143118297Y-79048228D01*
X143054147Y-79203100D01*
X142961015Y-79342481D01*
X142842481Y-79461015D01*
X142703100Y-79554147D01*
X142548228Y-79618297D01*
X142383816Y-79651000D01*
X142216184Y-79651000D01*
X142051772Y-79618297D01*
X141896900Y-79554147D01*
X141757519Y-79461015D01*
X141638985Y-79342481D01*
X141545853Y-79203100D01*
X141481703Y-79048228D01*
X141449000Y-78883816D01*
X141449000Y-78716184D01*
X141481703Y-78551772D01*
X141545853Y-78396900D01*
X141638985Y-78257519D01*
X141757519Y-78138985D01*
X141896900Y-78045853D01*
X142051772Y-77981703D01*
X142216184Y-77949000D01*
X142383816Y-77949000D01*
X142548228Y-77981703D01*
X142548228Y-77981703D01*
G37*
G36*
X155651000Y-76751000D02*
G01*
X152349000Y-76751000D01*
X152349000Y-74649000D01*
X155651000Y-74649000D01*
X155651000Y-76751000D01*
X155651000Y-76751000D01*
G37*
G36*
X184651000Y-76751000D02*
G01*
X181349000Y-76751000D01*
X181349000Y-74649000D01*
X184651000Y-74649000D01*
X184651000Y-76751000D01*
X184651000Y-76751000D01*
G37*
G36*
X126651000Y-76751000D02*
G01*
X123349000Y-76751000D01*
X123349000Y-74649000D01*
X126651000Y-74649000D01*
X126651000Y-76751000D01*
X126651000Y-76751000D01*
G37*
G36*
X114348228Y-74881703D02*
G01*
X114503100Y-74945853D01*
X114642481Y-75038985D01*
X114761015Y-75157519D01*
X114854147Y-75296900D01*
X114918297Y-75451772D01*
X114951000Y-75616184D01*
X114951000Y-75783816D01*
X114918297Y-75948228D01*
X114854147Y-76103100D01*
X114761015Y-76242481D01*
X114642481Y-76361015D01*
X114503100Y-76454147D01*
X114348228Y-76518297D01*
X114183816Y-76551000D01*
X114016184Y-76551000D01*
X113851772Y-76518297D01*
X113696900Y-76454147D01*
X113557519Y-76361015D01*
X113438985Y-76242481D01*
X113345853Y-76103100D01*
X113281703Y-75948228D01*
X113249000Y-75783816D01*
X113249000Y-75616184D01*
X113281703Y-75451772D01*
X113345853Y-75296900D01*
X113438985Y-75157519D01*
X113557519Y-75038985D01*
X113696900Y-74945853D01*
X113851772Y-74881703D01*
X114016184Y-74849000D01*
X114183816Y-74849000D01*
X114348228Y-74881703D01*
X114348228Y-74881703D01*
G37*
G36*
X168748228Y-72981703D02*
G01*
X168903100Y-73045853D01*
X169042481Y-73138985D01*
X169161015Y-73257519D01*
X169254147Y-73396900D01*
X169318297Y-73551772D01*
X169351000Y-73716184D01*
X169351000Y-73883816D01*
X169318297Y-74048228D01*
X169254147Y-74203100D01*
X169161015Y-74342481D01*
X169042481Y-74461015D01*
X168903100Y-74554147D01*
X168748228Y-74618297D01*
X168583816Y-74651000D01*
X168416184Y-74651000D01*
X168251772Y-74618297D01*
X168096900Y-74554147D01*
X167957519Y-74461015D01*
X167838985Y-74342481D01*
X167745853Y-74203100D01*
X167681703Y-74048228D01*
X167649000Y-73883816D01*
X167649000Y-73716184D01*
X167681703Y-73551772D01*
X167745853Y-73396900D01*
X167838985Y-73257519D01*
X167957519Y-73138985D01*
X168096900Y-73045853D01*
X168251772Y-72981703D01*
X168416184Y-72949000D01*
X168583816Y-72949000D01*
X168748228Y-72981703D01*
X168748228Y-72981703D01*
G37*
G36*
X163789890Y-71574017D02*
G01*
X163896791Y-71618297D01*
X163908364Y-71623091D01*
X164014988Y-71694335D01*
X164105665Y-71785012D01*
X164176909Y-71891636D01*
X164225983Y-72010110D01*
X164251000Y-72135882D01*
X164251000Y-72264118D01*
X164225983Y-72389890D01*
X164176909Y-72508364D01*
X164105665Y-72614988D01*
X164014988Y-72705665D01*
X163908364Y-72776909D01*
X163908363Y-72776910D01*
X163908362Y-72776910D01*
X163789890Y-72825983D01*
X163664119Y-72851000D01*
X163535881Y-72851000D01*
X163410110Y-72825983D01*
X163291638Y-72776910D01*
X163291637Y-72776910D01*
X163291636Y-72776909D01*
X163185012Y-72705665D01*
X163094335Y-72614988D01*
X163023091Y-72508364D01*
X162974017Y-72389890D01*
X162949000Y-72264118D01*
X162949000Y-72135882D01*
X162974017Y-72010110D01*
X163023091Y-71891636D01*
X163094335Y-71785012D01*
X163185012Y-71694335D01*
X163291636Y-71623091D01*
X163303210Y-71618297D01*
X163410110Y-71574017D01*
X163535881Y-71549000D01*
X163664119Y-71549000D01*
X163789890Y-71574017D01*
X163789890Y-71574017D01*
G37*
G36*
X119448228Y-69981703D02*
G01*
X119603100Y-70045853D01*
X119742481Y-70138985D01*
X119861015Y-70257519D01*
X119954147Y-70396900D01*
X120018297Y-70551772D01*
X120051000Y-70716184D01*
X120051000Y-70883816D01*
X120018297Y-71048228D01*
X119954147Y-71203100D01*
X119861015Y-71342481D01*
X119742481Y-71461015D01*
X119603100Y-71554147D01*
X119448228Y-71618297D01*
X119283816Y-71651000D01*
X119116184Y-71651000D01*
X118951772Y-71618297D01*
X118796900Y-71554147D01*
X118657519Y-71461015D01*
X118538985Y-71342481D01*
X118445853Y-71203100D01*
X118381703Y-71048228D01*
X118349000Y-70883816D01*
X118349000Y-70716184D01*
X118381703Y-70551772D01*
X118445853Y-70396900D01*
X118538985Y-70257519D01*
X118657519Y-70138985D01*
X118796900Y-70045853D01*
X118951772Y-69981703D01*
X119116184Y-69949000D01*
X119283816Y-69949000D01*
X119448228Y-69981703D01*
X119448228Y-69981703D01*
G37*
G36*
X129526823Y-69961313D02*
G01*
X129687242Y-70009976D01*
X129754361Y-70045852D01*
X129835078Y-70088996D01*
X129964659Y-70195341D01*
X130071004Y-70324922D01*
X130071005Y-70324924D01*
X130150024Y-70472758D01*
X130198687Y-70633177D01*
X130215117Y-70800000D01*
X130198687Y-70966823D01*
X130150024Y-71127242D01*
X130109477Y-71203100D01*
X130071004Y-71275078D01*
X129964659Y-71404659D01*
X129835078Y-71511004D01*
X129835076Y-71511005D01*
X129687242Y-71590024D01*
X129526823Y-71638687D01*
X129401804Y-71651000D01*
X129318196Y-71651000D01*
X129193177Y-71638687D01*
X129032758Y-71590024D01*
X128884924Y-71511005D01*
X128884922Y-71511004D01*
X128755341Y-71404659D01*
X128648996Y-71275078D01*
X128610523Y-71203100D01*
X128569976Y-71127242D01*
X128521313Y-70966823D01*
X128504883Y-70800000D01*
X128521313Y-70633177D01*
X128569976Y-70472758D01*
X128648995Y-70324924D01*
X128648996Y-70324922D01*
X128755341Y-70195341D01*
X128884922Y-70088996D01*
X128965639Y-70045852D01*
X129032758Y-70009976D01*
X129193177Y-69961313D01*
X129318196Y-69949000D01*
X129401804Y-69949000D01*
X129526823Y-69961313D01*
X129526823Y-69961313D01*
G37*
G36*
X163789890Y-69574017D02*
G01*
X163908364Y-69623091D01*
X164014988Y-69694335D01*
X164105665Y-69785012D01*
X164176910Y-69891638D01*
X164225983Y-70010110D01*
X164251000Y-70135881D01*
X164251000Y-70264119D01*
X164225983Y-70389890D01*
X164191657Y-70472761D01*
X164176909Y-70508364D01*
X164105665Y-70614988D01*
X164014988Y-70705665D01*
X163908364Y-70776909D01*
X163908363Y-70776910D01*
X163908362Y-70776910D01*
X163789890Y-70825983D01*
X163664119Y-70851000D01*
X163535881Y-70851000D01*
X163410110Y-70825983D01*
X163291638Y-70776910D01*
X163291637Y-70776910D01*
X163291636Y-70776909D01*
X163185012Y-70705665D01*
X163094335Y-70614988D01*
X163023091Y-70508364D01*
X163008344Y-70472761D01*
X162974017Y-70389890D01*
X162949000Y-70264119D01*
X162949000Y-70135881D01*
X162974017Y-70010110D01*
X163023090Y-69891638D01*
X163094335Y-69785012D01*
X163185012Y-69694335D01*
X163291636Y-69623091D01*
X163410110Y-69574017D01*
X163535881Y-69549000D01*
X163664119Y-69549000D01*
X163789890Y-69574017D01*
X163789890Y-69574017D01*
G37*
G36*
X188320443Y-67705519D02*
G01*
X188386627Y-67712037D01*
X188556466Y-67763557D01*
X188712991Y-67847222D01*
X188748729Y-67876552D01*
X188850186Y-67959814D01*
X188933448Y-68061271D01*
X188962778Y-68097009D01*
X189046443Y-68253534D01*
X189097963Y-68423373D01*
X189115359Y-68600000D01*
X189097963Y-68776627D01*
X189046443Y-68946466D01*
X188962778Y-69102991D01*
X188933448Y-69138729D01*
X188850186Y-69240186D01*
X188748729Y-69323448D01*
X188712991Y-69352778D01*
X188556466Y-69436443D01*
X188386627Y-69487963D01*
X188320443Y-69494481D01*
X188254260Y-69501000D01*
X188165740Y-69501000D01*
X188099557Y-69494481D01*
X188033373Y-69487963D01*
X187863534Y-69436443D01*
X187707009Y-69352778D01*
X187671271Y-69323448D01*
X187569814Y-69240186D01*
X187486552Y-69138729D01*
X187457222Y-69102991D01*
X187373557Y-68946466D01*
X187322037Y-68776627D01*
X187304641Y-68600000D01*
X187322037Y-68423373D01*
X187373557Y-68253534D01*
X187457222Y-68097009D01*
X187486552Y-68061271D01*
X187569814Y-67959814D01*
X187671271Y-67876552D01*
X187707009Y-67847222D01*
X187863534Y-67763557D01*
X188033373Y-67712037D01*
X188099557Y-67705519D01*
X188165740Y-67699000D01*
X188254260Y-67699000D01*
X188320443Y-67705519D01*
X188320443Y-67705519D01*
G37*
G36*
X191651000Y-69501000D02*
G01*
X189849000Y-69501000D01*
X189849000Y-67699000D01*
X191651000Y-67699000D01*
X191651000Y-69501000D01*
X191651000Y-69501000D01*
G37*
G36*
X188320442Y-65165518D02*
G01*
X188386627Y-65172037D01*
X188556466Y-65223557D01*
X188712991Y-65307222D01*
X188748729Y-65336552D01*
X188850186Y-65419814D01*
X188913450Y-65496903D01*
X188962778Y-65557009D01*
X189046443Y-65713534D01*
X189097963Y-65883373D01*
X189115359Y-66060000D01*
X189097963Y-66236627D01*
X189046443Y-66406466D01*
X188962778Y-66562991D01*
X188933448Y-66598729D01*
X188850186Y-66700186D01*
X188748729Y-66783448D01*
X188712991Y-66812778D01*
X188556466Y-66896443D01*
X188386627Y-66947963D01*
X188320442Y-66954482D01*
X188254260Y-66961000D01*
X188165740Y-66961000D01*
X188099558Y-66954482D01*
X188033373Y-66947963D01*
X187863534Y-66896443D01*
X187707009Y-66812778D01*
X187671271Y-66783448D01*
X187569814Y-66700186D01*
X187486552Y-66598729D01*
X187457222Y-66562991D01*
X187373557Y-66406466D01*
X187322037Y-66236627D01*
X187304641Y-66060000D01*
X187322037Y-65883373D01*
X187373557Y-65713534D01*
X187457222Y-65557009D01*
X187506550Y-65496903D01*
X187569814Y-65419814D01*
X187671271Y-65336552D01*
X187707009Y-65307222D01*
X187863534Y-65223557D01*
X188033373Y-65172037D01*
X188099558Y-65165518D01*
X188165740Y-65159000D01*
X188254260Y-65159000D01*
X188320442Y-65165518D01*
X188320442Y-65165518D01*
G37*
G36*
X190860442Y-65165518D02*
G01*
X190926627Y-65172037D01*
X191096466Y-65223557D01*
X191252991Y-65307222D01*
X191288729Y-65336552D01*
X191390186Y-65419814D01*
X191453450Y-65496903D01*
X191502778Y-65557009D01*
X191586443Y-65713534D01*
X191637963Y-65883373D01*
X191655359Y-66060000D01*
X191637963Y-66236627D01*
X191586443Y-66406466D01*
X191502778Y-66562991D01*
X191473448Y-66598729D01*
X191390186Y-66700186D01*
X191288729Y-66783448D01*
X191252991Y-66812778D01*
X191096466Y-66896443D01*
X190926627Y-66947963D01*
X190860442Y-66954482D01*
X190794260Y-66961000D01*
X190705740Y-66961000D01*
X190639558Y-66954482D01*
X190573373Y-66947963D01*
X190403534Y-66896443D01*
X190247009Y-66812778D01*
X190211271Y-66783448D01*
X190109814Y-66700186D01*
X190026552Y-66598729D01*
X189997222Y-66562991D01*
X189913557Y-66406466D01*
X189862037Y-66236627D01*
X189844641Y-66060000D01*
X189862037Y-65883373D01*
X189913557Y-65713534D01*
X189997222Y-65557009D01*
X190046550Y-65496903D01*
X190109814Y-65419814D01*
X190211271Y-65336552D01*
X190247009Y-65307222D01*
X190403534Y-65223557D01*
X190573373Y-65172037D01*
X190639558Y-65165518D01*
X190705740Y-65159000D01*
X190794260Y-65159000D01*
X190860442Y-65165518D01*
X190860442Y-65165518D01*
G37*
G36*
X153748228Y-65081703D02*
G01*
X153903100Y-65145853D01*
X154042481Y-65238985D01*
X154161015Y-65357519D01*
X154254147Y-65496900D01*
X154318297Y-65651772D01*
X154351000Y-65816184D01*
X154351000Y-65983816D01*
X154318297Y-66148228D01*
X154254147Y-66303100D01*
X154161015Y-66442481D01*
X154042481Y-66561015D01*
X153903100Y-66654147D01*
X153748228Y-66718297D01*
X153583816Y-66751000D01*
X153416184Y-66751000D01*
X153251772Y-66718297D01*
X153096900Y-66654147D01*
X152957519Y-66561015D01*
X152838985Y-66442481D01*
X152745853Y-66303100D01*
X152681703Y-66148228D01*
X152649000Y-65983816D01*
X152649000Y-65816184D01*
X152681703Y-65651772D01*
X152745853Y-65496900D01*
X152838985Y-65357519D01*
X152957519Y-65238985D01*
X153096900Y-65145853D01*
X153251772Y-65081703D01*
X153416184Y-65049000D01*
X153583816Y-65049000D01*
X153748228Y-65081703D01*
X153748228Y-65081703D01*
G37*
G36*
X158748228Y-65081703D02*
G01*
X158903100Y-65145853D01*
X159042481Y-65238985D01*
X159161015Y-65357519D01*
X159254147Y-65496900D01*
X159318297Y-65651772D01*
X159351000Y-65816184D01*
X159351000Y-65983816D01*
X159318297Y-66148228D01*
X159254147Y-66303100D01*
X159161015Y-66442481D01*
X159042481Y-66561015D01*
X158903100Y-66654147D01*
X158748228Y-66718297D01*
X158583816Y-66751000D01*
X158416184Y-66751000D01*
X158251772Y-66718297D01*
X158096900Y-66654147D01*
X157957519Y-66561015D01*
X157838985Y-66442481D01*
X157745853Y-66303100D01*
X157681703Y-66148228D01*
X157649000Y-65983816D01*
X157649000Y-65816184D01*
X157681703Y-65651772D01*
X157745853Y-65496900D01*
X157838985Y-65357519D01*
X157957519Y-65238985D01*
X158096900Y-65145853D01*
X158251772Y-65081703D01*
X158416184Y-65049000D01*
X158583816Y-65049000D01*
X158748228Y-65081703D01*
X158748228Y-65081703D01*
G37*
G36*
X132302210Y-64900780D02*
G01*
X130699070Y-64900780D01*
X130699070Y-63899620D01*
X132302210Y-63899620D01*
X132302210Y-64900780D01*
X132302210Y-64900780D01*
G37*
G36*
X137300930Y-64900780D02*
G01*
X135697790Y-64900780D01*
X135697790Y-63899620D01*
X137300930Y-63899620D01*
X137300930Y-64900780D01*
X137300930Y-64900780D01*
G37*
G36*
X176300930Y-64900780D02*
G01*
X174697790Y-64900780D01*
X174697790Y-63899620D01*
X176300930Y-63899620D01*
X176300930Y-64900780D01*
X176300930Y-64900780D01*
G37*
G36*
X171302210Y-64900780D02*
G01*
X169699070Y-64900780D01*
X169699070Y-63899620D01*
X171302210Y-63899620D01*
X171302210Y-64900780D01*
X171302210Y-64900780D01*
G37*
G36*
X190860442Y-62625518D02*
G01*
X190926627Y-62632037D01*
X191096466Y-62683557D01*
X191252991Y-62767222D01*
X191288729Y-62796552D01*
X191390186Y-62879814D01*
X191473448Y-62981271D01*
X191502778Y-63017009D01*
X191586443Y-63173534D01*
X191637963Y-63343373D01*
X191655359Y-63520000D01*
X191637963Y-63696627D01*
X191586443Y-63866466D01*
X191502778Y-64022991D01*
X191473448Y-64058729D01*
X191390186Y-64160186D01*
X191288729Y-64243448D01*
X191252991Y-64272778D01*
X191096466Y-64356443D01*
X190926627Y-64407963D01*
X190860443Y-64414481D01*
X190794260Y-64421000D01*
X190705740Y-64421000D01*
X190639557Y-64414481D01*
X190573373Y-64407963D01*
X190403534Y-64356443D01*
X190247009Y-64272778D01*
X190211271Y-64243448D01*
X190109814Y-64160186D01*
X190026552Y-64058729D01*
X189997222Y-64022991D01*
X189913557Y-63866466D01*
X189862037Y-63696627D01*
X189844641Y-63520000D01*
X189862037Y-63343373D01*
X189913557Y-63173534D01*
X189997222Y-63017009D01*
X190026552Y-62981271D01*
X190109814Y-62879814D01*
X190211271Y-62796552D01*
X190247009Y-62767222D01*
X190403534Y-62683557D01*
X190573373Y-62632037D01*
X190639558Y-62625518D01*
X190705740Y-62619000D01*
X190794260Y-62619000D01*
X190860442Y-62625518D01*
X190860442Y-62625518D01*
G37*
G36*
X188320442Y-62625518D02*
G01*
X188386627Y-62632037D01*
X188556466Y-62683557D01*
X188712991Y-62767222D01*
X188748729Y-62796552D01*
X188850186Y-62879814D01*
X188933448Y-62981271D01*
X188962778Y-63017009D01*
X189046443Y-63173534D01*
X189097963Y-63343373D01*
X189115359Y-63520000D01*
X189097963Y-63696627D01*
X189046443Y-63866466D01*
X188962778Y-64022991D01*
X188933448Y-64058729D01*
X188850186Y-64160186D01*
X188748729Y-64243448D01*
X188712991Y-64272778D01*
X188556466Y-64356443D01*
X188386627Y-64407963D01*
X188320443Y-64414481D01*
X188254260Y-64421000D01*
X188165740Y-64421000D01*
X188099557Y-64414481D01*
X188033373Y-64407963D01*
X187863534Y-64356443D01*
X187707009Y-64272778D01*
X187671271Y-64243448D01*
X187569814Y-64160186D01*
X187486552Y-64058729D01*
X187457222Y-64022991D01*
X187373557Y-63866466D01*
X187322037Y-63696627D01*
X187304641Y-63520000D01*
X187322037Y-63343373D01*
X187373557Y-63173534D01*
X187457222Y-63017009D01*
X187486552Y-62981271D01*
X187569814Y-62879814D01*
X187671271Y-62796552D01*
X187707009Y-62767222D01*
X187863534Y-62683557D01*
X188033373Y-62632037D01*
X188099558Y-62625518D01*
X188165740Y-62619000D01*
X188254260Y-62619000D01*
X188320442Y-62625518D01*
X188320442Y-62625518D01*
G37*
G36*
X153748228Y-61281703D02*
G01*
X153903100Y-61345853D01*
X154042481Y-61438985D01*
X154161015Y-61557519D01*
X154254147Y-61696900D01*
X154318297Y-61851772D01*
X154351000Y-62016184D01*
X154351000Y-62183816D01*
X154318297Y-62348228D01*
X154254147Y-62503100D01*
X154161015Y-62642481D01*
X154042481Y-62761015D01*
X153903100Y-62854147D01*
X153748228Y-62918297D01*
X153583816Y-62951000D01*
X153416184Y-62951000D01*
X153251772Y-62918297D01*
X153096900Y-62854147D01*
X152957519Y-62761015D01*
X152838985Y-62642481D01*
X152745853Y-62503100D01*
X152681703Y-62348228D01*
X152649000Y-62183816D01*
X152649000Y-62016184D01*
X152681703Y-61851772D01*
X152745853Y-61696900D01*
X152838985Y-61557519D01*
X152957519Y-61438985D01*
X153096900Y-61345853D01*
X153251772Y-61281703D01*
X153416184Y-61249000D01*
X153583816Y-61249000D01*
X153748228Y-61281703D01*
X153748228Y-61281703D01*
G37*
G36*
X158748228Y-61281703D02*
G01*
X158903100Y-61345853D01*
X159042481Y-61438985D01*
X159161015Y-61557519D01*
X159254147Y-61696900D01*
X159318297Y-61851772D01*
X159351000Y-62016184D01*
X159351000Y-62183816D01*
X159318297Y-62348228D01*
X159254147Y-62503100D01*
X159161015Y-62642481D01*
X159042481Y-62761015D01*
X158903100Y-62854147D01*
X158748228Y-62918297D01*
X158583816Y-62951000D01*
X158416184Y-62951000D01*
X158251772Y-62918297D01*
X158096900Y-62854147D01*
X157957519Y-62761015D01*
X157838985Y-62642481D01*
X157745853Y-62503100D01*
X157681703Y-62348228D01*
X157649000Y-62183816D01*
X157649000Y-62016184D01*
X157681703Y-61851772D01*
X157745853Y-61696900D01*
X157838985Y-61557519D01*
X157957519Y-61438985D01*
X158096900Y-61345853D01*
X158251772Y-61281703D01*
X158416184Y-61249000D01*
X158583816Y-61249000D01*
X158748228Y-61281703D01*
X158748228Y-61281703D01*
G37*
G36*
X126248228Y-60981703D02*
G01*
X126403100Y-61045853D01*
X126542481Y-61138985D01*
X126661015Y-61257519D01*
X126754147Y-61396900D01*
X126818297Y-61551772D01*
X126851000Y-61716184D01*
X126851000Y-61883816D01*
X126818297Y-62048228D01*
X126754147Y-62203100D01*
X126661015Y-62342481D01*
X126542481Y-62461015D01*
X126403100Y-62554147D01*
X126248228Y-62618297D01*
X126083816Y-62651000D01*
X125916184Y-62651000D01*
X125751772Y-62618297D01*
X125596900Y-62554147D01*
X125457519Y-62461015D01*
X125338985Y-62342481D01*
X125245853Y-62203100D01*
X125181703Y-62048228D01*
X125149000Y-61883816D01*
X125149000Y-61716184D01*
X125181703Y-61551772D01*
X125245853Y-61396900D01*
X125338985Y-61257519D01*
X125457519Y-61138985D01*
X125596900Y-61045853D01*
X125751772Y-60981703D01*
X125916184Y-60949000D01*
X126083816Y-60949000D01*
X126248228Y-60981703D01*
X126248228Y-60981703D01*
G37*
G36*
X121248228Y-60981703D02*
G01*
X121403100Y-61045853D01*
X121542481Y-61138985D01*
X121661015Y-61257519D01*
X121754147Y-61396900D01*
X121818297Y-61551772D01*
X121851000Y-61716184D01*
X121851000Y-61883816D01*
X121818297Y-62048228D01*
X121754147Y-62203100D01*
X121661015Y-62342481D01*
X121542481Y-62461015D01*
X121403100Y-62554147D01*
X121248228Y-62618297D01*
X121083816Y-62651000D01*
X120916184Y-62651000D01*
X120751772Y-62618297D01*
X120596900Y-62554147D01*
X120457519Y-62461015D01*
X120338985Y-62342481D01*
X120245853Y-62203100D01*
X120181703Y-62048228D01*
X120149000Y-61883816D01*
X120149000Y-61716184D01*
X120181703Y-61551772D01*
X120245853Y-61396900D01*
X120338985Y-61257519D01*
X120457519Y-61138985D01*
X120596900Y-61045853D01*
X120751772Y-60981703D01*
X120916184Y-60949000D01*
X121083816Y-60949000D01*
X121248228Y-60981703D01*
X121248228Y-60981703D01*
G37*
G36*
X171302210Y-61700380D02*
G01*
X169699070Y-61700380D01*
X169699070Y-60699220D01*
X171302210Y-60699220D01*
X171302210Y-61700380D01*
X171302210Y-61700380D01*
G37*
G36*
X176300930Y-61700380D02*
G01*
X174697790Y-61700380D01*
X174697790Y-60699220D01*
X176300930Y-60699220D01*
X176300930Y-61700380D01*
X176300930Y-61700380D01*
G37*
G36*
X137300930Y-61700380D02*
G01*
X135697790Y-61700380D01*
X135697790Y-60699220D01*
X137300930Y-60699220D01*
X137300930Y-61700380D01*
X137300930Y-61700380D01*
G37*
G36*
X132302210Y-61700380D02*
G01*
X130699070Y-61700380D01*
X130699070Y-60699220D01*
X132302210Y-60699220D01*
X132302210Y-61700380D01*
X132302210Y-61700380D01*
G37*
G36*
X156806564Y-57389389D02*
G01*
X156997833Y-57468615D01*
X156997835Y-57468616D01*
X157118138Y-57549000D01*
X157169973Y-57583635D01*
X157316365Y-57730027D01*
X157431385Y-57902167D01*
X157510611Y-58093436D01*
X157551000Y-58296484D01*
X157551000Y-58503516D01*
X157510611Y-58706564D01*
X157431385Y-58897833D01*
X157431384Y-58897835D01*
X157316365Y-59069973D01*
X157169973Y-59216365D01*
X156997835Y-59331384D01*
X156997834Y-59331385D01*
X156997833Y-59331385D01*
X156806564Y-59410611D01*
X156603516Y-59451000D01*
X156396484Y-59451000D01*
X156193436Y-59410611D01*
X156002167Y-59331385D01*
X156002166Y-59331385D01*
X156002165Y-59331384D01*
X155830027Y-59216365D01*
X155683635Y-59069973D01*
X155568616Y-58897835D01*
X155568615Y-58897833D01*
X155489389Y-58706564D01*
X155449000Y-58503516D01*
X155449000Y-58296484D01*
X155489389Y-58093436D01*
X155568615Y-57902167D01*
X155683635Y-57730027D01*
X155830027Y-57583635D01*
X155881862Y-57549000D01*
X156002165Y-57468616D01*
X156002167Y-57468615D01*
X156193436Y-57389389D01*
X156396484Y-57349000D01*
X156603516Y-57349000D01*
X156806564Y-57389389D01*
X156806564Y-57389389D01*
G37*
G36*
X152551000Y-59451000D02*
G01*
X150449000Y-59451000D01*
X150449000Y-57349000D01*
X152551000Y-57349000D01*
X152551000Y-59451000D01*
X152551000Y-59451000D01*
G37*
G36*
X154306564Y-57389389D02*
G01*
X154497833Y-57468615D01*
X154497835Y-57468616D01*
X154618138Y-57549000D01*
X154669973Y-57583635D01*
X154816365Y-57730027D01*
X154931385Y-57902167D01*
X155010611Y-58093436D01*
X155051000Y-58296484D01*
X155051000Y-58503516D01*
X155010611Y-58706564D01*
X154931385Y-58897833D01*
X154931384Y-58897835D01*
X154816365Y-59069973D01*
X154669973Y-59216365D01*
X154497835Y-59331384D01*
X154497834Y-59331385D01*
X154497833Y-59331385D01*
X154306564Y-59410611D01*
X154103516Y-59451000D01*
X153896484Y-59451000D01*
X153693436Y-59410611D01*
X153502167Y-59331385D01*
X153502166Y-59331385D01*
X153502165Y-59331384D01*
X153330027Y-59216365D01*
X153183635Y-59069973D01*
X153068616Y-58897835D01*
X153068615Y-58897833D01*
X152989389Y-58706564D01*
X152949000Y-58503516D01*
X152949000Y-58296484D01*
X152989389Y-58093436D01*
X153068615Y-57902167D01*
X153183635Y-57730027D01*
X153330027Y-57583635D01*
X153381862Y-57549000D01*
X153502165Y-57468616D01*
X153502167Y-57468615D01*
X153693436Y-57389389D01*
X153896484Y-57349000D01*
X154103516Y-57349000D01*
X154306564Y-57389389D01*
X154306564Y-57389389D01*
G37*
G36*
X171248228Y-57581703D02*
G01*
X171403100Y-57645853D01*
X171542481Y-57738985D01*
X171661015Y-57857519D01*
X171754147Y-57996900D01*
X171818297Y-58151772D01*
X171851000Y-58316184D01*
X171851000Y-58483816D01*
X171818297Y-58648228D01*
X171754147Y-58803100D01*
X171661015Y-58942481D01*
X171542481Y-59061015D01*
X171403100Y-59154147D01*
X171248228Y-59218297D01*
X171083816Y-59251000D01*
X170916184Y-59251000D01*
X170751772Y-59218297D01*
X170596900Y-59154147D01*
X170457519Y-59061015D01*
X170338985Y-58942481D01*
X170245853Y-58803100D01*
X170181703Y-58648228D01*
X170149000Y-58483816D01*
X170149000Y-58316184D01*
X170181703Y-58151772D01*
X170245853Y-57996900D01*
X170338985Y-57857519D01*
X170457519Y-57738985D01*
X170596900Y-57645853D01*
X170751772Y-57581703D01*
X170916184Y-57549000D01*
X171083816Y-57549000D01*
X171248228Y-57581703D01*
X171248228Y-57581703D01*
G37*
G36*
X164548228Y-57581703D02*
G01*
X164703100Y-57645853D01*
X164842481Y-57738985D01*
X164961015Y-57857519D01*
X165054147Y-57996900D01*
X165118297Y-58151772D01*
X165151000Y-58316184D01*
X165151000Y-58483816D01*
X165118297Y-58648228D01*
X165054147Y-58803100D01*
X164961015Y-58942481D01*
X164842481Y-59061015D01*
X164703100Y-59154147D01*
X164548228Y-59218297D01*
X164383816Y-59251000D01*
X164216184Y-59251000D01*
X164051772Y-59218297D01*
X163896900Y-59154147D01*
X163757519Y-59061015D01*
X163638985Y-58942481D01*
X163545853Y-58803100D01*
X163481703Y-58648228D01*
X163449000Y-58483816D01*
X163449000Y-58316184D01*
X163481703Y-58151772D01*
X163545853Y-57996900D01*
X163638985Y-57857519D01*
X163757519Y-57738985D01*
X163896900Y-57645853D01*
X164051772Y-57581703D01*
X164216184Y-57549000D01*
X164383816Y-57549000D01*
X164548228Y-57581703D01*
X164548228Y-57581703D01*
G37*
G36*
X184651000Y-57551000D02*
G01*
X181349000Y-57551000D01*
X181349000Y-55449000D01*
X184651000Y-55449000D01*
X184651000Y-57551000D01*
X184651000Y-57551000D01*
G37*
G36*
X126651000Y-57551000D02*
G01*
X123349000Y-57551000D01*
X123349000Y-55449000D01*
X126651000Y-55449000D01*
X126651000Y-57551000D01*
X126651000Y-57551000D01*
G37*
G36*
X190306564Y-52389389D02*
G01*
X190497833Y-52468615D01*
X190497835Y-52468616D01*
X190621131Y-52551000D01*
X190669973Y-52583635D01*
X190816365Y-52730027D01*
X190931385Y-52902167D01*
X191010611Y-53093436D01*
X191051000Y-53296484D01*
X191051000Y-53503516D01*
X191010611Y-53706564D01*
X190931385Y-53897833D01*
X190931384Y-53897835D01*
X190816365Y-54069973D01*
X190669973Y-54216365D01*
X190497835Y-54331384D01*
X190497834Y-54331385D01*
X190497833Y-54331385D01*
X190306564Y-54410611D01*
X190103516Y-54451000D01*
X189896484Y-54451000D01*
X189693436Y-54410611D01*
X189502167Y-54331385D01*
X189502166Y-54331385D01*
X189502165Y-54331384D01*
X189330027Y-54216365D01*
X189183635Y-54069973D01*
X189068616Y-53897835D01*
X189068615Y-53897833D01*
X188989389Y-53706564D01*
X188949000Y-53503516D01*
X188949000Y-53296484D01*
X188989389Y-53093436D01*
X189068615Y-52902167D01*
X189183635Y-52730027D01*
X189330027Y-52583635D01*
X189378869Y-52551000D01*
X189502165Y-52468616D01*
X189502167Y-52468615D01*
X189693436Y-52389389D01*
X189896484Y-52349000D01*
X190103516Y-52349000D01*
X190306564Y-52389389D01*
X190306564Y-52389389D01*
G37*
G36*
X117806564Y-52389389D02*
G01*
X117997833Y-52468615D01*
X117997835Y-52468616D01*
X118121131Y-52551000D01*
X118169973Y-52583635D01*
X118316365Y-52730027D01*
X118431385Y-52902167D01*
X118510611Y-53093436D01*
X118551000Y-53296484D01*
X118551000Y-53503516D01*
X118510611Y-53706564D01*
X118431385Y-53897833D01*
X118431384Y-53897835D01*
X118316365Y-54069973D01*
X118169973Y-54216365D01*
X117997835Y-54331384D01*
X117997834Y-54331385D01*
X117997833Y-54331385D01*
X117806564Y-54410611D01*
X117603516Y-54451000D01*
X117396484Y-54451000D01*
X117193436Y-54410611D01*
X117002167Y-54331385D01*
X117002166Y-54331385D01*
X117002165Y-54331384D01*
X116830027Y-54216365D01*
X116683635Y-54069973D01*
X116568616Y-53897835D01*
X116568615Y-53897833D01*
X116489389Y-53706564D01*
X116449000Y-53503516D01*
X116449000Y-53296484D01*
X116489389Y-53093436D01*
X116568615Y-52902167D01*
X116683635Y-52730027D01*
X116830027Y-52583635D01*
X116878869Y-52551000D01*
X117002165Y-52468616D01*
X117002167Y-52468615D01*
X117193436Y-52389389D01*
X117396484Y-52349000D01*
X117603516Y-52349000D01*
X117806564Y-52389389D01*
X117806564Y-52389389D01*
G37*
G36*
X175806564Y-52389389D02*
G01*
X175997833Y-52468615D01*
X175997835Y-52468616D01*
X176121131Y-52551000D01*
X176169973Y-52583635D01*
X176316365Y-52730027D01*
X176431385Y-52902167D01*
X176510611Y-53093436D01*
X176551000Y-53296484D01*
X176551000Y-53503516D01*
X176510611Y-53706564D01*
X176431385Y-53897833D01*
X176431384Y-53897835D01*
X176316365Y-54069973D01*
X176169973Y-54216365D01*
X175997835Y-54331384D01*
X175997834Y-54331385D01*
X175997833Y-54331385D01*
X175806564Y-54410611D01*
X175603516Y-54451000D01*
X175396484Y-54451000D01*
X175193436Y-54410611D01*
X175002167Y-54331385D01*
X175002166Y-54331385D01*
X175002165Y-54331384D01*
X174830027Y-54216365D01*
X174683635Y-54069973D01*
X174568616Y-53897835D01*
X174568615Y-53897833D01*
X174489389Y-53706564D01*
X174449000Y-53503516D01*
X174449000Y-53296484D01*
X174489389Y-53093436D01*
X174568615Y-52902167D01*
X174683635Y-52730027D01*
X174830027Y-52583635D01*
X174878869Y-52551000D01*
X175002165Y-52468616D01*
X175002167Y-52468615D01*
X175193436Y-52389389D01*
X175396484Y-52349000D01*
X175603516Y-52349000D01*
X175806564Y-52389389D01*
X175806564Y-52389389D01*
G37*
G36*
X132306564Y-52389389D02*
G01*
X132497833Y-52468615D01*
X132497835Y-52468616D01*
X132621131Y-52551000D01*
X132669973Y-52583635D01*
X132816365Y-52730027D01*
X132931385Y-52902167D01*
X133010611Y-53093436D01*
X133051000Y-53296484D01*
X133051000Y-53503516D01*
X133010611Y-53706564D01*
X132931385Y-53897833D01*
X132931384Y-53897835D01*
X132816365Y-54069973D01*
X132669973Y-54216365D01*
X132497835Y-54331384D01*
X132497834Y-54331385D01*
X132497833Y-54331385D01*
X132306564Y-54410611D01*
X132103516Y-54451000D01*
X131896484Y-54451000D01*
X131693436Y-54410611D01*
X131502167Y-54331385D01*
X131502166Y-54331385D01*
X131502165Y-54331384D01*
X131330027Y-54216365D01*
X131183635Y-54069973D01*
X131068616Y-53897835D01*
X131068615Y-53897833D01*
X130989389Y-53706564D01*
X130949000Y-53503516D01*
X130949000Y-53296484D01*
X130989389Y-53093436D01*
X131068615Y-52902167D01*
X131183635Y-52730027D01*
X131330027Y-52583635D01*
X131378869Y-52551000D01*
X131502165Y-52468616D01*
X131502167Y-52468615D01*
X131693436Y-52389389D01*
X131896484Y-52349000D01*
X132103516Y-52349000D01*
X132306564Y-52389389D01*
X132306564Y-52389389D01*
G37*
G36*
X137233642Y-52029781D02*
G01*
X137379414Y-52090162D01*
X137379416Y-52090163D01*
X137510608Y-52177822D01*
X137622178Y-52289392D01*
X137662006Y-52349000D01*
X137709838Y-52420586D01*
X137770219Y-52566358D01*
X137801000Y-52721107D01*
X137801000Y-52878893D01*
X137770219Y-53033642D01*
X137745451Y-53093436D01*
X137709837Y-53179416D01*
X137622178Y-53310608D01*
X137510608Y-53422178D01*
X137379416Y-53509837D01*
X137379415Y-53509838D01*
X137379414Y-53509838D01*
X137233642Y-53570219D01*
X137078893Y-53601000D01*
X136921107Y-53601000D01*
X136766358Y-53570219D01*
X136620586Y-53509838D01*
X136620585Y-53509838D01*
X136620584Y-53509837D01*
X136489392Y-53422178D01*
X136377822Y-53310608D01*
X136290163Y-53179416D01*
X136254549Y-53093436D01*
X136229781Y-53033642D01*
X136199000Y-52878893D01*
X136199000Y-52721107D01*
X136229781Y-52566358D01*
X136290162Y-52420586D01*
X136337994Y-52349000D01*
X136377822Y-52289392D01*
X136489392Y-52177822D01*
X136620584Y-52090163D01*
X136620586Y-52090162D01*
X136766358Y-52029781D01*
X136921107Y-51999000D01*
X137078893Y-51999000D01*
X137233642Y-52029781D01*
X137233642Y-52029781D01*
G37*
G36*
X142113642Y-52029781D02*
G01*
X142259414Y-52090162D01*
X142259416Y-52090163D01*
X142390608Y-52177822D01*
X142502178Y-52289392D01*
X142542006Y-52349000D01*
X142589838Y-52420586D01*
X142650219Y-52566358D01*
X142681000Y-52721107D01*
X142681000Y-52878893D01*
X142650219Y-53033642D01*
X142625451Y-53093436D01*
X142589837Y-53179416D01*
X142502178Y-53310608D01*
X142390608Y-53422178D01*
X142259416Y-53509837D01*
X142259415Y-53509838D01*
X142259414Y-53509838D01*
X142113642Y-53570219D01*
X141958893Y-53601000D01*
X141801107Y-53601000D01*
X141646358Y-53570219D01*
X141500586Y-53509838D01*
X141500585Y-53509838D01*
X141500584Y-53509837D01*
X141369392Y-53422178D01*
X141257822Y-53310608D01*
X141170163Y-53179416D01*
X141134549Y-53093436D01*
X141109781Y-53033642D01*
X141079000Y-52878893D01*
X141079000Y-52721107D01*
X141109781Y-52566358D01*
X141170162Y-52420586D01*
X141217994Y-52349000D01*
X141257822Y-52289392D01*
X141369392Y-52177822D01*
X141500584Y-52090163D01*
X141500586Y-52090162D01*
X141646358Y-52029781D01*
X141801107Y-51999000D01*
X141958893Y-51999000D01*
X142113642Y-52029781D01*
X142113642Y-52029781D01*
G37*
G36*
X149451000Y-52551000D02*
G01*
X147349000Y-52551000D01*
X147349000Y-49249000D01*
X149451000Y-49249000D01*
X149451000Y-52551000D01*
X149451000Y-52551000D01*
G37*
G36*
X160651000Y-52551000D02*
G01*
X158549000Y-52551000D01*
X158549000Y-49249000D01*
X160651000Y-49249000D01*
X160651000Y-52551000D01*
X160651000Y-52551000D01*
G37*
G36*
X117806564Y-49889389D02*
G01*
X117997833Y-49968615D01*
X117997835Y-49968616D01*
X118169973Y-50083635D01*
X118316365Y-50230027D01*
X118431385Y-50402167D01*
X118510611Y-50593436D01*
X118551000Y-50796484D01*
X118551000Y-51003516D01*
X118510611Y-51206564D01*
X118431385Y-51397833D01*
X118431384Y-51397835D01*
X118316365Y-51569973D01*
X118169973Y-51716365D01*
X117997835Y-51831384D01*
X117997834Y-51831385D01*
X117997833Y-51831385D01*
X117806564Y-51910611D01*
X117603516Y-51951000D01*
X117396484Y-51951000D01*
X117193436Y-51910611D01*
X117002167Y-51831385D01*
X117002166Y-51831385D01*
X117002165Y-51831384D01*
X116830027Y-51716365D01*
X116683635Y-51569973D01*
X116568616Y-51397835D01*
X116568615Y-51397833D01*
X116489389Y-51206564D01*
X116449000Y-51003516D01*
X116449000Y-50796484D01*
X116489389Y-50593436D01*
X116568615Y-50402167D01*
X116683635Y-50230027D01*
X116830027Y-50083635D01*
X117002165Y-49968616D01*
X117002167Y-49968615D01*
X117193436Y-49889389D01*
X117396484Y-49849000D01*
X117603516Y-49849000D01*
X117806564Y-49889389D01*
X117806564Y-49889389D01*
G37*
G36*
X175806564Y-49889389D02*
G01*
X175997833Y-49968615D01*
X175997835Y-49968616D01*
X176169973Y-50083635D01*
X176316365Y-50230027D01*
X176431385Y-50402167D01*
X176510611Y-50593436D01*
X176551000Y-50796484D01*
X176551000Y-51003516D01*
X176510611Y-51206564D01*
X176431385Y-51397833D01*
X176431384Y-51397835D01*
X176316365Y-51569973D01*
X176169973Y-51716365D01*
X175997835Y-51831384D01*
X175997834Y-51831385D01*
X175997833Y-51831385D01*
X175806564Y-51910611D01*
X175603516Y-51951000D01*
X175396484Y-51951000D01*
X175193436Y-51910611D01*
X175002167Y-51831385D01*
X175002166Y-51831385D01*
X175002165Y-51831384D01*
X174830027Y-51716365D01*
X174683635Y-51569973D01*
X174568616Y-51397835D01*
X174568615Y-51397833D01*
X174489389Y-51206564D01*
X174449000Y-51003516D01*
X174449000Y-50796484D01*
X174489389Y-50593436D01*
X174568615Y-50402167D01*
X174683635Y-50230027D01*
X174830027Y-50083635D01*
X175002165Y-49968616D01*
X175002167Y-49968615D01*
X175193436Y-49889389D01*
X175396484Y-49849000D01*
X175603516Y-49849000D01*
X175806564Y-49889389D01*
X175806564Y-49889389D01*
G37*
G36*
X190306564Y-47389389D02*
G01*
X190497833Y-47468615D01*
X190497835Y-47468616D01*
X190669973Y-47583635D01*
X190816365Y-47730027D01*
X190931385Y-47902167D01*
X191010611Y-48093436D01*
X191051000Y-48296484D01*
X191051000Y-48503516D01*
X191010611Y-48706564D01*
X191007085Y-48715076D01*
X190931384Y-48897835D01*
X190816365Y-49069973D01*
X190669973Y-49216365D01*
X190497835Y-49331384D01*
X190497834Y-49331385D01*
X190497833Y-49331385D01*
X190306564Y-49410611D01*
X190103516Y-49451000D01*
X189896484Y-49451000D01*
X189693436Y-49410611D01*
X189502167Y-49331385D01*
X189502166Y-49331385D01*
X189502165Y-49331384D01*
X189330027Y-49216365D01*
X189183635Y-49069973D01*
X189068616Y-48897835D01*
X188992915Y-48715076D01*
X188989389Y-48706564D01*
X188949000Y-48503516D01*
X188949000Y-48296484D01*
X188989389Y-48093436D01*
X189068615Y-47902167D01*
X189183635Y-47730027D01*
X189330027Y-47583635D01*
X189502165Y-47468616D01*
X189502167Y-47468615D01*
X189693436Y-47389389D01*
X189896484Y-47349000D01*
X190103516Y-47349000D01*
X190306564Y-47389389D01*
X190306564Y-47389389D01*
G37*
G36*
X118551000Y-49451000D02*
G01*
X116449000Y-49451000D01*
X116449000Y-47349000D01*
X118551000Y-47349000D01*
X118551000Y-49451000D01*
X118551000Y-49451000D01*
G37*
G36*
X132306564Y-47389389D02*
G01*
X132497833Y-47468615D01*
X132497835Y-47468616D01*
X132669973Y-47583635D01*
X132816365Y-47730027D01*
X132931385Y-47902167D01*
X133010611Y-48093436D01*
X133051000Y-48296484D01*
X133051000Y-48503516D01*
X133010611Y-48706564D01*
X133007085Y-48715076D01*
X132931384Y-48897835D01*
X132816365Y-49069973D01*
X132669973Y-49216365D01*
X132497835Y-49331384D01*
X132497834Y-49331385D01*
X132497833Y-49331385D01*
X132306564Y-49410611D01*
X132103516Y-49451000D01*
X131896484Y-49451000D01*
X131693436Y-49410611D01*
X131502167Y-49331385D01*
X131502166Y-49331385D01*
X131502165Y-49331384D01*
X131330027Y-49216365D01*
X131183635Y-49069973D01*
X131068616Y-48897835D01*
X130992915Y-48715076D01*
X130989389Y-48706564D01*
X130949000Y-48503516D01*
X130949000Y-48296484D01*
X130989389Y-48093436D01*
X131068615Y-47902167D01*
X131183635Y-47730027D01*
X131330027Y-47583635D01*
X131502165Y-47468616D01*
X131502167Y-47468615D01*
X131693436Y-47389389D01*
X131896484Y-47349000D01*
X132103516Y-47349000D01*
X132306564Y-47389389D01*
X132306564Y-47389389D01*
G37*
G36*
X176551000Y-49451000D02*
G01*
X174449000Y-49451000D01*
X174449000Y-47349000D01*
X176551000Y-47349000D01*
X176551000Y-49451000D01*
X176551000Y-49451000D01*
G37*
G36*
X164466823Y-47401313D02*
G01*
X164627242Y-47449976D01*
X164759906Y-47520886D01*
X164775078Y-47528996D01*
X164904659Y-47635341D01*
X165011004Y-47764922D01*
X165011005Y-47764924D01*
X165090024Y-47912758D01*
X165138687Y-48073177D01*
X165155117Y-48240000D01*
X165138687Y-48406823D01*
X165090024Y-48567242D01*
X165019114Y-48699906D01*
X165011004Y-48715078D01*
X164904659Y-48844659D01*
X164775078Y-48951004D01*
X164775076Y-48951005D01*
X164627242Y-49030024D01*
X164466823Y-49078687D01*
X164341804Y-49091000D01*
X164258196Y-49091000D01*
X164133177Y-49078687D01*
X163972758Y-49030024D01*
X163824924Y-48951005D01*
X163824922Y-48951004D01*
X163695341Y-48844659D01*
X163588996Y-48715078D01*
X163580886Y-48699906D01*
X163509976Y-48567242D01*
X163461313Y-48406823D01*
X163444883Y-48240000D01*
X163461313Y-48073177D01*
X163509976Y-47912758D01*
X163588995Y-47764924D01*
X163588996Y-47764922D01*
X163695341Y-47635341D01*
X163824922Y-47528996D01*
X163840094Y-47520886D01*
X163972758Y-47449976D01*
X164133177Y-47401313D01*
X164258196Y-47389000D01*
X164341804Y-47389000D01*
X164466823Y-47401313D01*
X164466823Y-47401313D01*
G37*
G36*
X171166823Y-47401313D02*
G01*
X171327242Y-47449976D01*
X171459906Y-47520886D01*
X171475078Y-47528996D01*
X171604659Y-47635341D01*
X171711004Y-47764922D01*
X171711005Y-47764924D01*
X171790024Y-47912758D01*
X171838687Y-48073177D01*
X171855117Y-48240000D01*
X171838687Y-48406823D01*
X171790024Y-48567242D01*
X171719114Y-48699906D01*
X171711004Y-48715078D01*
X171604659Y-48844659D01*
X171475078Y-48951004D01*
X171475076Y-48951005D01*
X171327242Y-49030024D01*
X171166823Y-49078687D01*
X171041804Y-49091000D01*
X170958196Y-49091000D01*
X170833177Y-49078687D01*
X170672758Y-49030024D01*
X170524924Y-48951005D01*
X170524922Y-48951004D01*
X170395341Y-48844659D01*
X170288996Y-48715078D01*
X170280886Y-48699906D01*
X170209976Y-48567242D01*
X170161313Y-48406823D01*
X170144883Y-48240000D01*
X170161313Y-48073177D01*
X170209976Y-47912758D01*
X170288995Y-47764924D01*
X170288996Y-47764922D01*
X170395341Y-47635341D01*
X170524922Y-47528996D01*
X170540094Y-47520886D01*
X170672758Y-47449976D01*
X170833177Y-47401313D01*
X170958196Y-47389000D01*
X171041804Y-47389000D01*
X171166823Y-47401313D01*
X171166823Y-47401313D01*
G37*
G36*
X142248228Y-45981703D02*
G01*
X142403100Y-46045853D01*
X142542481Y-46138985D01*
X142661015Y-46257519D01*
X142754147Y-46396900D01*
X142818297Y-46551772D01*
X142851000Y-46716184D01*
X142851000Y-46883816D01*
X142818297Y-47048228D01*
X142754147Y-47203100D01*
X142661015Y-47342481D01*
X142542481Y-47461015D01*
X142403100Y-47554147D01*
X142248228Y-47618297D01*
X142083816Y-47651000D01*
X141916184Y-47651000D01*
X141751772Y-47618297D01*
X141596900Y-47554147D01*
X141457519Y-47461015D01*
X141338985Y-47342481D01*
X141245853Y-47203100D01*
X141181703Y-47048228D01*
X141149000Y-46883816D01*
X141149000Y-46716184D01*
X141181703Y-46551772D01*
X141245853Y-46396900D01*
X141338985Y-46257519D01*
X141457519Y-46138985D01*
X141596900Y-46045853D01*
X141751772Y-45981703D01*
X141916184Y-45949000D01*
X142083816Y-45949000D01*
X142248228Y-45981703D01*
X142248228Y-45981703D01*
G37*
G36*
X137248228Y-45981703D02*
G01*
X137403100Y-46045853D01*
X137542481Y-46138985D01*
X137661015Y-46257519D01*
X137754147Y-46396900D01*
X137818297Y-46551772D01*
X137851000Y-46716184D01*
X137851000Y-46883816D01*
X137818297Y-47048228D01*
X137754147Y-47203100D01*
X137661015Y-47342481D01*
X137542481Y-47461015D01*
X137403100Y-47554147D01*
X137248228Y-47618297D01*
X137083816Y-47651000D01*
X136916184Y-47651000D01*
X136751772Y-47618297D01*
X136596900Y-47554147D01*
X136457519Y-47461015D01*
X136338985Y-47342481D01*
X136245853Y-47203100D01*
X136181703Y-47048228D01*
X136149000Y-46883816D01*
X136149000Y-46716184D01*
X136181703Y-46551772D01*
X136245853Y-46396900D01*
X136338985Y-46257519D01*
X136457519Y-46138985D01*
X136596900Y-46045853D01*
X136751772Y-45981703D01*
X136916184Y-45949000D01*
X137083816Y-45949000D01*
X137248228Y-45981703D01*
X137248228Y-45981703D01*
G37*
G36*
X184651000Y-46351000D02*
G01*
X181349000Y-46351000D01*
X181349000Y-44249000D01*
X184651000Y-44249000D01*
X184651000Y-46351000D01*
X184651000Y-46351000D01*
G37*
G36*
X126651000Y-46351000D02*
G01*
X123349000Y-46351000D01*
X123349000Y-44249000D01*
X126651000Y-44249000D01*
X126651000Y-46351000D01*
X126651000Y-46351000D01*
G37*
G36*
X193846189Y-40010483D02*
G01*
X193846192Y-40010484D01*
X193846191Y-40010484D01*
X194374139Y-40229167D01*
X194849280Y-40546646D01*
X195253354Y-40950720D01*
X195458350Y-41257519D01*
X195570834Y-41425863D01*
X195789517Y-41953811D01*
X195901000Y-42514275D01*
X195901000Y-43085725D01*
X195789517Y-43646189D01*
X195789516Y-43646191D01*
X195570833Y-44174139D01*
X195253354Y-44649280D01*
X194849280Y-45053354D01*
X194374139Y-45370833D01*
X194374138Y-45370834D01*
X194374137Y-45370834D01*
X193846189Y-45589517D01*
X193285725Y-45701000D01*
X192714275Y-45701000D01*
X192153811Y-45589517D01*
X191625863Y-45370834D01*
X191625862Y-45370834D01*
X191625861Y-45370833D01*
X191150720Y-45053354D01*
X190746646Y-44649280D01*
X190429167Y-44174139D01*
X190210484Y-43646191D01*
X190210483Y-43646189D01*
X190099000Y-43085725D01*
X190099000Y-42514275D01*
X190210483Y-41953811D01*
X190429166Y-41425863D01*
X190541650Y-41257519D01*
X190746646Y-40950720D01*
X191150720Y-40546646D01*
X191625861Y-40229167D01*
X192153809Y-40010484D01*
X192153808Y-40010484D01*
X192153811Y-40010483D01*
X192714275Y-39899000D01*
X193285725Y-39899000D01*
X193846189Y-40010483D01*
X193846189Y-40010483D01*
G37*
G36*
X115846189Y-40010483D02*
G01*
X115846192Y-40010484D01*
X115846191Y-40010484D01*
X116374139Y-40229167D01*
X116849280Y-40546646D01*
X117253354Y-40950720D01*
X117458350Y-41257519D01*
X117570834Y-41425863D01*
X117789517Y-41953811D01*
X117901000Y-42514275D01*
X117901000Y-43085725D01*
X117789517Y-43646189D01*
X117789516Y-43646191D01*
X117570833Y-44174139D01*
X117253354Y-44649280D01*
X116849280Y-45053354D01*
X116374139Y-45370833D01*
X116374138Y-45370834D01*
X116374137Y-45370834D01*
X115846189Y-45589517D01*
X115285725Y-45701000D01*
X114714275Y-45701000D01*
X114153811Y-45589517D01*
X113625863Y-45370834D01*
X113625862Y-45370834D01*
X113625861Y-45370833D01*
X113150720Y-45053354D01*
X112746646Y-44649280D01*
X112429167Y-44174139D01*
X112210484Y-43646191D01*
X112210483Y-43646189D01*
X112099000Y-43085725D01*
X112099000Y-42514275D01*
X112210483Y-41953811D01*
X112429166Y-41425863D01*
X112541650Y-41257519D01*
X112746646Y-40950720D01*
X113150720Y-40546646D01*
X113625861Y-40229167D01*
X114153809Y-40010484D01*
X114153808Y-40010484D01*
X114153811Y-40010483D01*
X114714275Y-39899000D01*
X115285725Y-39899000D01*
X115846189Y-40010483D01*
X115846189Y-40010483D01*
G37*
G36*
X156806564Y-42889389D02*
G01*
X156978775Y-42960721D01*
X156997835Y-42968616D01*
X157169973Y-43083635D01*
X157316365Y-43230027D01*
X157397197Y-43351000D01*
X157431385Y-43402167D01*
X157510611Y-43593436D01*
X157551000Y-43796484D01*
X157551000Y-44003516D01*
X157510611Y-44206564D01*
X157493033Y-44249000D01*
X157431384Y-44397835D01*
X157316365Y-44569973D01*
X157169973Y-44716365D01*
X156997835Y-44831384D01*
X156997834Y-44831385D01*
X156997833Y-44831385D01*
X156806564Y-44910611D01*
X156603516Y-44951000D01*
X156396484Y-44951000D01*
X156193436Y-44910611D01*
X156002167Y-44831385D01*
X156002166Y-44831385D01*
X156002165Y-44831384D01*
X155830027Y-44716365D01*
X155683635Y-44569973D01*
X155568616Y-44397835D01*
X155506967Y-44249000D01*
X155489389Y-44206564D01*
X155449000Y-44003516D01*
X155449000Y-43796484D01*
X155489389Y-43593436D01*
X155568615Y-43402167D01*
X155602804Y-43351000D01*
X155683635Y-43230027D01*
X155830027Y-43083635D01*
X156002165Y-42968616D01*
X156021225Y-42960721D01*
X156193436Y-42889389D01*
X156396484Y-42849000D01*
X156603516Y-42849000D01*
X156806564Y-42889389D01*
X156806564Y-42889389D01*
G37*
G36*
X151806564Y-42889389D02*
G01*
X151978775Y-42960721D01*
X151997835Y-42968616D01*
X152169973Y-43083635D01*
X152316365Y-43230027D01*
X152397197Y-43351000D01*
X152431385Y-43402167D01*
X152510611Y-43593436D01*
X152551000Y-43796484D01*
X152551000Y-44003516D01*
X152510611Y-44206564D01*
X152493033Y-44249000D01*
X152431384Y-44397835D01*
X152316365Y-44569973D01*
X152169973Y-44716365D01*
X151997835Y-44831384D01*
X151997834Y-44831385D01*
X151997833Y-44831385D01*
X151806564Y-44910611D01*
X151603516Y-44951000D01*
X151396484Y-44951000D01*
X151193436Y-44910611D01*
X151002167Y-44831385D01*
X151002166Y-44831385D01*
X151002165Y-44831384D01*
X150830027Y-44716365D01*
X150683635Y-44569973D01*
X150568616Y-44397835D01*
X150506967Y-44249000D01*
X150489389Y-44206564D01*
X150449000Y-44003516D01*
X150449000Y-43796484D01*
X150489389Y-43593436D01*
X150568615Y-43402167D01*
X150602804Y-43351000D01*
X150683635Y-43230027D01*
X150830027Y-43083635D01*
X151002165Y-42968616D01*
X151021225Y-42960721D01*
X151193436Y-42889389D01*
X151396484Y-42849000D01*
X151603516Y-42849000D01*
X151806564Y-42889389D01*
X151806564Y-42889389D01*
G37*
G36*
X165860721Y-42270174D02*
G01*
X165960995Y-42311709D01*
X165960996Y-42311710D01*
X166051242Y-42372010D01*
X166127990Y-42448758D01*
X166127991Y-42448760D01*
X166188291Y-42539005D01*
X166229826Y-42639279D01*
X166251000Y-42745730D01*
X166251000Y-42854270D01*
X166229826Y-42960721D01*
X166188291Y-43060995D01*
X166171767Y-43085725D01*
X166127990Y-43151242D01*
X166051242Y-43227990D01*
X166048193Y-43230027D01*
X165960995Y-43288291D01*
X165860721Y-43329826D01*
X165754270Y-43351000D01*
X165645730Y-43351000D01*
X165539279Y-43329826D01*
X165439005Y-43288291D01*
X165351807Y-43230027D01*
X165348758Y-43227990D01*
X165272010Y-43151242D01*
X165228233Y-43085725D01*
X165211709Y-43060995D01*
X165170174Y-42960721D01*
X165149000Y-42854270D01*
X165149000Y-42745730D01*
X165170174Y-42639279D01*
X165211709Y-42539005D01*
X165272009Y-42448760D01*
X165272010Y-42448758D01*
X165348758Y-42372010D01*
X165439004Y-42311710D01*
X165439005Y-42311709D01*
X165539279Y-42270174D01*
X165645730Y-42249000D01*
X165754270Y-42249000D01*
X165860721Y-42270174D01*
X165860721Y-42270174D01*
G37*
G36*
X170260721Y-42270174D02*
G01*
X170360995Y-42311709D01*
X170360996Y-42311710D01*
X170451242Y-42372010D01*
X170527990Y-42448758D01*
X170527991Y-42448760D01*
X170588291Y-42539005D01*
X170629826Y-42639279D01*
X170651000Y-42745730D01*
X170651000Y-42854270D01*
X170629826Y-42960721D01*
X170588291Y-43060995D01*
X170571767Y-43085725D01*
X170527990Y-43151242D01*
X170451242Y-43227990D01*
X170448193Y-43230027D01*
X170360995Y-43288291D01*
X170260721Y-43329826D01*
X170154270Y-43351000D01*
X170045730Y-43351000D01*
X169939279Y-43329826D01*
X169839005Y-43288291D01*
X169751807Y-43230027D01*
X169748758Y-43227990D01*
X169672010Y-43151242D01*
X169628233Y-43085725D01*
X169611709Y-43060995D01*
X169570174Y-42960721D01*
X169549000Y-42854270D01*
X169549000Y-42745730D01*
X169570174Y-42639279D01*
X169611709Y-42539005D01*
X169672009Y-42448760D01*
X169672010Y-42448758D01*
X169748758Y-42372010D01*
X169839004Y-42311710D01*
X169839005Y-42311709D01*
X169939279Y-42270174D01*
X170045730Y-42249000D01*
X170154270Y-42249000D01*
X170260721Y-42270174D01*
X170260721Y-42270174D01*
G37*
G36*
X142248228Y-40981703D02*
G01*
X142403100Y-41045853D01*
X142542481Y-41138985D01*
X142661015Y-41257519D01*
X142754147Y-41396900D01*
X142818297Y-41551772D01*
X142851000Y-41716184D01*
X142851000Y-41883816D01*
X142818297Y-42048228D01*
X142754147Y-42203100D01*
X142661015Y-42342481D01*
X142542481Y-42461015D01*
X142403100Y-42554147D01*
X142248228Y-42618297D01*
X142083816Y-42651000D01*
X141916184Y-42651000D01*
X141751772Y-42618297D01*
X141596900Y-42554147D01*
X141457519Y-42461015D01*
X141338985Y-42342481D01*
X141245853Y-42203100D01*
X141181703Y-42048228D01*
X141149000Y-41883816D01*
X141149000Y-41716184D01*
X141181703Y-41551772D01*
X141245853Y-41396900D01*
X141338985Y-41257519D01*
X141457519Y-41138985D01*
X141596900Y-41045853D01*
X141751772Y-40981703D01*
X141916184Y-40949000D01*
X142083816Y-40949000D01*
X142248228Y-40981703D01*
X142248228Y-40981703D01*
G37*
G36*
X137248228Y-40981703D02*
G01*
X137403100Y-41045853D01*
X137542481Y-41138985D01*
X137661015Y-41257519D01*
X137754147Y-41396900D01*
X137818297Y-41551772D01*
X137851000Y-41716184D01*
X137851000Y-41883816D01*
X137818297Y-42048228D01*
X137754147Y-42203100D01*
X137661015Y-42342481D01*
X137542481Y-42461015D01*
X137403100Y-42554147D01*
X137248228Y-42618297D01*
X137083816Y-42651000D01*
X136916184Y-42651000D01*
X136751772Y-42618297D01*
X136596900Y-42554147D01*
X136457519Y-42461015D01*
X136338985Y-42342481D01*
X136245853Y-42203100D01*
X136181703Y-42048228D01*
X136149000Y-41883816D01*
X136149000Y-41716184D01*
X136181703Y-41551772D01*
X136245853Y-41396900D01*
X136338985Y-41257519D01*
X136457519Y-41138985D01*
X136596900Y-41045853D01*
X136751772Y-40981703D01*
X136916184Y-40949000D01*
X137083816Y-40949000D01*
X137248228Y-40981703D01*
X137248228Y-40981703D01*
G37*
M02*
